<mxfile host="65bd71144e">
    <diagram id="IXWHILLG9lDlljSeoBNo" name="第 1 页">
        <mxGraphModel dx="1444" dy="1507" grid="1" gridSize="10" guides="1" tooltips="1" connect="1" arrows="1" fold="1" page="1" pageScale="1" pageWidth="827" pageHeight="1169" math="0" shadow="0">
            <root>
                <mxCell id="0"/>
                <mxCell id="1" parent="0"/>
                <mxCell id="3" value="&lt;?xml version=&quot;1.0&quot; encoding=&quot;utf-8&quot;?&gt;&#13;&#10;&lt;!-- saved from url=(0016)http://localhost --&gt;&#13;&#10;&lt;html&gt;&lt;head&gt;&lt;meta charset=&quot;utf-8&quot;/&gt;&lt;meta http-equiv=&quot;X-UA-Compatible&quot; content=&quot;IE=edge&quot;/&gt;&lt;title&gt;代码流程图&lt;/title&gt;&lt;style&gt;&#13;&#10;        body{&#13;&#10;            margin: 0;&#13;&#10;        }&#13;&#10;        #content-info{&#13;&#10;            width: auto;&#13;&#10;            margin: 0 auto;&#13;&#10;            text-align: center;&#13;&#10;        }&#13;&#10;        #author-info{&#13;&#10;            white-space: nowrap;&#13;&#10;            text-overflow: ellipsis;&#13;&#10;            overflow: hidden;&#13;&#10;        }&#13;&#10;        #title{&#13;&#10;            text-overflow: ellipsis;&#13;&#10;            white-space: nowrap;&#13;&#10;            overflow: hidden;&#13;&#10;            padding-top: 10px;&#13;&#10;            margin-bottom: 2px;&#13;&#10;            font-size: 34px;&#13;&#10;            color: #505050;&#13;&#10;        }&#13;&#10;        .text{&#13;&#10;            white-space:nowrap;&#13;&#10;            text-overflow: ellipsis;&#13;&#10;            display: inline-block;&#13;&#10;            margin-right: 20px;&#13;&#10;            margin-bottom: 2px;&#13;&#10;            font-size: 20px;&#13;&#10;            color: #8c8c8c;&#13;&#10;        }&#13;&#10;        #navBar{&#13;&#10;            position: fixed;&#13;&#10;            right:0;&#13;&#10;            bottom: 0;&#13;&#10;            background-color: #f0f3f4;&#13;&#10;            overflow-y: auto;&#13;&#10;            text-align: center;&#13;&#10;        }&#13;&#10;        #svg-container{&#13;&#10;            width: 100%;&#13;&#10;            min-width: 0;&#13;&#10;            margin: 0 10px;&#13;&#10;        }&#13;&#10;        #nav-thumbs{&#13;&#10;            padding: 0 5px;&#13;&#10;        }&#13;&#10;        .nav-thumb{&#13;&#10;            position: relative;&#13;&#10;            margin: 10px auto;&#13;&#10;        }&#13;&#10;        .nav-thumb &gt;p{&#13;&#10;            text-align: center;&#13;&#10;            font-size: 12px;&#13;&#10;            margin: 4px 0 0 0;&#13;&#10;        }&#13;&#10;        .nav-thumb &gt;div{&#13;&#10;            position: relative;&#13;&#10;            display: inline-block;&#13;&#10;            border: 1px solid #c6cfd5;&#13;&#10;        }&#13;&#10;        .nav-thumb img{&#13;&#10;            display: block;&#13;&#10;        }&#13;&#10;        .nav-thumb span{&#13;&#10;            pointer-events: none;&#13;&#10;        }&#13;&#10;        #main-content{&#13;&#10;            bottom: 0;&#13;&#10;            left: 0;&#13;&#10;            right: 0;&#13;&#10;            background-color: #d0cfd8;&#13;&#10;            display: flex;&#13;&#10;            height: auto;&#13;&#10;            flex-flow: row wrap;&#13;&#10;            text-align:center;&#13;&#10;        }&#13;&#10;        #svg-container &gt;svg{&#13;&#10;            display: block;&#13;&#10;            margin:10px auto;&#13;&#10;            margin-bottom: 0;&#13;&#10;        }&#13;&#10;        #copyright{&#13;&#10;            bottom: 0;&#13;&#10;            left: 50%;&#13;&#10;            margin: 5px auto;&#13;&#10;            font-size: 16px;&#13;&#10;            color: #515151;&#13;&#10;        }&#13;&#10;        #copyright &gt;a{&#13;&#10;            text-decoration: none;&#13;&#10;            color: #77C;&#13;&#10;        }&#13;&#10;        .number{&#13;&#10;            position: absolute;&#13;&#10;            top:0;&#13;&#10;            left:0;&#13;&#10;            border-top:22px solid #76838f;&#13;&#10;            border-right: 22px solid transparent;&#13;&#10;        }&#13;&#10;        .pagenum{&#13;&#10;            font-size: 12px;&#13;&#10;            color: #fff;&#13;&#10;            position: absolute;&#13;&#10;            top: -23px;&#13;&#10;            left: 2px;&#13;&#10;        }&#13;&#10;        #navBar::-webkit-scrollbar{&#13;&#10;            width: 8px;&#13;&#10;            background-color: #f5f5f5;&#13;&#10;        }&#13;&#10;        #navBar::-webkit-scrollbar-track{&#13;&#10;            -webkit-box-shadow: inset 0 0 4px rgba(0,0,0,.3);&#13;&#10;            border-radius: 8px;&#13;&#10;            background-color: #fff;&#13;&#10;        }&#13;&#10;        #navBar::-webkit-scrollbar-thumb{&#13;&#10;            border-radius: 8px;&#13;&#10;            -webkit-box-shadow: inset 0 0 4px rgba(0,0,0,.3);&#13;&#10;            background-color: #6b6b70;&#13;&#10;        }&#13;&#10;        #navBar::-webkit-scrollbar-thumb:hover{&#13;&#10;            background-color: #4a4a4f;&#13;&#10;        }&#13;&#10;        .nav-thumb &gt;div:hover{&#13;&#10;            box-shadow:1px 1px 4px rgba(0,0,0,.4);&#13;&#10;        }&#13;&#10;        .selected .number{&#13;&#10;            border-color: #08a1ef transparent;&#13;&#10;        }&#13;&#10;&lt;/style&gt;&lt;/head&gt;&lt;body&gt;&lt;div id=&quot;main-area&quot;&gt;&lt;div id=&quot;content-info&quot;&gt;&lt;/div&gt;&lt;div id=&quot;main-content&quot;&gt;&lt;div id=&quot;svg-container&quot;&gt;&lt;svg xmlns=&quot;http://www.w3.org/2000/svg&quot; xmlns:xlink=&quot;http://www.w3.org/1999/xlink&quot; xmlns:ev=&quot;http://www.w3.org/2001/xml-events&quot; height=&quot;3174&quot; viewBox=&quot;0 0 1123 3175&quot; width=&quot;1122&quot; id=&quot;page1&quot; preserveAspectRadio=&quot;xMinYMin meet&quot;&gt;&lt;defs&gt;&lt;linearGradient y2=&quot;-11.9045&quot; gradientUnits=&quot;userSpaceOnUse&quot; x2=&quot;3.49747&quot; x1=&quot;50.1818&quot; y1=&quot;56&quot; id=&quot;watermark_linear&quot;&gt;&lt;stop stop-color=&quot;#0066FF&quot;/&gt;&lt;stop stop-color=&quot;#66CCFF&quot; offset=&quot;1&quot;/&gt;&lt;/linearGradient&gt;&lt;/defs&gt;&lt;rect stroke=&quot;#808080&quot; fill=&quot;#ffffff&quot; y=&quot;0&quot; height=&quot;3175&quot; x=&quot;0&quot; width=&quot;1123&quot;/&gt;&lt;g transform=&quot;translate(494.316000,204.170000)&quot; id=&quot;shape1&quot;&gt;&lt;path stroke=&quot;#101843&quot; d=&quot;M88.0,53.0L88.0,.0L.0,.0L.0,53.0L88.0,53.0z&quot; fill-rule=&quot;nonzero&quot; fill=&quot;#ffffff&quot; stroke-width=&quot;1&quot;/&gt;&lt;text xml:space=&quot;preserve&quot; style=&quot;fill:#191919;font-family:微软雅黑,PingFang SC,Mircrosoft YaHei,Arial;font-size:10.00pt&quot;&gt;&lt;tspan y=&quot;29.7&quot; style=&quot;font-family:微软雅黑,PingFang SC,Mircrosoft YaHei,Arial&quot; x=&quot;30.7&quot;&gt;开始&lt;/tspan&gt;&lt;/text&gt;&lt;/g&gt;&lt;g transform=&quot;translate(538.316000,257.170000)&quot; id=&quot;shape2&quot;&gt;&lt;path stroke=&quot;#191919&quot; d=&quot;M.0,.0L-0.0,50.0&quot; fill=&quot;none&quot; stroke-width=&quot;1&quot;/&gt;&lt;path stroke-linecap=&quot;round&quot; stroke=&quot;#191919&quot; d=&quot;M3.0,50.0L-0.0,56.0L-3.0,50.0L3.0,50.0&quot; fill=&quot;#191919&quot; stroke-width=&quot;1&quot;/&gt;&lt;/g&gt;&lt;g transform=&quot;translate(430.151000,313.170000)&quot; id=&quot;shape3&quot;&gt;&lt;path stroke=&quot;#101843&quot; d=&quot;M216.3,45.0L216.3,.0L.0,.0L.0,45.0L216.3,45.0z&quot; fill-rule=&quot;nonzero&quot; fill=&quot;#ffffff&quot; stroke-width=&quot;1&quot;/&gt;&lt;text xml:space=&quot;preserve&quot; style=&quot;fill:#191919;font-family:微软雅黑,PingFang SC,Mircrosoft YaHei,Arial;font-size:10.00pt&quot;&gt;&lt;tspan y=&quot;25.7&quot; style=&quot;font-family:微软雅黑,PingFang SC,Mircrosoft YaHei,Arial&quot; x=&quot;38.8&quot;&gt;定义BertSST2Model类&lt;/tspan&gt;&lt;/text&gt;&lt;/g&gt;&lt;g transform=&quot;translate(538.316000,358.170000)&quot; id=&quot;shape4&quot;&gt;&lt;path stroke=&quot;#191919&quot; d=&quot;M.0,.0L.0,13.0&quot; fill=&quot;none&quot; stroke-width=&quot;1&quot;/&gt;&lt;path stroke-linecap=&quot;round&quot; stroke=&quot;#191919&quot; d=&quot;M3.0,13.0L.0,19.0L-3.0,13.0L3.0,13.0&quot; fill=&quot;#191919&quot; stroke-width=&quot;1&quot;/&gt;&lt;/g&gt;&lt;g transform=&quot;translate(430.151000,377.170000)&quot; id=&quot;shape5&quot;&gt;&lt;path stroke=&quot;#101843&quot; d=&quot;M216.3,45.0L216.3,.0L.0,.0L.0,45.0L216.3,45.0z&quot; fill-rule=&quot;nonzero&quot; fill=&quot;#ffffff&quot; stroke-width=&quot;1&quot;/&gt;&lt;text xml:space=&quot;preserve&quot; style=&quot;fill:#191919;font-family:微软雅黑,PingFang SC,Mircrosoft YaHei,Arial;font-size:10.00pt&quot;&gt;&lt;tspan y=&quot;25.7&quot; style=&quot;font-family:微软雅黑,PingFang SC,Mircrosoft YaHei,Arial&quot; x=&quot;31.5&quot;&gt;定义save_pretrained函数&lt;/tspan&gt;&lt;/text&gt;&lt;/g&gt;&lt;g transform=&quot;translate(430.151000,441.170000)&quot; id=&quot;shape6&quot;&gt;&lt;path stroke=&quot;#101843&quot; d=&quot;M216.3,49.0L216.3,.0L.0,.0L.0,49.0L216.3,49.0z&quot; fill-rule=&quot;nonzero&quot; fill=&quot;#ffffff&quot; stroke-width=&quot;1&quot;/&gt;&lt;text xml:space=&quot;preserve&quot; style=&quot;fill:#191919;font-family:微软雅黑,PingFang SC,Mircrosoft YaHei,Arial;font-size:10.00pt&quot;&gt;&lt;tspan y=&quot;27.7&quot; style=&quot;font-family:微软雅黑,PingFang SC,Mircrosoft YaHei,Arial&quot; x=&quot;9.5&quot;&gt;定义load_sentence_polarity函数&lt;/tspan&gt;&lt;/text&gt;&lt;/g&gt;&lt;g transform=&quot;translate(538.316000,422.170000)&quot; id=&quot;shape7&quot;&gt;&lt;path stroke=&quot;#191919&quot; d=&quot;M.0,.0L.0,13.0&quot; fill=&quot;none&quot; stroke-width=&quot;1&quot;/&gt;&lt;path stroke-linecap=&quot;round&quot; stroke=&quot;#191919&quot; d=&quot;M3.0,13.0L.0,19.0L-3.0,13.0L3.0,13.0&quot; fill=&quot;#191919&quot; stroke-width=&quot;1&quot;/&gt;&lt;/g&gt;&lt;g transform=&quot;translate(538.316000,490.170000)&quot; id=&quot;shape8&quot;&gt;&lt;path stroke=&quot;#191919&quot; d=&quot;M.0,.0L.0,15.5&quot; fill=&quot;none&quot; stroke-width=&quot;1&quot;/&gt;&lt;path stroke-linecap=&quot;round&quot; stroke=&quot;#191919&quot; d=&quot;M3.0,15.5L.0,21.5L-3.0,15.5L3.0,15.5&quot; fill=&quot;#191919&quot; stroke-width=&quot;1&quot;/&gt;&lt;/g&gt;&lt;g transform=&quot;translate(430.151000,511.670000)&quot; id=&quot;shape9&quot;&gt;&lt;path stroke=&quot;#101843&quot; d=&quot;M216.3,49.0L216.3,.0L.0,.0L.0,49.0L216.3,49.0z&quot; fill-rule=&quot;nonzero&quot; fill=&quot;#ffffff&quot; stroke-width=&quot;1&quot;/&gt;&lt;text xml:space=&quot;preserve&quot; style=&quot;fill:#191919;font-family:微软雅黑,PingFang SC,Mircrosoft YaHei,Arial;font-size:10.00pt&quot;&gt;&lt;tspan y=&quot;28.2&quot; style=&quot;font-family:微软雅黑,PingFang SC,Mircrosoft YaHei,Arial&quot; x=&quot;51.5&quot;&gt;定义BertDataset类&lt;/tspan&gt;&lt;/text&gt;&lt;/g&gt;&lt;g transform=&quot;translate(538.316000,560.670000)&quot; id=&quot;shape10&quot;&gt;&lt;path stroke=&quot;#191919&quot; d=&quot;M.0,.0L.0,15.5&quot; fill=&quot;none&quot; stroke-width=&quot;1&quot;/&gt;&lt;path stroke-linecap=&quot;round&quot; stroke=&quot;#191919&quot; d=&quot;M3.0,15.5L.0,21.5L-3.0,15.5L3.0,15.5&quot; fill=&quot;#191919&quot; stroke-width=&quot;1&quot;/&gt;&lt;/g&gt;&lt;g transform=&quot;translate(430.151000,582.170000)&quot; id=&quot;shape11&quot;&gt;&lt;path stroke=&quot;#101843&quot; d=&quot;M216.3,59.5L216.3,.0L.0,.0L.0,59.5L216.3,59.5z&quot; fill-rule=&quot;nonzero&quot; fill=&quot;#ffffff&quot; stroke-width=&quot;1&quot;/&gt;&lt;text xml:space=&quot;preserve&quot; style=&quot;fill:#191919;font-family:微软雅黑,PingFang SC,Mircrosoft YaHei,Arial;font-size:10.00pt&quot;&gt;&lt;tspan y=&quot;33.2&quot; style=&quot;font-family:微软雅黑,PingFang SC,Mircrosoft YaHei,Arial&quot; x=&quot;50.2&quot;&gt;定义coffate_fn函数&lt;/tspan&gt;&lt;/text&gt;&lt;/g&gt;&lt;g transform=&quot;translate(654.315700,313.170000)&quot; id=&quot;shape12&quot;&gt;&lt;path stroke=&quot;#000000&quot; d=&quot;M.0,.0L14.1,.0C17.4,-0.5,20.7,.6,23.1,3.0C25.4,5.4,26.5,8.7,26.1,12.0L26.1,192.0C25.6,195.3,26.7,198.6,29.1,201.0C31.4,203.4,34.7,204.5,38.1,204.0C34.7,203.5,31.4,204.6,29.1,207.0C26.7,209.4,25.6,212.7,26.1,216.0L26.1,396.0C26.5,399.3,25.4,402.6,23.1,405.0C20.7,407.4,17.4,408.5,14.1,408.0L.0,408.0&quot; fill=&quot;none&quot; stroke-width=&quot;1&quot;/&gt;&lt;text xml:space=&quot;preserve&quot; style=&quot;fill:#191919;font-family:微软雅黑,PingFang SC,Mircrosoft YaHei,Arial;font-size:10.00pt&quot;&gt;&lt;tspan y=&quot;207.2&quot; style=&quot;font-family:微软雅黑,PingFang SC,Mircrosoft YaHei,Arial&quot; x=&quot;51.6&quot;&gt;初始化&lt;/tspan&gt;&lt;/text&gt;&lt;/g&gt;&lt;g transform=&quot;translate(538.316000,641.670000)&quot; id=&quot;shape13&quot;&gt;&lt;path stroke=&quot;#191919&quot; d=&quot;M.0,.0L.0,14.0&quot; fill=&quot;none&quot; stroke-width=&quot;1&quot;/&gt;&lt;path stroke-linecap=&quot;round&quot; stroke=&quot;#191919&quot; d=&quot;M3.0,14.0L.0,20.0L-3.0,14.0L3.0,14.0&quot; fill=&quot;#191919&quot; stroke-width=&quot;1&quot;/&gt;&lt;/g&gt;&lt;g transform=&quot;translate(430.151000,661.670000)&quot; id=&quot;shape14&quot;&gt;&lt;path stroke=&quot;#101843&quot; d=&quot;M216.3,59.5L216.3,.0L.0,.0L.0,59.5L216.3,59.5z&quot; fill-rule=&quot;nonzero&quot; fill=&quot;#ffffff&quot; stroke-width=&quot;1&quot;/&gt;&lt;text xml:space=&quot;preserve&quot; style=&quot;fill:#191919;font-family:微软雅黑,PingFang SC,Mircrosoft YaHei,Arial;font-size:10.00pt&quot;&gt;&lt;tspan y=&quot;33.2&quot; style=&quot;font-family:微软雅黑,PingFang SC,Mircrosoft YaHei,Arial&quot; x=&quot;41.5&quot;&gt;设置超参数和全局变量&lt;/tspan&gt;&lt;/text&gt;&lt;/g&gt;&lt;g transform=&quot;translate(538.316000,721.170000)&quot; id=&quot;shape15&quot;&gt;&lt;path stroke=&quot;#191919&quot; d=&quot;M.0,.0L.0,74.7&quot; fill=&quot;none&quot; stroke-width=&quot;1&quot;/&gt;&lt;path stroke-linecap=&quot;round&quot; stroke=&quot;#191919&quot; d=&quot;M3.0,74.7L.0,80.7L-3.0,74.7L3.0,74.7&quot; fill=&quot;#191919&quot; stroke-width=&quot;1&quot;/&gt;&lt;/g&gt;&lt;g transform=&quot;translate(430.151000,802.723000)&quot; id=&quot;shape16&quot;&gt;&lt;path stroke=&quot;#101843&quot; d=&quot;M216.3,59.5L216.3,.0L.0,.0L.0,59.5L216.3,59.5z&quot; fill-rule=&quot;nonzero&quot; fill=&quot;#ffffff&quot; stroke-width=&quot;1&quot;/&gt;&lt;text xml:space=&quot;preserve&quot; style=&quot;fill:#191919;font-family:微软雅黑,PingFang SC,Mircrosoft YaHei,Arial;font-size:10.00pt&quot;&gt;&lt;tspan y=&quot;32.9&quot; style=&quot;font-family:微软雅黑,PingFang SC,Mircrosoft YaHei,Arial&quot; x=&quot;61.5&quot;&gt;获取数据、分类&lt;/tspan&gt;&lt;/text&gt;&lt;/g&gt;&lt;g transform=&quot;translate(430.151000,878.500000)&quot; id=&quot;shape17&quot;&gt;&lt;path stroke=&quot;#101843&quot; d=&quot;M216.3,59.5L216.3,.0L.0,.0L.0,59.5L216.3,59.5z&quot; fill-rule=&quot;nonzero&quot; fill=&quot;#ffffff&quot; stroke-width=&quot;1&quot;/&gt;&lt;text xml:space=&quot;preserve&quot; style=&quot;fill:#191919;font-family:微软雅黑,PingFang SC,Mircrosoft YaHei,Arial;font-size:10.00pt&quot;&gt;&lt;tspan y=&quot;33.2&quot; style=&quot;font-family:微软雅黑,PingFang SC,Mircrosoft YaHei,Arial&quot; x=&quot;51.8&quot;&gt;封装数据成dataset&lt;/tspan&gt;&lt;/text&gt;&lt;/g&gt;&lt;g transform=&quot;translate(430.151000,1005.613200)&quot; id=&quot;shape18&quot;&gt;&lt;path stroke=&quot;#101843&quot; d=&quot;M216.3,65.1L216.3,.0L.0,.0L.0,65.1L216.3,65.1z&quot; fill-rule=&quot;nonzero&quot; fill=&quot;#ffffff&quot; stroke-width=&quot;1&quot;/&gt;&lt;text xml:space=&quot;preserve&quot; style=&quot;fill:#191919;font-family:微软雅黑,PingFang SC,Mircrosoft YaHei,Arial;font-size:10.00pt&quot;&gt;&lt;tspan y=&quot;36.2&quot; style=&quot;font-family:微软雅黑,PingFang SC,Mircrosoft YaHei,Arial&quot; x=&quot;60.5&quot;&gt;加载dataloader&lt;/tspan&gt;&lt;/text&gt;&lt;/g&gt;&lt;g transform=&quot;translate(430.151000,1087.279800)&quot; id=&quot;shape19&quot;&gt;&lt;path stroke=&quot;#101843&quot; d=&quot;M216.3,65.1L216.3,.0L.0,.0L.0,65.1L216.3,65.1z&quot; fill-rule=&quot;nonzero&quot; fill=&quot;#ffffff&quot; stroke-width=&quot;1&quot;/&gt;&lt;text xml:space=&quot;preserve&quot; style=&quot;fill:#191919;font-family:微软雅黑,PingFang SC,Mircrosoft YaHei,Arial;font-size:10.00pt&quot;&gt;&lt;tspan y=&quot;36.2&quot; style=&quot;font-family:微软雅黑,PingFang SC,Mircrosoft YaHei,Arial&quot; x=&quot;25.5&quot;&gt;加载预训练模型和tokenizer&lt;/tspan&gt;&lt;/text&gt;&lt;/g&gt;&lt;g transform=&quot;translate(430.151000,1168.946400)&quot; id=&quot;shape20&quot;&gt;&lt;path stroke=&quot;#101843&quot; d=&quot;M216.3,65.1L216.3,.0L.0,.0L.0,65.1L216.3,65.1z&quot; fill-rule=&quot;nonzero&quot; fill=&quot;#ffffff&quot; stroke-width=&quot;1&quot;/&gt;&lt;text xml:space=&quot;preserve&quot; style=&quot;fill:#191919;font-family:微软雅黑,PingFang SC,Mircrosoft YaHei,Arial;font-size:10.00pt&quot;&gt;&lt;tspan y=&quot;36.2&quot; style=&quot;font-family:微软雅黑,PingFang SC,Mircrosoft YaHei,Arial&quot; x=&quot;55.8&quot;&gt;加载优化器Adam&lt;/tspan&gt;&lt;/text&gt;&lt;/g&gt;&lt;g transform=&quot;translate(538.316000,1070.666600)&quot; id=&quot;shape21&quot;&gt;&lt;path stroke=&quot;#191919&quot; d=&quot;M.0,.0L.0,10.6&quot; fill=&quot;none&quot; stroke-width=&quot;1&quot;/&gt;&lt;path stroke-linecap=&quot;round&quot; stroke=&quot;#191919&quot; d=&quot;M3.0,10.6L.0,16.6L-3.0,10.6L3.0,10.6&quot; fill=&quot;#191919&quot; stroke-width=&quot;1&quot;/&gt;&lt;/g&gt;&lt;g transform=&quot;translate(538.316000,1152.333200)&quot; id=&quot;shape22&quot;&gt;&lt;path stroke=&quot;#191919&quot; d=&quot;M.0,.0L.0,10.6&quot; fill=&quot;none&quot; stroke-width=&quot;1&quot;/&gt;&lt;path stroke-linecap=&quot;round&quot; stroke=&quot;#191919&quot; d=&quot;M3.0,10.6L.0,16.6L-3.0,10.6L3.0,10.6&quot; fill=&quot;#191919&quot; stroke-width=&quot;1&quot;/&gt;&lt;/g&gt;&lt;g transform=&quot;translate(430.151000,1311.279600)&quot; id=&quot;shape23&quot;&gt;&lt;path stroke=&quot;#101843&quot; d=&quot;M.0,65.1L216.3,65.1L216.3,16.3L200.1,.0L16.3,.0L.0,16.3L.0,65.1z&quot; fill-rule=&quot;nonzero&quot; fill=&quot;#ffffff&quot; stroke-width=&quot;1&quot;/&gt;&lt;text xml:space=&quot;preserve&quot; style=&quot;fill:#191919;font-family:微软雅黑,PingFang SC,Mircrosoft YaHei,Arial;font-size:10.00pt&quot;&gt;&lt;tspan y=&quot;35.7&quot; style=&quot;font-family:微软雅黑,PingFang SC,Mircrosoft YaHei,Arial&quot; x=&quot;8.5&quot;&gt;开始训练、测试，对于每个epoch&lt;/tspan&gt;&lt;/text&gt;&lt;/g&gt;&lt;g transform=&quot;translate(538.316000,1233.999800)&quot; id=&quot;shape24&quot;&gt;&lt;path stroke=&quot;#191919&quot; d=&quot;M.0,.0L.0,71.3&quot; fill=&quot;none&quot; stroke-width=&quot;1&quot;/&gt;&lt;path stroke-linecap=&quot;round&quot; stroke=&quot;#191919&quot; d=&quot;M3.0,71.3L.0,77.3L-3.0,71.3L3.0,71.3&quot; fill=&quot;#191919&quot; stroke-width=&quot;1&quot;/&gt;&lt;/g&gt;&lt;g transform=&quot;translate(538.316000,1376.333000)&quot; id=&quot;shape25&quot;&gt;&lt;path stroke=&quot;#191919&quot; d=&quot;M.0,.0L.0,42.3&quot; fill=&quot;none&quot; stroke-width=&quot;1&quot;/&gt;&lt;path stroke-linecap=&quot;round&quot; stroke=&quot;#191919&quot; d=&quot;M3.0,42.3L.0,48.3L-3.0,42.3L3.0,42.3&quot; fill=&quot;#191919&quot; stroke-width=&quot;1&quot;/&gt;&lt;/g&gt;&lt;g transform=&quot;translate(444.453000,1424.612800)&quot; id=&quot;shape26&quot;&gt;&lt;path stroke=&quot;#101843&quot; d=&quot;M.0,66.4L187.7,66.4L187.7,16.6L171.1,.0L16.6,.0L.0,16.6L.0,66.4z&quot; fill-rule=&quot;nonzero&quot; fill=&quot;#ffffff&quot; stroke-width=&quot;1&quot;/&gt;&lt;text xml:space=&quot;preserve&quot; style=&quot;fill:#191919;font-family:微软雅黑,PingFang SC,Mircrosoft YaHei,Arial;font-size:10.00pt&quot;&gt;&lt;tspan y=&quot;27.2&quot; style=&quot;font-family:微软雅黑,PingFang SC,Mircrosoft YaHei,Arial&quot; x=&quot;3.2&quot;&gt;开始训练，使用tqdm显示进度&lt;/tspan&gt;&lt;tspan y=&quot;45.2&quot; style=&quot;font-family:微软雅黑,PingFang SC,Mircrosoft YaHei,Arial&quot; x=&quot;87.2&quot;&gt;条&lt;/tspan&gt;&lt;/text&gt;&lt;/g&gt;&lt;g transform=&quot;translate(538.316000,1491.000000)&quot; id=&quot;shape27&quot;&gt;&lt;path stroke=&quot;#191919&quot; d=&quot;M.0,.0L.0,15.6&quot; fill=&quot;none&quot; stroke-width=&quot;1&quot;/&gt;&lt;path stroke-linecap=&quot;round&quot; stroke=&quot;#191919&quot; d=&quot;M3.0,15.6L.0,21.6L-3.0,15.6L3.0,15.6&quot; fill=&quot;#191919&quot; stroke-width=&quot;1&quot;/&gt;&lt;/g&gt;&lt;g transform=&quot;translate(444.453000,1513.575200)&quot; id=&quot;shape28&quot;&gt;&lt;path stroke=&quot;#101843&quot; d=&quot;M187.7,66.4L187.7,.0L.0,.0L.0,66.4L187.7,66.4z&quot; fill-rule=&quot;nonzero&quot; fill=&quot;#ffffff&quot; stroke-width=&quot;1&quot;/&gt;&lt;text xml:space=&quot;preserve&quot; style=&quot;fill:#191919;font-family:微软雅黑,PingFang SC,Mircrosoft YaHei,Arial;font-size:10.00pt&quot;&gt;&lt;tspan y=&quot;36.7&quot; style=&quot;font-family:微软雅黑,PingFang SC,Mircrosoft YaHei,Arial&quot; x=&quot;53.9&quot;&gt;清除现有梯度&lt;/tspan&gt;&lt;/text&gt;&lt;/g&gt;&lt;g transform=&quot;translate(538.316000,1579.962400)&quot; id=&quot;shape29&quot;&gt;&lt;path stroke=&quot;#191919&quot; d=&quot;M.0,.0L.0,16.6&quot; fill=&quot;none&quot; stroke-width=&quot;1&quot;/&gt;&lt;path stroke-linecap=&quot;round&quot; stroke=&quot;#191919&quot; d=&quot;M3.0,16.6L.0,22.6L-3.0,16.6L3.0,16.6&quot; fill=&quot;#191919&quot; stroke-width=&quot;1&quot;/&gt;&lt;/g&gt;&lt;g transform=&quot;translate(444.453000,1602.537600)&quot; id=&quot;shape30&quot;&gt;&lt;path stroke=&quot;#101843&quot; d=&quot;M187.7,66.4L187.7,.0L.0,.0L.0,66.4L187.7,66.4z&quot; fill-rule=&quot;nonzero&quot; fill=&quot;#ffffff&quot; stroke-width=&quot;1&quot;/&gt;&lt;text xml:space=&quot;preserve&quot; style=&quot;fill:#191919;font-family:微软雅黑,PingFang SC,Mircrosoft YaHei,Arial;font-size:10.00pt&quot;&gt;&lt;tspan y=&quot;36.7&quot; style=&quot;font-family:微软雅黑,PingFang SC,Mircrosoft YaHei,Arial&quot; x=&quot;33.9&quot;&gt;计算损失（交叉熵）&lt;/tspan&gt;&lt;/text&gt;&lt;/g&gt;&lt;g transform=&quot;translate(538.316000,1668.924800)&quot; id=&quot;shape31&quot;&gt;&lt;path stroke=&quot;#191919&quot; d=&quot;M.0,.0L.0,16.6&quot; fill=&quot;none&quot; stroke-width=&quot;1&quot;/&gt;&lt;path stroke-linecap=&quot;round&quot; stroke=&quot;#191919&quot; d=&quot;M3.0,16.6L.0,22.6L-3.0,16.6L3.0,16.6&quot; fill=&quot;#191919&quot; stroke-width=&quot;1&quot;/&gt;&lt;/g&gt;&lt;g transform=&quot;translate(444.453000,1691.500000)&quot; id=&quot;shape32&quot;&gt;&lt;path stroke=&quot;#101843&quot; d=&quot;M187.7,66.4L187.7,.0L.0,.0L.0,66.4L187.7,66.4z&quot; fill-rule=&quot;nonzero&quot; fill=&quot;#ffffff&quot; stroke-width=&quot;1&quot;/&gt;&lt;text xml:space=&quot;preserve&quot; style=&quot;fill:#191919;font-family:微软雅黑,PingFang SC,Mircrosoft YaHei,Arial;font-size:10.00pt&quot;&gt;&lt;tspan y=&quot;36.7&quot; style=&quot;font-family:微软雅黑,PingFang SC,Mircrosoft YaHei,Arial&quot; x=&quot;67.2&quot;&gt;反向传播&lt;/tspan&gt;&lt;/text&gt;&lt;/g&gt;&lt;g transform=&quot;translate(538.316000,1757.887200)&quot; id=&quot;shape33&quot;&gt;&lt;path stroke=&quot;#191919&quot; d=&quot;M.0,.0L.0,16.6&quot; fill=&quot;none&quot; stroke-width=&quot;1&quot;/&gt;&lt;path stroke-linecap=&quot;round&quot; stroke=&quot;#191919&quot; d=&quot;M3.0,16.6L.0,22.6L-3.0,16.6L3.0,16.6&quot; fill=&quot;#191919&quot; stroke-width=&quot;1&quot;/&gt;&lt;/g&gt;&lt;g transform=&quot;translate(444.453000,1780.462400)&quot; id=&quot;shape34&quot;&gt;&lt;path stroke=&quot;#101843&quot; d=&quot;M187.7,66.4L187.7,.0L.0,.0L.0,66.4L187.7,66.4z&quot; fill-rule=&quot;nonzero&quot; fill=&quot;#ffffff&quot; stroke-width=&quot;1&quot;/&gt;&lt;text xml:space=&quot;preserve&quot; style=&quot;fill:#191919;font-family:微软雅黑,PingFang SC,Mircrosoft YaHei,Arial;font-size:10.00pt&quot;&gt;&lt;tspan y=&quot;27.2&quot; style=&quot;font-family:微软雅黑,PingFang SC,Mircrosoft YaHei,Arial&quot; x=&quot;40.5&quot;&gt;根据反向传播的值&lt;/tspan&gt;&lt;tspan y=&quot;45.2&quot; style=&quot;font-family:微软雅黑,PingFang SC,Mircrosoft YaHei,Arial&quot; x=&quot;53.9&quot;&gt;更新模型参数&lt;/tspan&gt;&lt;/text&gt;&lt;/g&gt;&lt;g transform=&quot;translate(538.316000,2012.000000)&quot; id=&quot;shape35&quot;&gt;&lt;path stroke=&quot;#191919&quot; d=&quot;M.0,.0L.0,49.7&quot; fill=&quot;none&quot; stroke-width=&quot;1&quot;/&gt;&lt;path stroke-linecap=&quot;round&quot; stroke=&quot;#191919&quot; d=&quot;M3.0,49.7L.0,55.7L-3.0,49.7L3.0,49.7&quot; fill=&quot;#191919&quot; stroke-width=&quot;1&quot;/&gt;&lt;/g&gt;&lt;g transform=&quot;translate(444.453000,2067.682200)&quot; id=&quot;shape36&quot;&gt;&lt;path stroke=&quot;#101843&quot; d=&quot;M.0,64.3L187.7,64.3L187.7,16.1L171.6,.0L16.1,.0L.0,16.1L.0,64.3z&quot; fill-rule=&quot;nonzero&quot; fill=&quot;#ffffff&quot; stroke-width=&quot;1&quot;/&gt;&lt;text xml:space=&quot;preserve&quot; style=&quot;fill:#191919;font-family:微软雅黑,PingFang SC,Mircrosoft YaHei,Arial;font-size:10.00pt&quot;&gt;&lt;tspan y=&quot;26.2&quot; style=&quot;font-family:微软雅黑,PingFang SC,Mircrosoft YaHei,Arial&quot; x=&quot;16.5&quot;&gt;开始测试，使用tqdm显示&lt;/tspan&gt;&lt;tspan y=&quot;44.2&quot; style=&quot;font-family:微软雅黑,PingFang SC,Mircrosoft YaHei,Arial&quot; x=&quot;27.9&quot;&gt;进度条，初始化acc=0&lt;/tspan&gt;&lt;/text&gt;&lt;/g&gt;&lt;g transform=&quot;translate(444.453000,2166.806400)&quot; id=&quot;shape37&quot;&gt;&lt;path stroke=&quot;#101843&quot; d=&quot;M187.7,66.4L187.7,.0L.0,.0L.0,66.4L187.7,66.4z&quot; fill-rule=&quot;nonzero&quot; fill=&quot;#ffffff&quot; stroke-width=&quot;1&quot;/&gt;&lt;text xml:space=&quot;preserve&quot; style=&quot;fill:#191919;font-family:微软雅黑,PingFang SC,Mircrosoft YaHei,Arial;font-size:10.00pt&quot;&gt;&lt;tspan y=&quot;36.7&quot; style=&quot;font-family:微软雅黑,PingFang SC,Mircrosoft YaHei,Arial&quot; x=&quot;27.9&quot;&gt;取出模型预测的inputs&lt;/tspan&gt;&lt;/text&gt;&lt;/g&gt;&lt;g transform=&quot;translate(538.316000,2132.000000)&quot; id=&quot;shape38&quot;&gt;&lt;path stroke=&quot;#191919&quot; d=&quot;M.0,.0L.0,27.8&quot; fill=&quot;none&quot; stroke-width=&quot;1&quot;/&gt;&lt;path stroke-linecap=&quot;round&quot; stroke=&quot;#191919&quot; d=&quot;M3.0,27.8L.0,33.8L-3.0,27.8L3.0,27.8&quot; fill=&quot;#191919&quot; stroke-width=&quot;1&quot;/&gt;&lt;/g&gt;&lt;g transform=&quot;translate(538.316000,1846.849600)&quot; id=&quot;shape39&quot;&gt;&lt;path stroke=&quot;#191919&quot; d=&quot;M.0,.0L.0,16.6&quot; fill=&quot;none&quot; stroke-width=&quot;1&quot;/&gt;&lt;path stroke-linecap=&quot;round&quot; stroke=&quot;#191919&quot; d=&quot;M3.0,16.6L.0,22.6L-3.0,16.6L3.0,16.6&quot; fill=&quot;#191919&quot; stroke-width=&quot;1&quot;/&gt;&lt;/g&gt;&lt;g transform=&quot;translate(444.453000,1869.424800)&quot; id=&quot;shape40&quot;&gt;&lt;path stroke=&quot;#101843&quot; d=&quot;M187.7,60.0L187.7,.0L.0,.0L.0,60.0L187.7,60.0z&quot; fill-rule=&quot;nonzero&quot; fill=&quot;#ffffff&quot; stroke-width=&quot;1&quot;/&gt;&lt;text xml:space=&quot;preserve&quot; style=&quot;fill:#191919;font-family:微软雅黑,PingFang SC,Mircrosoft YaHei,Arial;font-size:10.00pt&quot;&gt;&lt;tspan y=&quot;33.2&quot; style=&quot;font-family:微软雅黑,PingFang SC,Mircrosoft YaHei,Arial&quot; x=&quot;60.5&quot;&gt;统计总损失&lt;/tspan&gt;&lt;/text&gt;&lt;/g&gt;&lt;g transform=&quot;translate(538.316000,1929.424800)&quot; id=&quot;shape41&quot;&gt;&lt;path stroke=&quot;#191919&quot; d=&quot;M.0,.0L.0,16.6&quot; fill=&quot;none&quot; stroke-width=&quot;1&quot;/&gt;&lt;path stroke-linecap=&quot;round&quot; stroke=&quot;#191919&quot; d=&quot;M3.0,16.6L.0,22.6L-3.0,16.6L3.0,16.6&quot; fill=&quot;#191919&quot; stroke-width=&quot;1&quot;/&gt;&lt;/g&gt;&lt;g transform=&quot;translate(538.316000,2233.193600)&quot; id=&quot;shape42&quot;&gt;&lt;path stroke=&quot;#191919&quot; d=&quot;M.0,.0L.0,28.0&quot; fill=&quot;none&quot; stroke-width=&quot;1&quot;/&gt;&lt;path stroke-linecap=&quot;round&quot; stroke=&quot;#191919&quot; d=&quot;M3.0,28.0L.0,34.0L-3.0,28.0L3.0,28.0&quot; fill=&quot;#191919&quot; stroke-width=&quot;1&quot;/&gt;&lt;/g&gt;&lt;g transform=&quot;translate(444.453000,2268.000000)&quot; id=&quot;shape43&quot;&gt;&lt;path stroke=&quot;#101843&quot; d=&quot;M187.7,66.4L187.7,.0L.0,.0L.0,66.4L187.7,66.4z&quot; fill-rule=&quot;nonzero&quot; fill=&quot;#ffffff&quot; stroke-width=&quot;1&quot;/&gt;&lt;text xml:space=&quot;preserve&quot; style=&quot;fill:#191919;font-family:微软雅黑,PingFang SC,Mircrosoft YaHei,Arial;font-size:10.00pt&quot;&gt;&lt;tspan y=&quot;27.2&quot; style=&quot;font-family:微软雅黑,PingFang SC,Mircrosoft YaHei,Arial&quot; x=&quot;16.9&quot;&gt;使用.argmax()检验准确性&lt;/tspan&gt;&lt;tspan y=&quot;45.2&quot; style=&quot;font-family:微软雅黑,PingFang SC,Mircrosoft YaHei,Arial&quot; x=&quot;56.9&quot;&gt;并累加至acc&lt;/tspan&gt;&lt;/text&gt;&lt;/g&gt;&lt;g transform=&quot;translate(538.316000,2334.387200)&quot; id=&quot;shape44&quot;&gt;&lt;path stroke=&quot;#191919&quot; d=&quot;M.0,.0L.0,28.2&quot; fill=&quot;none&quot; stroke-width=&quot;1&quot;/&gt;&lt;path stroke-linecap=&quot;round&quot; stroke=&quot;#191919&quot; d=&quot;M3.0,28.2L.0,34.2L-3.0,28.2L3.0,28.2&quot; fill=&quot;#191919&quot; stroke-width=&quot;1&quot;/&gt;&lt;/g&gt;&lt;g transform=&quot;translate(538.316000,2429.193600)&quot; id=&quot;shape45&quot;&gt;&lt;path stroke=&quot;#191919&quot; d=&quot;M.0,.0L.0,48.8&quot; fill=&quot;none&quot; stroke-width=&quot;1&quot;/&gt;&lt;path stroke-linecap=&quot;round&quot; stroke=&quot;#191919&quot; d=&quot;M3.0,48.8L.0,54.8L-3.0,48.8L3.0,48.8&quot; fill=&quot;#191919&quot; stroke-width=&quot;1&quot;/&gt;&lt;/g&gt;&lt;g transform=&quot;translate(430.151000,2484.000000)&quot; id=&quot;shape46&quot;&gt;&lt;path stroke=&quot;#101843&quot; d=&quot;M216.3,60.0L216.3,.0L.0,.0L.0,60.0L216.3,60.0z&quot; fill-rule=&quot;nonzero&quot; fill=&quot;#ffffff&quot; stroke-width=&quot;1&quot;/&gt;&lt;text xml:space=&quot;preserve&quot; style=&quot;fill:#191919;font-family:微软雅黑,PingFang SC,Mircrosoft YaHei,Arial;font-size:10.00pt&quot;&gt;&lt;tspan y=&quot;33.2&quot; style=&quot;font-family:微软雅黑,PingFang SC,Mircrosoft YaHei,Arial&quot; x=&quot;14.2&quot;&gt;每check_step个epoch保存模型&lt;/tspan&gt;&lt;/text&gt;&lt;/g&gt;&lt;g transform=&quot;translate(538.316000,2544.000000)&quot; id=&quot;shape47&quot;&gt;&lt;path stroke=&quot;#191919&quot; d=&quot;M.0,.0L.0,25.0&quot; fill=&quot;none&quot; stroke-width=&quot;1&quot;/&gt;&lt;path stroke-linecap=&quot;round&quot; stroke=&quot;#191919&quot; d=&quot;M3.0,25.0L.0,31.0L-3.0,25.0L3.0,25.0&quot; fill=&quot;#191919&quot; stroke-width=&quot;1&quot;/&gt;&lt;/g&gt;&lt;g transform=&quot;translate(538.316000,938.000000)&quot; id=&quot;shape48&quot;&gt;&lt;path stroke=&quot;#191919&quot; d=&quot;M.0,.0L.0,60.6&quot; fill=&quot;none&quot; stroke-width=&quot;1&quot;/&gt;&lt;path stroke-linecap=&quot;round&quot; stroke=&quot;#191919&quot; d=&quot;M3.0,60.6L.0,66.6L-3.0,60.6L3.0,60.6&quot; fill=&quot;#191919&quot; stroke-width=&quot;1&quot;/&gt;&lt;/g&gt;&lt;g transform=&quot;translate(444.453000,1952.000000)&quot; id=&quot;group49&quot;&gt;&lt;path stroke=&quot;#101843&quot; transform=&quot;matrix(-1.000000,-0.000000,0.000000,-1.000000,187.726000,60.000000)&quot; d=&quot;M.0,60.0L187.7,60.0L187.7,15.0L172.7,.0L15.0,.0L.0,15.0L.0,60.0z&quot; fill-rule=&quot;nonzero&quot; fill=&quot;#ffffff&quot; stroke-width=&quot;1&quot; id=&quot;shape50&quot;/&gt;&lt;g transform=&quot;translate(0.000000,0.000000)&quot; id=&quot;shape51&quot;&gt;&lt;path fill-opacity=&quot;0.00&quot; stroke=&quot;#101843&quot; d=&quot;M187.7,60.0L187.7,.0L.0,.0L.0,60.0L187.7,60.0z&quot; fill-rule=&quot;nonzero&quot; fill=&quot;#ffffff&quot; stroke-width=&quot;1&quot; stroke-opacity=&quot;0.00&quot;/&gt;&lt;text xml:space=&quot;preserve&quot; style=&quot;fill:#191919;font-family:微软雅黑,PingFang SC,Mircrosoft YaHei,Arial;font-size:10.00pt&quot;&gt;&lt;tspan y=&quot;33.2&quot; style=&quot;font-family:微软雅黑,PingFang SC,Mircrosoft YaHei,Arial&quot; x=&quot;67.2&quot;&gt;结束训练&lt;/tspan&gt;&lt;/text&gt;&lt;/g&gt;&lt;/g&gt;&lt;g transform=&quot;translate(444.453000,2369.193600)&quot; id=&quot;group52&quot;&gt;&lt;path stroke=&quot;#101843&quot; transform=&quot;matrix(-1.000000,-0.000000,0.000000,-1.000000,187.726000,60.000000)&quot; d=&quot;M.0,60.0L187.7,60.0L187.7,15.0L172.7,.0L15.0,.0L.0,15.0L.0,60.0z&quot; fill-rule=&quot;nonzero&quot; fill=&quot;#ffffff&quot; stroke-width=&quot;1&quot; id=&quot;shape53&quot;/&gt;&lt;g id=&quot;shape54&quot;&gt;&lt;path fill-opacity=&quot;0.00&quot; stroke=&quot;#101843&quot; d=&quot;M187.7,60.0L187.7,.0L.0,.0L.0,60.0L187.7,60.0z&quot; fill-rule=&quot;nonzero&quot; fill=&quot;#ffffff&quot; stroke-width=&quot;1&quot; stroke-opacity=&quot;0.00&quot;/&gt;&lt;text xml:space=&quot;preserve&quot; style=&quot;fill:#191919;font-family:微软雅黑,PingFang SC,Mircrosoft YaHei,Arial;font-size:10.00pt&quot;&gt;&lt;tspan y=&quot;33.2&quot; style=&quot;font-family:微软雅黑,PingFang SC,Mircrosoft YaHei,Arial&quot; x=&quot;36.9&quot;&gt;结束测试，输出acc&lt;/tspan&gt;&lt;/text&gt;&lt;/g&gt;&lt;/g&gt;&lt;g transform=&quot;translate(430.151000,2575.000000)&quot; id=&quot;group55&quot;&gt;&lt;path stroke=&quot;#101843&quot; transform=&quot;matrix(-1.000000,0.000000,0.000000,-1.000000,216.330000,60.000000)&quot; d=&quot;M.0,60.0L216.3,60.0L216.3,15.0L201.3,.0L15.0,.0L.0,15.0L.0,60.0z&quot; fill-rule=&quot;nonzero&quot; fill=&quot;#ffffff&quot; stroke-width=&quot;1&quot; id=&quot;shape56&quot;/&gt;&lt;g transform=&quot;translate(0.000000,0.000000)&quot; id=&quot;shape57&quot;&gt;&lt;path fill-opacity=&quot;0.00&quot; stroke=&quot;#101843&quot; d=&quot;M216.3,60.0L216.3,.0L.0,.0L.0,60.0L216.3,60.0z&quot; fill-rule=&quot;nonzero&quot; fill=&quot;#ffffff&quot; stroke-width=&quot;1&quot; stroke-opacity=&quot;0.00&quot;/&gt;&lt;text xml:space=&quot;preserve&quot; style=&quot;fill:#191919;font-family:微软雅黑,PingFang SC,Mircrosoft YaHei,Arial;font-size:10.00pt&quot;&gt;&lt;tspan y=&quot;33.2&quot; style=&quot;font-family:微软雅黑,PingFang SC,Mircrosoft YaHei,Arial&quot; x=&quot;21.8&quot;&gt;结束一个epoch的训练、测试&lt;/tspan&gt;&lt;/text&gt;&lt;/g&gt;&lt;/g&gt;&lt;g transform=&quot;translate(654.315700,802.723000)&quot; id=&quot;shape58&quot;&gt;&lt;path stroke=&quot;#000000&quot; d=&quot;M.0,.0L14.1,.0C17.4,-0.5,20.7,.6,23.1,3.0C25.4,5.4,26.5,8.7,26.1,12.0L26.1,55.6C25.6,58.9,26.7,62.3,29.1,64.6C31.4,67.0,34.7,68.1,38.1,67.6C34.7,67.2,31.4,68.3,29.1,70.6C26.7,73.0,25.6,76.3,26.1,79.6L26.1,123.3C26.5,126.6,25.4,129.9,23.1,132.3C20.7,134.6,17.4,135.7,14.1,135.3L.0,135.3&quot; fill=&quot;none&quot; stroke-width=&quot;1&quot;/&gt;&lt;text xml:space=&quot;preserve&quot; style=&quot;fill:#191919;font-family:微软雅黑,PingFang SC,Mircrosoft YaHei,Arial;font-size:10.00pt&quot;&gt;&lt;tspan y=&quot;70.8&quot; style=&quot;font-family:微软雅黑,PingFang SC,Mircrosoft YaHei,Arial&quot; x=&quot;50.9&quot;&gt;获取、封装数据&lt;/tspan&gt;&lt;/text&gt;&lt;/g&gt;&lt;g transform=&quot;translate(538.316000,862.223000)&quot; id=&quot;shape59&quot;&gt;&lt;path stroke=&quot;#191919&quot; d=&quot;M.0,.0L.0,9.5&quot; fill=&quot;none&quot; stroke-width=&quot;1&quot;/&gt;&lt;path stroke-linecap=&quot;round&quot; stroke=&quot;#191919&quot; d=&quot;M3.0,9.5L.0,15.5L-3.0,9.5L3.0,9.5&quot; fill=&quot;#191919&quot; stroke-width=&quot;1&quot;/&gt;&lt;/g&gt;&lt;g transform=&quot;translate(654.315700,1005.613200)&quot; id=&quot;shape60&quot;&gt;&lt;path stroke=&quot;#000000&quot; d=&quot;M.0,.0L14.1,.0C17.4,-0.5,20.7,.6,23.1,3.0C25.4,5.4,26.5,8.7,26.1,12.0L26.1,102.2C25.6,105.5,26.7,108.8,29.1,111.2C31.4,113.6,34.7,114.7,38.1,114.2C34.7,113.7,31.4,114.8,29.1,117.2C26.7,119.6,25.6,122.9,26.1,126.2L26.1,216.4C26.5,219.7,25.4,223.0,23.1,225.4C20.7,227.7,17.4,228.9,14.1,228.4L.0,228.4&quot; fill=&quot;none&quot; stroke-width=&quot;1&quot;/&gt;&lt;text xml:space=&quot;preserve&quot; style=&quot;fill:#191919;font-family:微软雅黑,PingFang SC,Mircrosoft YaHei,Arial;font-size:10.00pt&quot;&gt;&lt;tspan y=&quot;117.4&quot; style=&quot;font-family:微软雅黑,PingFang SC,Mircrosoft YaHei,Arial&quot; x=&quot;50.7&quot;&gt;加载模型、优化器&lt;/tspan&gt;&lt;/text&gt;&lt;/g&gt;&lt;g transform=&quot;translate(654.315700,1311.279600)&quot; id=&quot;shape61&quot;&gt;&lt;path stroke=&quot;#000000&quot; d=&quot;M.0,.0L14.1,.0C17.4,-0.5,20.7,.6,23.1,3.0C25.4,5.4,26.5,8.7,26.1,12.0L26.1,338.4C25.6,341.7,26.7,345.0,29.1,347.4C31.4,349.7,34.7,350.8,38.1,350.4C34.7,349.9,31.4,351.0,29.1,353.4C26.7,355.7,25.6,359.1,26.1,362.4L26.1,688.7C26.5,692.0,25.4,695.4,23.1,697.7C20.7,700.1,17.4,701.2,14.1,700.7L.0,700.7&quot; fill=&quot;none&quot; stroke-width=&quot;1&quot;/&gt;&lt;text xml:space=&quot;preserve&quot; style=&quot;fill:#191919;font-family:微软雅黑,PingFang SC,Mircrosoft YaHei,Arial;font-size:10.00pt&quot;&gt;&lt;tspan y=&quot;353.5&quot; style=&quot;font-family:微软雅黑,PingFang SC,Mircrosoft YaHei,Arial&quot; x=&quot;51.7&quot;&gt;训练&lt;/tspan&gt;&lt;/text&gt;&lt;/g&gt;&lt;g transform=&quot;translate(654.315700,2067.682200)&quot; id=&quot;shape62&quot;&gt;&lt;path stroke=&quot;#000000&quot; d=&quot;M.0,.0L14.1,.0C17.4,-0.5,20.7,.6,23.1,3.0C25.4,5.4,26.5,8.7,26.1,12.0L26.1,168.8C25.6,172.1,26.7,175.4,29.1,177.8C31.4,180.1,34.7,181.2,38.1,180.8C34.7,180.3,31.4,181.4,29.1,183.8C26.7,186.1,25.6,189.5,26.1,192.8L26.1,349.5C26.5,352.8,25.4,356.2,23.1,358.5C20.7,360.9,17.4,362.0,14.1,361.5L.0,361.5&quot; fill=&quot;none&quot; stroke-width=&quot;1&quot;/&gt;&lt;text xml:space=&quot;preserve&quot; style=&quot;fill:#191919;font-family:微软雅黑,PingFang SC,Mircrosoft YaHei,Arial;font-size:10.00pt&quot;&gt;&lt;tspan y=&quot;183.9&quot; style=&quot;font-family:微软雅黑,PingFang SC,Mircrosoft YaHei,Arial&quot; x=&quot;51.7&quot;&gt;测试&lt;/tspan&gt;&lt;/text&gt;&lt;/g&gt;&lt;g transform=&quot;translate(0,0)&quot; opacity=&quot;0.4&quot;&gt;&lt;path stroke=&quot;none&quot; d=&quot;M191.4,196.9L197.7,190.5L199.3,192.1L193.0,198.4L191.4,196.9zM197.4,190.9L197.7,190.5L198.0,190.1L199.7,189.6C199.7,189.7,199.7,189.9,199.7,190.1C200.6,202.7,201.3,204.1,202.0,204.8C202.5,205.4,203.2,205.1,204.0,204.3L207.0,201.3C207.7,200.6,207.5,200.0,205.4,197.7C206.0,197.5,206.9,197.1,207.4,196.7C210.3,200.0,210.3,201.3,208.5,203.0L205.7,205.9C203.6,208.0,201.8,208.0,200.5,206.7C199.4,205.6,198.5,204.2,197.4,190.9zM188.2,197.7L190.3,196.6C191.8,199.9,192.9,203.9,193.0,207.1C192.4,206.8,191.0,206.3,190.3,206.2C190.3,203.7,189.5,200.4,188.2,197.7zM190.7,202.9L190.7,199.6L190.8,199.6L201.8,210.6L200.1,212.2L190.7,202.9zM200.4,186.5L212.5,174.4L225.3,187.1L223.6,188.8L212.4,177.6L203.6,186.4L214.8,197.6L213.2,199.3L200.4,186.5zM212.2,196.2L222.5,185.9L224.0,187.4L213.6,197.7L212.2,196.2zM212.1,190.1L211.9,188.5C213.3,187.5,215.2,186.5,216.5,186.0L216.8,187.8C215.6,188.2,213.6,189.2,212.1,190.1zM206.6,183.2L208.5,182.3C208.9,184.4,208.8,187.0,208.4,188.9C207.9,188.9,206.9,188.9,206.3,189.0C206.8,187.2,207.0,185.0,206.6,183.2zM211.5,180.6L211.8,180.3L211.9,180.1L213.4,179.7C214.3,183.5,212.6,188.3,210.3,192.0C209.8,191.7,208.8,191.4,208.2,191.4C210.5,188.0,212.2,183.6,211.7,180.8L211.5,180.6zM208.5,185.6C210.9,185.6,214.4,184.2,217.3,182.1C217.3,182.7,217.4,183.7,217.6,184.3C214.5,186.3,210.8,187.5,207.8,187.4L208.5,185.6zM207.8,184.3L212.0,180.1L213.2,181.4L208.2,186.4L207.8,184.3zM212.7,193.2L212.3,191.4C214.5,189.7,217.4,187.8,219.3,186.8L219.8,188.8C217.9,189.6,214.9,191.5,212.7,193.2zM214.5,172.4L226.7,160.2L239.4,173.0L237.7,174.7L226.5,163.4L217.7,172.3L228.9,183.5L227.3,185.1L214.5,172.4zM226.3,182.1L236.6,171.7L238.1,173.2L227.8,183.6L226.3,182.1zM226.3,176.0L226.0,174.4C227.4,173.4,229.4,172.4,230.6,171.9L231.0,173.6C229.7,174.1,227.7,175.1,226.3,176.0zM220.8,169.1L222.6,168.2C223.0,170.3,223.0,172.8,222.6,174.8C222.1,174.7,221.0,174.8,220.4,174.9C221.0,173.1,221.1,170.8,220.8,169.1zM225.6,166.5L225.9,166.2L226.1,165.9L227.6,165.5C228.4,169.3,226.7,174.1,224.5,177.8C223.9,177.6,222.9,177.3,222.3,177.2C224.6,173.8,226.4,169.5,225.8,166.7L225.6,166.5zM222.6,171.5C225.1,171.5,228.5,170.0,231.4,168.0C231.4,168.6,231.6,169.6,231.7,170.2C228.7,172.1,225.0,173.4,221.9,173.3L222.6,171.5zM221.9,170.2L226.1,166.0L227.3,167.3L222.3,172.3L221.9,170.2zM226.8,179.1L226.5,177.2C228.6,175.5,231.5,173.7,233.5,172.7L233.9,174.6C232.0,175.5,229.0,177.4,226.8,179.1zM238.6,157.8L240.5,155.9L246.5,161.9C247.4,162.9,247.7,163.6,247.3,164.5C246.9,165.4,246.0,166.4,244.8,167.6C244.2,167.2,243.1,166.7,242.4,166.4C243.2,165.7,244.2,164.7,244.5,164.4C244.8,164.1,244.8,164.0,244.6,163.7L238.6,157.8zM237.0,162.9L239.2,161.6C240.3,163.9,240.9,166.7,241.0,168.8C240.3,168.8,239.1,169.1,238.4,169.3C238.5,167.4,237.9,164.9,237.0,162.9zM244.3,156.8L245.2,154.6C247.5,155.0,250.2,155.7,251.8,156.5L250.8,159.0C249.3,158.2,246.6,157.3,244.3,156.8zM230.1,157.5L240.1,147.5L241.8,149.2L231.8,159.2L230.1,157.5zM232.2,162.2L244.9,149.6L246.6,151.3L233.9,163.9L232.2,162.2&quot; fill=&quot;#999999&quot;/&gt;&lt;g transform=&quot;matrix(0.707107,-0.707107,0.707107,0.707107,134.500000,231.500000)&quot;&gt;&lt;path stroke=&quot;#999999&quot; d=&quot;M.0,11.0C.0,4.9,4.9,.0,11.0,.0L37.0,.0C43.1,.0,48.0,4.9,48.0,11.0L48.0,37.0C48.0,43.1,43.1,48.0,37.0,48.0L11.0,48.0C4.9,48.0,.0,43.1,.0,37.0L.0,11.0&quot; fill=&quot;none&quot;/&gt;&lt;path stroke=&quot;none&quot; d=&quot;M24.0,26.4L14.3,26.4C12.9,26.4,11.8,25.3,11.8,24.0C11.8,22.7,12.9,21.6,14.3,21.6L24.0,21.6C25.3,21.6,26.4,22.7,26.4,24.0C26.4,25.3,25.3,26.4,24.0,26.4&quot; fill=&quot;#c2c2c2&quot;/&gt;&lt;path stroke=&quot;none&quot; d=&quot;M24.0,14.3L14.3,14.3C12.9,14.3,11.8,13.2,11.8,11.8C11.8,10.5,12.9,9.4,14.3,9.4L24.0,9.4C32.1,9.4,38.6,15.9,38.6,24.0C38.6,32.1,32.1,38.6,24.0,38.6L14.3,38.6C12.9,38.6,11.8,37.5,11.8,36.2C11.8,34.8,12.9,33.8,14.3,33.8L24.0,33.8C29.4,33.8,33.8,29.4,33.8,24.0C33.8,18.6,29.4,14.3,24.0,14.3&quot; fill=&quot;#999999&quot;/&gt;&lt;/g&gt;&lt;/g&gt;&lt;g transform=&quot;translate(0,400)&quot; opacity=&quot;0.4&quot;&gt;&lt;path stroke=&quot;none&quot; d=&quot;M191.4,196.9L197.7,190.5L199.3,192.1L193.0,198.4L191.4,196.9zM197.4,190.9L197.7,190.5L198.0,190.1L199.7,189.6C199.7,189.7,199.7,189.9,199.7,190.1C200.6,202.7,201.3,204.1,202.0,204.8C202.5,205.4,203.2,205.1,204.0,204.3L207.0,201.3C207.7,200.6,207.5,200.0,205.4,197.7C206.0,197.5,206.9,197.1,207.4,196.7C210.3,200.0,210.3,201.3,208.5,203.0L205.7,205.9C203.6,208.0,201.8,208.0,200.5,206.7C199.4,205.6,198.5,204.2,197.4,190.9zM188.2,197.7L190.3,196.6C191.8,199.9,192.9,203.9,193.0,207.1C192.4,206.8,191.0,206.3,190.3,206.2C190.3,203.7,189.5,200.4,188.2,197.7zM190.7,202.9L190.7,199.6L190.8,199.6L201.8,210.6L200.1,212.2L190.7,202.9zM200.4,186.5L212.5,174.4L225.3,187.1L223.6,188.8L212.4,177.6L203.6,186.4L214.8,197.6L213.2,199.3L200.4,186.5zM212.2,196.2L222.5,185.9L224.0,187.4L213.6,197.7L212.2,196.2zM212.1,190.1L211.9,188.5C213.3,187.5,215.2,186.5,216.5,186.0L216.8,187.8C215.6,188.2,213.6,189.2,212.1,190.1zM206.6,183.2L208.5,182.3C208.9,184.4,208.8,187.0,208.4,188.9C207.9,188.9,206.9,188.9,206.3,189.0C206.8,187.2,207.0,185.0,206.6,183.2zM211.5,180.6L211.8,180.3L211.9,180.1L213.4,179.7C214.3,183.5,212.6,188.3,210.3,192.0C209.8,191.7,208.8,191.4,208.2,191.4C210.5,188.0,212.2,183.6,211.7,180.8L211.5,180.6zM208.5,185.6C210.9,185.6,214.4,184.2,217.3,182.1C217.3,182.7,217.4,183.7,217.6,184.3C214.5,186.3,210.8,187.5,207.8,187.4L208.5,185.6zM207.8,184.3L212.0,180.1L213.2,181.4L208.2,186.4L207.8,184.3zM212.7,193.2L212.3,191.4C214.5,189.7,217.4,187.8,219.3,186.8L219.8,188.8C217.9,189.6,214.9,191.5,212.7,193.2zM214.5,172.4L226.7,160.2L239.4,173.0L237.7,174.7L226.5,163.4L217.7,172.3L228.9,183.5L227.3,185.1L214.5,172.4zM226.3,182.1L236.6,171.7L238.1,173.2L227.8,183.6L226.3,182.1zM226.3,176.0L226.0,174.4C227.4,173.4,229.4,172.4,230.6,171.9L231.0,173.6C229.7,174.1,227.7,175.1,226.3,176.0zM220.8,169.1L222.6,168.2C223.0,170.3,223.0,172.8,222.6,174.8C222.1,174.7,221.0,174.8,220.4,174.9C221.0,173.1,221.1,170.8,220.8,169.1zM225.6,166.5L225.9,166.2L226.1,165.9L227.6,165.5C228.4,169.3,226.7,174.1,224.5,177.8C223.9,177.6,222.9,177.3,222.3,177.2C224.6,173.8,226.4,169.5,225.8,166.7L225.6,166.5zM222.6,171.5C225.1,171.5,228.5,170.0,231.4,168.0C231.4,168.6,231.6,169.6,231.7,170.2C228.7,172.1,225.0,173.4,221.9,173.3L222.6,171.5zM221.9,170.2L226.1,166.0L227.3,167.3L222.3,172.3L221.9,170.2zM226.8,179.1L226.5,177.2C228.6,175.5,231.5,173.7,233.5,172.7L233.9,174.6C232.0,175.5,229.0,177.4,226.8,179.1zM238.6,157.8L240.5,155.9L246.5,161.9C247.4,162.9,247.7,163.6,247.3,164.5C246.9,165.4,246.0,166.4,244.8,167.6C244.2,167.2,243.1,166.7,242.4,166.4C243.2,165.7,244.2,164.7,244.5,164.4C244.8,164.1,244.8,164.0,244.6,163.7L238.6,157.8zM237.0,162.9L239.2,161.6C240.3,163.9,240.9,166.7,241.0,168.8C240.3,168.8,239.1,169.1,238.4,169.3C238.5,167.4,237.9,164.9,237.0,162.9zM244.3,156.8L245.2,154.6C247.5,155.0,250.2,155.7,251.8,156.5L250.8,159.0C249.3,158.2,246.6,157.3,244.3,156.8zM230.1,157.5L240.1,147.5L241.8,149.2L231.8,159.2L230.1,157.5zM232.2,162.2L244.9,149.6L246.6,151.3L233.9,163.9L232.2,162.2&quot; fill=&quot;#999999&quot;/&gt;&lt;g transform=&quot;matrix(0.707107,-0.707107,0.707107,0.707107,134.500000,231.500000)&quot;&gt;&lt;path stroke=&quot;#999999&quot; d=&quot;M.0,11.0C.0,4.9,4.9,.0,11.0,.0L37.0,.0C43.1,.0,48.0,4.9,48.0,11.0L48.0,37.0C48.0,43.1,43.1,48.0,37.0,48.0L11.0,48.0C4.9,48.0,.0,43.1,.0,37.0L.0,11.0&quot; fill=&quot;none&quot;/&gt;&lt;path stroke=&quot;none&quot; d=&quot;M24.0,26.4L14.3,26.4C12.9,26.4,11.8,25.3,11.8,24.0C11.8,22.7,12.9,21.6,14.3,21.6L24.0,21.6C25.3,21.6,26.4,22.7,26.4,24.0C26.4,25.3,25.3,26.4,24.0,26.4&quot; fill=&quot;#c2c2c2&quot;/&gt;&lt;path stroke=&quot;none&quot; d=&quot;M24.0,14.3L14.3,14.3C12.9,14.3,11.8,13.2,11.8,11.8C11.8,10.5,12.9,9.4,14.3,9.4L24.0,9.4C32.1,9.4,38.6,15.9,38.6,24.0C38.6,32.1,32.1,38.6,24.0,38.6L14.3,38.6C12.9,38.6,11.8,37.5,11.8,36.2C11.8,34.8,12.9,33.8,14.3,33.8L24.0,33.8C29.4,33.8,33.8,29.4,33.8,24.0C33.8,18.6,29.4,14.3,24.0,14.3&quot; fill=&quot;#999999&quot;/&gt;&lt;/g&gt;&lt;/g&gt;&lt;g transform=&quot;translate(0,800)&quot; opacity=&quot;0.4&quot;&gt;&lt;path stroke=&quot;none&quot; d=&quot;M191.4,196.9L197.7,190.5L199.3,192.1L193.0,198.4L191.4,196.9zM197.4,190.9L197.7,190.5L198.0,190.1L199.7,189.6C199.7,189.7,199.7,189.9,199.7,190.1C200.6,202.7,201.3,204.1,202.0,204.8C202.5,205.4,203.2,205.1,204.0,204.3L207.0,201.3C207.7,200.6,207.5,200.0,205.4,197.7C206.0,197.5,206.9,197.1,207.4,196.7C210.3,200.0,210.3,201.3,208.5,203.0L205.7,205.9C203.6,208.0,201.8,208.0,200.5,206.7C199.4,205.6,198.5,204.2,197.4,190.9zM188.2,197.7L190.3,196.6C191.8,199.9,192.9,203.9,193.0,207.1C192.4,206.8,191.0,206.3,190.3,206.2C190.3,203.7,189.5,200.4,188.2,197.7zM190.7,202.9L190.7,199.6L190.8,199.6L201.8,210.6L200.1,212.2L190.7,202.9zM200.4,186.5L212.5,174.4L225.3,187.1L223.6,188.8L212.4,177.6L203.6,186.4L214.8,197.6L213.2,199.3L200.4,186.5zM212.2,196.2L222.5,185.9L224.0,187.4L213.6,197.7L212.2,196.2zM212.1,190.1L211.9,188.5C213.3,187.5,215.2,186.5,216.5,186.0L216.8,187.8C215.6,188.2,213.6,189.2,212.1,190.1zM206.6,183.2L208.5,182.3C208.9,184.4,208.8,187.0,208.4,188.9C207.9,188.9,206.9,188.9,206.3,189.0C206.8,187.2,207.0,185.0,206.6,183.2zM211.5,180.6L211.8,180.3L211.9,180.1L213.4,179.7C214.3,183.5,212.6,188.3,210.3,192.0C209.8,191.7,208.8,191.4,208.2,191.4C210.5,188.0,212.2,183.6,211.7,180.8L211.5,180.6zM208.5,185.6C210.9,185.6,214.4,184.2,217.3,182.1C217.3,182.7,217.4,183.7,217.6,184.3C214.5,186.3,210.8,187.5,207.8,187.4L208.5,185.6zM207.8,184.3L212.0,180.1L213.2,181.4L208.2,186.4L207.8,184.3zM212.7,193.2L212.3,191.4C214.5,189.7,217.4,187.8,219.3,186.8L219.8,188.8C217.9,189.6,214.9,191.5,212.7,193.2zM214.5,172.4L226.7,160.2L239.4,173.0L237.7,174.7L226.5,163.4L217.7,172.3L228.9,183.5L227.3,185.1L214.5,172.4zM226.3,182.1L236.6,171.7L238.1,173.2L227.8,183.6L226.3,182.1zM226.3,176.0L226.0,174.4C227.4,173.4,229.4,172.4,230.6,171.9L231.0,173.6C229.7,174.1,227.7,175.1,226.3,176.0zM220.8,169.1L222.6,168.2C223.0,170.3,223.0,172.8,222.6,174.8C222.1,174.7,221.0,174.8,220.4,174.9C221.0,173.1,221.1,170.8,220.8,169.1zM225.6,166.5L225.9,166.2L226.1,165.9L227.6,165.5C228.4,169.3,226.7,174.1,224.5,177.8C223.9,177.6,222.9,177.3,222.3,177.2C224.6,173.8,226.4,169.5,225.8,166.7L225.6,166.5zM222.6,171.5C225.1,171.5,228.5,170.0,231.4,168.0C231.4,168.6,231.6,169.6,231.7,170.2C228.7,172.1,225.0,173.4,221.9,173.3L222.6,171.5zM221.9,170.2L226.1,166.0L227.3,167.3L222.3,172.3L221.9,170.2zM226.8,179.1L226.5,177.2C228.6,175.5,231.5,173.7,233.5,172.7L233.9,174.6C232.0,175.5,229.0,177.4,226.8,179.1zM238.6,157.8L240.5,155.9L246.5,161.9C247.4,162.9,247.7,163.6,247.3,164.5C246.9,165.4,246.0,166.4,244.8,167.6C244.2,167.2,243.1,166.7,242.4,166.4C243.2,165.7,244.2,164.7,244.5,164.4C244.8,164.1,244.8,164.0,244.6,163.7L238.6,157.8zM237.0,162.9L239.2,161.6C240.3,163.9,240.9,166.7,241.0,168.8C240.3,168.8,239.1,169.1,238.4,169.3C238.5,167.4,237.9,164.9,237.0,162.9zM244.3,156.8L245.2,154.6C247.5,155.0,250.2,155.7,251.8,156.5L250.8,159.0C249.3,158.2,246.6,157.3,244.3,156.8zM230.1,157.5L240.1,147.5L241.8,149.2L231.8,159.2L230.1,157.5zM232.2,162.2L244.9,149.6L246.6,151.3L233.9,163.9L232.2,162.2&quot; fill=&quot;#999999&quot;/&gt;&lt;g transform=&quot;matrix(0.707107,-0.707107,0.707107,0.707107,134.500000,231.500000)&quot;&gt;&lt;path stroke=&quot;#999999&quot; d=&quot;M.0,11.0C.0,4.9,4.9,.0,11.0,.0L37.0,.0C43.1,.0,48.0,4.9,48.0,11.0L48.0,37.0C48.0,43.1,43.1,48.0,37.0,48.0L11.0,48.0C4.9,48.0,.0,43.1,.0,37.0L.0,11.0&quot; fill=&quot;none&quot;/&gt;&lt;path stroke=&quot;none&quot; d=&quot;M24.0,26.4L14.3,26.4C12.9,26.4,11.8,25.3,11.8,24.0C11.8,22.7,12.9,21.6,14.3,21.6L24.0,21.6C25.3,21.6,26.4,22.7,26.4,24.0C26.4,25.3,25.3,26.4,24.0,26.4&quot; fill=&quot;#c2c2c2&quot;/&gt;&lt;path stroke=&quot;none&quot; d=&quot;M24.0,14.3L14.3,14.3C12.9,14.3,11.8,13.2,11.8,11.8C11.8,10.5,12.9,9.4,14.3,9.4L24.0,9.4C32.1,9.4,38.6,15.9,38.6,24.0C38.6,32.1,32.1,38.6,24.0,38.6L14.3,38.6C12.9,38.6,11.8,37.5,11.8,36.2C11.8,34.8,12.9,33.8,14.3,33.8L24.0,33.8C29.4,33.8,33.8,29.4,33.8,24.0C33.8,18.6,29.4,14.3,24.0,14.3&quot; fill=&quot;#999999&quot;/&gt;&lt;/g&gt;&lt;/g&gt;&lt;g transform=&quot;translate(0,1200)&quot; opacity=&quot;0.4&quot;&gt;&lt;path stroke=&quot;none&quot; d=&quot;M191.4,196.9L197.7,190.5L199.3,192.1L193.0,198.4L191.4,196.9zM197.4,190.9L197.7,190.5L198.0,190.1L199.7,189.6C199.7,189.7,199.7,189.9,199.7,190.1C200.6,202.7,201.3,204.1,202.0,204.8C202.5,205.4,203.2,205.1,204.0,204.3L207.0,201.3C207.7,200.6,207.5,200.0,205.4,197.7C206.0,197.5,206.9,197.1,207.4,196.7C210.3,200.0,210.3,201.3,208.5,203.0L205.7,205.9C203.6,208.0,201.8,208.0,200.5,206.7C199.4,205.6,198.5,204.2,197.4,190.9zM188.2,197.7L190.3,196.6C191.8,199.9,192.9,203.9,193.0,207.1C192.4,206.8,191.0,206.3,190.3,206.2C190.3,203.7,189.5,200.4,188.2,197.7zM190.7,202.9L190.7,199.6L190.8,199.6L201.8,210.6L200.1,212.2L190.7,202.9zM200.4,186.5L212.5,174.4L225.3,187.1L223.6,188.8L212.4,177.6L203.6,186.4L214.8,197.6L213.2,199.3L200.4,186.5zM212.2,196.2L222.5,185.9L224.0,187.4L213.6,197.7L212.2,196.2zM212.1,190.1L211.9,188.5C213.3,187.5,215.2,186.5,216.5,186.0L216.8,187.8C215.6,188.2,213.6,189.2,212.1,190.1zM206.6,183.2L208.5,182.3C208.9,184.4,208.8,187.0,208.4,188.9C207.9,188.9,206.9,188.9,206.3,189.0C206.8,187.2,207.0,185.0,206.6,183.2zM211.5,180.6L211.8,180.3L211.9,180.1L213.4,179.7C214.3,183.5,212.6,188.3,210.3,192.0C209.8,191.7,208.8,191.4,208.2,191.4C210.5,188.0,212.2,183.6,211.7,180.8L211.5,180.6zM208.5,185.6C210.9,185.6,214.4,184.2,217.3,182.1C217.3,182.7,217.4,183.7,217.6,184.3C214.5,186.3,210.8,187.5,207.8,187.4L208.5,185.6zM207.8,184.3L212.0,180.1L213.2,181.4L208.2,186.4L207.8,184.3zM212.7,193.2L212.3,191.4C214.5,189.7,217.4,187.8,219.3,186.8L219.8,188.8C217.9,189.6,214.9,191.5,212.7,193.2zM214.5,172.4L226.7,160.2L239.4,173.0L237.7,174.7L226.5,163.4L217.7,172.3L228.9,183.5L227.3,185.1L214.5,172.4zM226.3,182.1L236.6,171.7L238.1,173.2L227.8,183.6L226.3,182.1zM226.3,176.0L226.0,174.4C227.4,173.4,229.4,172.4,230.6,171.9L231.0,173.6C229.7,174.1,227.7,175.1,226.3,176.0zM220.8,169.1L222.6,168.2C223.0,170.3,223.0,172.8,222.6,174.8C222.1,174.7,221.0,174.8,220.4,174.9C221.0,173.1,221.1,170.8,220.8,169.1zM225.6,166.5L225.9,166.2L226.1,165.9L227.6,165.5C228.4,169.3,226.7,174.1,224.5,177.8C223.9,177.6,222.9,177.3,222.3,177.2C224.6,173.8,226.4,169.5,225.8,166.7L225.6,166.5zM222.6,171.5C225.1,171.5,228.5,170.0,231.4,168.0C231.4,168.6,231.6,169.6,231.7,170.2C228.7,172.1,225.0,173.4,221.9,173.3L222.6,171.5zM221.9,170.2L226.1,166.0L227.3,167.3L222.3,172.3L221.9,170.2zM226.8,179.1L226.5,177.2C228.6,175.5,231.5,173.7,233.5,172.7L233.9,174.6C232.0,175.5,229.0,177.4,226.8,179.1zM238.6,157.8L240.5,155.9L246.5,161.9C247.4,162.9,247.7,163.6,247.3,164.5C246.9,165.4,246.0,166.4,244.8,167.6C244.2,167.2,243.1,166.7,242.4,166.4C243.2,165.7,244.2,164.7,244.5,164.4C244.8,164.1,244.8,164.0,244.6,163.7L238.6,157.8zM237.0,162.9L239.2,161.6C240.3,163.9,240.9,166.7,241.0,168.8C240.3,168.8,239.1,169.1,238.4,169.3C238.5,167.4,237.9,164.9,237.0,162.9zM244.3,156.8L245.2,154.6C247.5,155.0,250.2,155.7,251.8,156.5L250.8,159.0C249.3,158.2,246.6,157.3,244.3,156.8zM230.1,157.5L240.1,147.5L241.8,149.2L231.8,159.2L230.1,157.5zM232.2,162.2L244.9,149.6L246.6,151.3L233.9,163.9L232.2,162.2&quot; fill=&quot;#999999&quot;/&gt;&lt;g transform=&quot;matrix(0.707107,-0.707107,0.707107,0.707107,134.500000,231.500000)&quot;&gt;&lt;path stroke=&quot;#999999&quot; d=&quot;M.0,11.0C.0,4.9,4.9,.0,11.0,.0L37.0,.0C43.1,.0,48.0,4.9,48.0,11.0L48.0,37.0C48.0,43.1,43.1,48.0,37.0,48.0L11.0,48.0C4.9,48.0,.0,43.1,.0,37.0L.0,11.0&quot; fill=&quot;none&quot;/&gt;&lt;path stroke=&quot;none&quot; d=&quot;M24.0,26.4L14.3,26.4C12.9,26.4,11.8,25.3,11.8,24.0C11.8,22.7,12.9,21.6,14.3,21.6L24.0,21.6C25.3,21.6,26.4,22.7,26.4,24.0C26.4,25.3,25.3,26.4,24.0,26.4&quot; fill=&quot;#c2c2c2&quot;/&gt;&lt;path stroke=&quot;none&quot; d=&quot;M24.0,14.3L14.3,14.3C12.9,14.3,11.8,13.2,11.8,11.8C11.8,10.5,12.9,9.4,14.3,9.4L24.0,9.4C32.1,9.4,38.6,15.9,38.6,24.0C38.6,32.1,32.1,38.6,24.0,38.6L14.3,38.6C12.9,38.6,11.8,37.5,11.8,36.2C11.8,34.8,12.9,33.8,14.3,33.8L24.0,33.8C29.4,33.8,33.8,29.4,33.8,24.0C33.8,18.6,29.4,14.3,24.0,14.3&quot; fill=&quot;#999999&quot;/&gt;&lt;/g&gt;&lt;/g&gt;&lt;g transform=&quot;translate(0,1600)&quot; opacity=&quot;0.4&quot;&gt;&lt;path stroke=&quot;none&quot; d=&quot;M191.4,196.9L197.7,190.5L199.3,192.1L193.0,198.4L191.4,196.9zM197.4,190.9L197.7,190.5L198.0,190.1L199.7,189.6C199.7,189.7,199.7,189.9,199.7,190.1C200.6,202.7,201.3,204.1,202.0,204.8C202.5,205.4,203.2,205.1,204.0,204.3L207.0,201.3C207.7,200.6,207.5,200.0,205.4,197.7C206.0,197.5,206.9,197.1,207.4,196.7C210.3,200.0,210.3,201.3,208.5,203.0L205.7,205.9C203.6,208.0,201.8,208.0,200.5,206.7C199.4,205.6,198.5,204.2,197.4,190.9zM188.2,197.7L190.3,196.6C191.8,199.9,192.9,203.9,193.0,207.1C192.4,206.8,191.0,206.3,190.3,206.2C190.3,203.7,189.5,200.4,188.2,197.7zM190.7,202.9L190.7,199.6L190.8,199.6L201.8,210.6L200.1,212.2L190.7,202.9zM200.4,186.5L212.5,174.4L225.3,187.1L223.6,188.8L212.4,177.6L203.6,186.4L214.8,197.6L213.2,199.3L200.4,186.5zM212.2,196.2L222.5,185.9L224.0,187.4L213.6,197.7L212.2,196.2zM212.1,190.1L211.9,188.5C213.3,187.5,215.2,186.5,216.5,186.0L216.8,187.8C215.6,188.2,213.6,189.2,212.1,190.1zM206.6,183.2L208.5,182.3C208.9,184.4,208.8,187.0,208.4,188.9C207.9,188.9,206.9,188.9,206.3,189.0C206.8,187.2,207.0,185.0,206.6,183.2zM211.5,180.6L211.8,180.3L211.9,180.1L213.4,179.7C214.3,183.5,212.6,188.3,210.3,192.0C209.8,191.7,208.8,191.4,208.2,191.4C210.5,188.0,212.2,183.6,211.7,180.8L211.5,180.6zM208.5,185.6C210.9,185.6,214.4,184.2,217.3,182.1C217.3,182.7,217.4,183.7,217.6,184.3C214.5,186.3,210.8,187.5,207.8,187.4L208.5,185.6zM207.8,184.3L212.0,180.1L213.2,181.4L208.2,186.4L207.8,184.3zM212.7,193.2L212.3,191.4C214.5,189.7,217.4,187.8,219.3,186.8L219.8,188.8C217.9,189.6,214.9,191.5,212.7,193.2zM214.5,172.4L226.7,160.2L239.4,173.0L237.7,174.7L226.5,163.4L217.7,172.3L228.9,183.5L227.3,185.1L214.5,172.4zM226.3,182.1L236.6,171.7L238.1,173.2L227.8,183.6L226.3,182.1zM226.3,176.0L226.0,174.4C227.4,173.4,229.4,172.4,230.6,171.9L231.0,173.6C229.7,174.1,227.7,175.1,226.3,176.0zM220.8,169.1L222.6,168.2C223.0,170.3,223.0,172.8,222.6,174.8C222.1,174.7,221.0,174.8,220.4,174.9C221.0,173.1,221.1,170.8,220.8,169.1zM225.6,166.5L225.9,166.2L226.1,165.9L227.6,165.5C228.4,169.3,226.7,174.1,224.5,177.8C223.9,177.6,222.9,177.3,222.3,177.2C224.6,173.8,226.4,169.5,225.8,166.7L225.6,166.5zM222.6,171.5C225.1,171.5,228.5,170.0,231.4,168.0C231.4,168.6,231.6,169.6,231.7,170.2C228.7,172.1,225.0,173.4,221.9,173.3L222.6,171.5zM221.9,170.2L226.1,166.0L227.3,167.3L222.3,172.3L221.9,170.2zM226.8,179.1L226.5,177.2C228.6,175.5,231.5,173.7,233.5,172.7L233.9,174.6C232.0,175.5,229.0,177.4,226.8,179.1zM238.6,157.8L240.5,155.9L246.5,161.9C247.4,162.9,247.7,163.6,247.3,164.5C246.9,165.4,246.0,166.4,244.8,167.6C244.2,167.2,243.1,166.7,242.4,166.4C243.2,165.7,244.2,164.7,244.5,164.4C244.8,164.1,244.8,164.0,244.6,163.7L238.6,157.8zM237.0,162.9L239.2,161.6C240.3,163.9,240.9,166.7,241.0,168.8C240.3,168.8,239.1,169.1,238.4,169.3C238.5,167.4,237.9,164.9,237.0,162.9zM244.3,156.8L245.2,154.6C247.5,155.0,250.2,155.7,251.8,156.5L250.8,159.0C249.3,158.2,246.6,157.3,244.3,156.8zM230.1,157.5L240.1,147.5L241.8,149.2L231.8,159.2L230.1,157.5zM232.2,162.2L244.9,149.6L246.6,151.3L233.9,163.9L232.2,162.2&quot; fill=&quot;#999999&quot;/&gt;&lt;g transform=&quot;matrix(0.707107,-0.707107,0.707107,0.707107,134.500000,231.500000)&quot;&gt;&lt;path stroke=&quot;#999999&quot; d=&quot;M.0,11.0C.0,4.9,4.9,.0,11.0,.0L37.0,.0C43.1,.0,48.0,4.9,48.0,11.0L48.0,37.0C48.0,43.1,43.1,48.0,37.0,48.0L11.0,48.0C4.9,48.0,.0,43.1,.0,37.0L.0,11.0&quot; fill=&quot;none&quot;/&gt;&lt;path stroke=&quot;none&quot; d=&quot;M24.0,26.4L14.3,26.4C12.9,26.4,11.8,25.3,11.8,24.0C11.8,22.7,12.9,21.6,14.3,21.6L24.0,21.6C25.3,21.6,26.4,22.7,26.4,24.0C26.4,25.3,25.3,26.4,24.0,26.4&quot; fill=&quot;#c2c2c2&quot;/&gt;&lt;path stroke=&quot;none&quot; d=&quot;M24.0,14.3L14.3,14.3C12.9,14.3,11.8,13.2,11.8,11.8C11.8,10.5,12.9,9.4,14.3,9.4L24.0,9.4C32.1,9.4,38.6,15.9,38.6,24.0C38.6,32.1,32.1,38.6,24.0,38.6L14.3,38.6C12.9,38.6,11.8,37.5,11.8,36.2C11.8,34.8,12.9,33.8,14.3,33.8L24.0,33.8C29.4,33.8,33.8,29.4,33.8,24.0C33.8,18.6,29.4,14.3,24.0,14.3&quot; fill=&quot;#999999&quot;/&gt;&lt;/g&gt;&lt;/g&gt;&lt;g transform=&quot;translate(0,2000)&quot; opacity=&quot;0.4&quot;&gt;&lt;path stroke=&quot;none&quot; d=&quot;M191.4,196.9L197.7,190.5L199.3,192.1L193.0,198.4L191.4,196.9zM197.4,190.9L197.7,190.5L198.0,190.1L199.7,189.6C199.7,189.7,199.7,189.9,199.7,190.1C200.6,202.7,201.3,204.1,202.0,204.8C202.5,205.4,203.2,205.1,204.0,204.3L207.0,201.3C207.7,200.6,207.5,200.0,205.4,197.7C206.0,197.5,206.9,197.1,207.4,196.7C210.3,200.0,210.3,201.3,208.5,203.0L205.7,205.9C203.6,208.0,201.8,208.0,200.5,206.7C199.4,205.6,198.5,204.2,197.4,190.9zM188.2,197.7L190.3,196.6C191.8,199.9,192.9,203.9,193.0,207.1C192.4,206.8,191.0,206.3,190.3,206.2C190.3,203.7,189.5,200.4,188.2,197.7zM190.7,202.9L190.7,199.6L190.8,199.6L201.8,210.6L200.1,212.2L190.7,202.9zM200.4,186.5L212.5,174.4L225.3,187.1L223.6,188.8L212.4,177.6L203.6,186.4L214.8,197.6L213.2,199.3L200.4,186.5zM212.2,196.2L222.5,185.9L224.0,187.4L213.6,197.7L212.2,196.2zM212.1,190.1L211.9,188.5C213.3,187.5,215.2,186.5,216.5,186.0L216.8,187.8C215.6,188.2,213.6,189.2,212.1,190.1zM206.6,183.2L208.5,182.3C208.9,184.4,208.8,187.0,208.4,188.9C207.9,188.9,206.9,188.9,206.3,189.0C206.8,187.2,207.0,185.0,206.6,183.2zM211.5,180.6L211.8,180.3L211.9,180.1L213.4,179.7C214.3,183.5,212.6,188.3,210.3,192.0C209.8,191.7,208.8,191.4,208.2,191.4C210.5,188.0,212.2,183.6,211.7,180.8L211.5,180.6zM208.5,185.6C210.9,185.6,214.4,184.2,217.3,182.1C217.3,182.7,217.4,183.7,217.6,184.3C214.5,186.3,210.8,187.5,207.8,187.4L208.5,185.6zM207.8,184.3L212.0,180.1L213.2,181.4L208.2,186.4L207.8,184.3zM212.7,193.2L212.3,191.4C214.5,189.7,217.4,187.8,219.3,186.8L219.8,188.8C217.9,189.6,214.9,191.5,212.7,193.2zM214.5,172.4L226.7,160.2L239.4,173.0L237.7,174.7L226.5,163.4L217.7,172.3L228.9,183.5L227.3,185.1L214.5,172.4zM226.3,182.1L236.6,171.7L238.1,173.2L227.8,183.6L226.3,182.1zM226.3,176.0L226.0,174.4C227.4,173.4,229.4,172.4,230.6,171.9L231.0,173.6C229.7,174.1,227.7,175.1,226.3,176.0zM220.8,169.1L222.6,168.2C223.0,170.3,223.0,172.8,222.6,174.8C222.1,174.7,221.0,174.8,220.4,174.9C221.0,173.1,221.1,170.8,220.8,169.1zM225.6,166.5L225.9,166.2L226.1,165.9L227.6,165.5C228.4,169.3,226.7,174.1,224.5,177.8C223.9,177.6,222.9,177.3,222.3,177.2C224.6,173.8,226.4,169.5,225.8,166.7L225.6,166.5zM222.6,171.5C225.1,171.5,228.5,170.0,231.4,168.0C231.4,168.6,231.6,169.6,231.7,170.2C228.7,172.1,225.0,173.4,221.9,173.3L222.6,171.5zM221.9,170.2L226.1,166.0L227.3,167.3L222.3,172.3L221.9,170.2zM226.8,179.1L226.5,177.2C228.6,175.5,231.5,173.7,233.5,172.7L233.9,174.6C232.0,175.5,229.0,177.4,226.8,179.1zM238.6,157.8L240.5,155.9L246.5,161.9C247.4,162.9,247.7,163.6,247.3,164.5C246.9,165.4,246.0,166.4,244.8,167.6C244.2,167.2,243.1,166.7,242.4,166.4C243.2,165.7,244.2,164.7,244.5,164.4C244.8,164.1,244.8,164.0,244.6,163.7L238.6,157.8zM237.0,162.9L239.2,161.6C240.3,163.9,240.9,166.7,241.0,168.8C240.3,168.8,239.1,169.1,238.4,169.3C238.5,167.4,237.9,164.9,237.0,162.9zM244.3,156.8L245.2,154.6C247.5,155.0,250.2,155.7,251.8,156.5L250.8,159.0C249.3,158.2,246.6,157.3,244.3,156.8zM230.1,157.5L240.1,147.5L241.8,149.2L231.8,159.2L230.1,157.5zM232.2,162.2L244.9,149.6L246.6,151.3L233.9,163.9L232.2,162.2&quot; fill=&quot;#999999&quot;/&gt;&lt;g transform=&quot;matrix(0.707107,-0.707107,0.707107,0.707107,134.500000,231.500000)&quot;&gt;&lt;path stroke=&quot;#999999&quot; d=&quot;M.0,11.0C.0,4.9,4.9,.0,11.0,.0L37.0,.0C43.1,.0,48.0,4.9,48.0,11.0L48.0,37.0C48.0,43.1,43.1,48.0,37.0,48.0L11.0,48.0C4.9,48.0,.0,43.1,.0,37.0L.0,11.0&quot; fill=&quot;none&quot;/&gt;&lt;path stroke=&quot;none&quot; d=&quot;M24.0,26.4L14.3,26.4C12.9,26.4,11.8,25.3,11.8,24.0C11.8,22.7,12.9,21.6,14.3,21.6L24.0,21.6C25.3,21.6,26.4,22.7,26.4,24.0C26.4,25.3,25.3,26.4,24.0,26.4&quot; fill=&quot;#c2c2c2&quot;/&gt;&lt;path stroke=&quot;none&quot; d=&quot;M24.0,14.3L14.3,14.3C12.9,14.3,11.8,13.2,11.8,11.8C11.8,10.5,12.9,9.4,14.3,9.4L24.0,9.4C32.1,9.4,38.6,15.9,38.6,24.0C38.6,32.1,32.1,38.6,24.0,38.6L14.3,38.6C12.9,38.6,11.8,37.5,11.8,36.2C11.8,34.8,12.9,33.8,14.3,33.8L24.0,33.8C29.4,33.8,33.8,29.4,33.8,24.0C33.8,18.6,29.4,14.3,24.0,14.3&quot; fill=&quot;#999999&quot;/&gt;&lt;/g&gt;&lt;/g&gt;&lt;g transform=&quot;translate(0,2400)&quot; opacity=&quot;0.4&quot;&gt;&lt;path stroke=&quot;none&quot; d=&quot;M191.4,196.9L197.7,190.5L199.3,192.1L193.0,198.4L191.4,196.9zM197.4,190.9L197.7,190.5L198.0,190.1L199.7,189.6C199.7,189.7,199.7,189.9,199.7,190.1C200.6,202.7,201.3,204.1,202.0,204.8C202.5,205.4,203.2,205.1,204.0,204.3L207.0,201.3C207.7,200.6,207.5,200.0,205.4,197.7C206.0,197.5,206.9,197.1,207.4,196.7C210.3,200.0,210.3,201.3,208.5,203.0L205.7,205.9C203.6,208.0,201.8,208.0,200.5,206.7C199.4,205.6,198.5,204.2,197.4,190.9zM188.2,197.7L190.3,196.6C191.8,199.9,192.9,203.9,193.0,207.1C192.4,206.8,191.0,206.3,190.3,206.2C190.3,203.7,189.5,200.4,188.2,197.7zM190.7,202.9L190.7,199.6L190.8,199.6L201.8,210.6L200.1,212.2L190.7,202.9zM200.4,186.5L212.5,174.4L225.3,187.1L223.6,188.8L212.4,177.6L203.6,186.4L214.8,197.6L213.2,199.3L200.4,186.5zM212.2,196.2L222.5,185.9L224.0,187.4L213.6,197.7L212.2,196.2zM212.1,190.1L211.9,188.5C213.3,187.5,215.2,186.5,216.5,186.0L216.8,187.8C215.6,188.2,213.6,189.2,212.1,190.1zM206.6,183.2L208.5,182.3C208.9,184.4,208.8,187.0,208.4,188.9C207.9,188.9,206.9,188.9,206.3,189.0C206.8,187.2,207.0,185.0,206.6,183.2zM211.5,180.6L211.8,180.3L211.9,180.1L213.4,179.7C214.3,183.5,212.6,188.3,210.3,192.0C209.8,191.7,208.8,191.4,208.2,191.4C210.5,188.0,212.2,183.6,211.7,180.8L211.5,180.6zM208.5,185.6C210.9,185.6,214.4,184.2,217.3,182.1C217.3,182.7,217.4,183.7,217.6,184.3C214.5,186.3,210.8,187.5,207.8,187.4L208.5,185.6zM207.8,184.3L212.0,180.1L213.2,181.4L208.2,186.4L207.8,184.3zM212.7,193.2L212.3,191.4C214.5,189.7,217.4,187.8,219.3,186.8L219.8,188.8C217.9,189.6,214.9,191.5,212.7,193.2zM214.5,172.4L226.7,160.2L239.4,173.0L237.7,174.7L226.5,163.4L217.7,172.3L228.9,183.5L227.3,185.1L214.5,172.4zM226.3,182.1L236.6,171.7L238.1,173.2L227.8,183.6L226.3,182.1zM226.3,176.0L226.0,174.4C227.4,173.4,229.4,172.4,230.6,171.9L231.0,173.6C229.7,174.1,227.7,175.1,226.3,176.0zM220.8,169.1L222.6,168.2C223.0,170.3,223.0,172.8,222.6,174.8C222.1,174.7,221.0,174.8,220.4,174.9C221.0,173.1,221.1,170.8,220.8,169.1zM225.6,166.5L225.9,166.2L226.1,165.9L227.6,165.5C228.4,169.3,226.7,174.1,224.5,177.8C223.9,177.6,222.9,177.3,222.3,177.2C224.6,173.8,226.4,169.5,225.8,166.7L225.6,166.5zM222.6,171.5C225.1,171.5,228.5,170.0,231.4,168.0C231.4,168.6,231.6,169.6,231.7,170.2C228.7,172.1,225.0,173.4,221.9,173.3L222.6,171.5zM221.9,170.2L226.1,166.0L227.3,167.3L222.3,172.3L221.9,170.2zM226.8,179.1L226.5,177.2C228.6,175.5,231.5,173.7,233.5,172.7L233.9,174.6C232.0,175.5,229.0,177.4,226.8,179.1zM238.6,157.8L240.5,155.9L246.5,161.9C247.4,162.9,247.7,163.6,247.3,164.5C246.9,165.4,246.0,166.4,244.8,167.6C244.2,167.2,243.1,166.7,242.4,166.4C243.2,165.7,244.2,164.7,244.5,164.4C244.8,164.1,244.8,164.0,244.6,163.7L238.6,157.8zM237.0,162.9L239.2,161.6C240.3,163.9,240.9,166.7,241.0,168.8C240.3,168.8,239.1,169.1,238.4,169.3C238.5,167.4,237.9,164.9,237.0,162.9zM244.3,156.8L245.2,154.6C247.5,155.0,250.2,155.7,251.8,156.5L250.8,159.0C249.3,158.2,246.6,157.3,244.3,156.8zM230.1,157.5L240.1,147.5L241.8,149.2L231.8,159.2L230.1,157.5zM232.2,162.2L244.9,149.6L246.6,151.3L233.9,163.9L232.2,162.2&quot; fill=&quot;#999999&quot;/&gt;&lt;g transform=&quot;matrix(0.707107,-0.707107,0.707107,0.707107,134.500000,231.500000)&quot;&gt;&lt;path stroke=&quot;#999999&quot; d=&quot;M.0,11.0C.0,4.9,4.9,.0,11.0,.0L37.0,.0C43.1,.0,48.0,4.9,48.0,11.0L48.0,37.0C48.0,43.1,43.1,48.0,37.0,48.0L11.0,48.0C4.9,48.0,.0,43.1,.0,37.0L.0,11.0&quot; fill=&quot;none&quot;/&gt;&lt;path stroke=&quot;none&quot; d=&quot;M24.0,26.4L14.3,26.4C12.9,26.4,11.8,25.3,11.8,24.0C11.8,22.7,12.9,21.6,14.3,21.6L24.0,21.6C25.3,21.6,26.4,22.7,26.4,24.0C26.4,25.3,25.3,26.4,24.0,26.4&quot; fill=&quot;#c2c2c2&quot;/&gt;&lt;path stroke=&quot;none&quot; d=&quot;M24.0,14.3L14.3,14.3C12.9,14.3,11.8,13.2,11.8,11.8C11.8,10.5,12.9,9.4,14.3,9.4L24.0,9.4C32.1,9.4,38.6,15.9,38.6,24.0C38.6,32.1,32.1,38.6,24.0,38.6L14.3,38.6C12.9,38.6,11.8,37.5,11.8,36.2C11.8,34.8,12.9,33.8,14.3,33.8L24.0,33.8C29.4,33.8,33.8,29.4,33.8,24.0C33.8,18.6,29.4,14.3,24.0,14.3&quot; fill=&quot;#999999&quot;/&gt;&lt;/g&gt;&lt;/g&gt;&lt;g transform=&quot;translate(0,2800)&quot; opacity=&quot;0.4&quot;&gt;&lt;path stroke=&quot;none&quot; d=&quot;M191.4,196.9L197.7,190.5L199.3,192.1L193.0,198.4L191.4,196.9zM197.4,190.9L197.7,190.5L198.0,190.1L199.7,189.6C199.7,189.7,199.7,189.9,199.7,190.1C200.6,202.7,201.3,204.1,202.0,204.8C202.5,205.4,203.2,205.1,204.0,204.3L207.0,201.3C207.7,200.6,207.5,200.0,205.4,197.7C206.0,197.5,206.9,197.1,207.4,196.7C210.3,200.0,210.3,201.3,208.5,203.0L205.7,205.9C203.6,208.0,201.8,208.0,200.5,206.7C199.4,205.6,198.5,204.2,197.4,190.9zM188.2,197.7L190.3,196.6C191.8,199.9,192.9,203.9,193.0,207.1C192.4,206.8,191.0,206.3,190.3,206.2C190.3,203.7,189.5,200.4,188.2,197.7zM190.7,202.9L190.7,199.6L190.8,199.6L201.8,210.6L200.1,212.2L190.7,202.9zM200.4,186.5L212.5,174.4L225.3,187.1L223.6,188.8L212.4,177.6L203.6,186.4L214.8,197.6L213.2,199.3L200.4,186.5zM212.2,196.2L222.5,185.9L224.0,187.4L213.6,197.7L212.2,196.2zM212.1,190.1L211.9,188.5C213.3,187.5,215.2,186.5,216.5,186.0L216.8,187.8C215.6,188.2,213.6,189.2,212.1,190.1zM206.6,183.2L208.5,182.3C208.9,184.4,208.8,187.0,208.4,188.9C207.9,188.9,206.9,188.9,206.3,189.0C206.8,187.2,207.0,185.0,206.6,183.2zM211.5,180.6L211.8,180.3L211.9,180.1L213.4,179.7C214.3,183.5,212.6,188.3,210.3,192.0C209.8,191.7,208.8,191.4,208.2,191.4C210.5,188.0,212.2,183.6,211.7,180.8L211.5,180.6zM208.5,185.6C210.9,185.6,214.4,184.2,217.3,182.1C217.3,182.7,217.4,183.7,217.6,184.3C214.5,186.3,210.8,187.5,207.8,187.4L208.5,185.6zM207.8,184.3L212.0,180.1L213.2,181.4L208.2,186.4L207.8,184.3zM212.7,193.2L212.3,191.4C214.5,189.7,217.4,187.8,219.3,186.8L219.8,188.8C217.9,189.6,214.9,191.5,212.7,193.2zM214.5,172.4L226.7,160.2L239.4,173.0L237.7,174.7L226.5,163.4L217.7,172.3L228.9,183.5L227.3,185.1L214.5,172.4zM226.3,182.1L236.6,171.7L238.1,173.2L227.8,183.6L226.3,182.1zM226.3,176.0L226.0,174.4C227.4,173.4,229.4,172.4,230.6,171.9L231.0,173.6C229.7,174.1,227.7,175.1,226.3,176.0zM220.8,169.1L222.6,168.2C223.0,170.3,223.0,172.8,222.6,174.8C222.1,174.7,221.0,174.8,220.4,174.9C221.0,173.1,221.1,170.8,220.8,169.1zM225.6,166.5L225.9,166.2L226.1,165.9L227.6,165.5C228.4,169.3,226.7,174.1,224.5,177.8C223.9,177.6,222.9,177.3,222.3,177.2C224.6,173.8,226.4,169.5,225.8,166.7L225.6,166.5zM222.6,171.5C225.1,171.5,228.5,170.0,231.4,168.0C231.4,168.6,231.6,169.6,231.7,170.2C228.7,172.1,225.0,173.4,221.9,173.3L222.6,171.5zM221.9,170.2L226.1,166.0L227.3,167.3L222.3,172.3L221.9,170.2zM226.8,179.1L226.5,177.2C228.6,175.5,231.5,173.7,233.5,172.7L233.9,174.6C232.0,175.5,229.0,177.4,226.8,179.1zM238.6,157.8L240.5,155.9L246.5,161.9C247.4,162.9,247.7,163.6,247.3,164.5C246.9,165.4,246.0,166.4,244.8,167.6C244.2,167.2,243.1,166.7,242.4,166.4C243.2,165.7,244.2,164.7,244.5,164.4C244.8,164.1,244.8,164.0,244.6,163.7L238.6,157.8zM237.0,162.9L239.2,161.6C240.3,163.9,240.9,166.7,241.0,168.8C240.3,168.8,239.1,169.1,238.4,169.3C238.5,167.4,237.9,164.9,237.0,162.9zM244.3,156.8L245.2,154.6C247.5,155.0,250.2,155.7,251.8,156.5L250.8,159.0C249.3,158.2,246.6,157.3,244.3,156.8zM230.1,157.5L240.1,147.5L241.8,149.2L231.8,159.2L230.1,157.5zM232.2,162.2L244.9,149.6L246.6,151.3L233.9,163.9L232.2,162.2&quot; fill=&quot;#999999&quot;/&gt;&lt;g transform=&quot;matrix(0.707107,-0.707107,0.707107,0.707107,134.500000,231.500000)&quot;&gt;&lt;path stroke=&quot;#999999&quot; d=&quot;M.0,11.0C.0,4.9,4.9,.0,11.0,.0L37.0,.0C43.1,.0,48.0,4.9,48.0,11.0L48.0,37.0C48.0,43.1,43.1,48.0,37.0,48.0L11.0,48.0C4.9,48.0,.0,43.1,.0,37.0L.0,11.0&quot; fill=&quot;none&quot;/&gt;&lt;path stroke=&quot;none&quot; d=&quot;M24.0,26.4L14.3,26.4C12.9,26.4,11.8,25.3,11.8,24.0C11.8,22.7,12.9,21.6,14.3,21.6L24.0,21.6C25.3,21.6,26.4,22.7,26.4,24.0C26.4,25.3,25.3,26.4,24.0,26.4&quot; fill=&quot;#c2c2c2&quot;/&gt;&lt;path stroke=&quot;none&quot; d=&quot;M24.0,14.3L14.3,14.3C12.9,14.3,11.8,13.2,11.8,11.8C11.8,10.5,12.9,9.4,14.3,9.4L24.0,9.4C32.1,9.4,38.6,15.9,38.6,24.0C38.6,32.1,32.1,38.6,24.0,38.6L14.3,38.6C12.9,38.6,11.8,37.5,11.8,36.2C11.8,34.8,12.9,33.8,14.3,33.8L24.0,33.8C29.4,33.8,33.8,29.4,33.8,24.0C33.8,18.6,29.4,14.3,24.0,14.3&quot; fill=&quot;#999999&quot;/&gt;&lt;/g&gt;&lt;/g&gt;&lt;g transform=&quot;translate(400,0)&quot; opacity=&quot;0.4&quot;&gt;&lt;path stroke=&quot;none&quot; d=&quot;M191.4,196.9L197.7,190.5L199.3,192.1L193.0,198.4L191.4,196.9zM197.4,190.9L197.7,190.5L198.0,190.1L199.7,189.6C199.7,189.7,199.7,189.9,199.7,190.1C200.6,202.7,201.3,204.1,202.0,204.8C202.5,205.4,203.2,205.1,204.0,204.3L207.0,201.3C207.7,200.6,207.5,200.0,205.4,197.7C206.0,197.5,206.9,197.1,207.4,196.7C210.3,200.0,210.3,201.3,208.5,203.0L205.7,205.9C203.6,208.0,201.8,208.0,200.5,206.7C199.4,205.6,198.5,204.2,197.4,190.9zM188.2,197.7L190.3,196.6C191.8,199.9,192.9,203.9,193.0,207.1C192.4,206.8,191.0,206.3,190.3,206.2C190.3,203.7,189.5,200.4,188.2,197.7zM190.7,202.9L190.7,199.6L190.8,199.6L201.8,210.6L200.1,212.2L190.7,202.9zM200.4,186.5L212.5,174.4L225.3,187.1L223.6,188.8L212.4,177.6L203.6,186.4L214.8,197.6L213.2,199.3L200.4,186.5zM212.2,196.2L222.5,185.9L224.0,187.4L213.6,197.7L212.2,196.2zM212.1,190.1L211.9,188.5C213.3,187.5,215.2,186.5,216.5,186.0L216.8,187.8C215.6,188.2,213.6,189.2,212.1,190.1zM206.6,183.2L208.5,182.3C208.9,184.4,208.8,187.0,208.4,188.9C207.9,188.9,206.9,188.9,206.3,189.0C206.8,187.2,207.0,185.0,206.6,183.2zM211.5,180.6L211.8,180.3L211.9,180.1L213.4,179.7C214.3,183.5,212.6,188.3,210.3,192.0C209.8,191.7,208.8,191.4,208.2,191.4C210.5,188.0,212.2,183.6,211.7,180.8L211.5,180.6zM208.5,185.6C210.9,185.6,214.4,184.2,217.3,182.1C217.3,182.7,217.4,183.7,217.6,184.3C214.5,186.3,210.8,187.5,207.8,187.4L208.5,185.6zM207.8,184.3L212.0,180.1L213.2,181.4L208.2,186.4L207.8,184.3zM212.7,193.2L212.3,191.4C214.5,189.7,217.4,187.8,219.3,186.8L219.8,188.8C217.9,189.6,214.9,191.5,212.7,193.2zM214.5,172.4L226.7,160.2L239.4,173.0L237.7,174.7L226.5,163.4L217.7,172.3L228.9,183.5L227.3,185.1L214.5,172.4zM226.3,182.1L236.6,171.7L238.1,173.2L227.8,183.6L226.3,182.1zM226.3,176.0L226.0,174.4C227.4,173.4,229.4,172.4,230.6,171.9L231.0,173.6C229.7,174.1,227.7,175.1,226.3,176.0zM220.8,169.1L222.6,168.2C223.0,170.3,223.0,172.8,222.6,174.8C222.1,174.7,221.0,174.8,220.4,174.9C221.0,173.1,221.1,170.8,220.8,169.1zM225.6,166.5L225.9,166.2L226.1,165.9L227.6,165.5C228.4,169.3,226.7,174.1,224.5,177.8C223.9,177.6,222.9,177.3,222.3,177.2C224.6,173.8,226.4,169.5,225.8,166.7L225.6,166.5zM222.6,171.5C225.1,171.5,228.5,170.0,231.4,168.0C231.4,168.6,231.6,169.6,231.7,170.2C228.7,172.1,225.0,173.4,221.9,173.3L222.6,171.5zM221.9,170.2L226.1,166.0L227.3,167.3L222.3,172.3L221.9,170.2zM226.8,179.1L226.5,177.2C228.6,175.5,231.5,173.7,233.5,172.7L233.9,174.6C232.0,175.5,229.0,177.4,226.8,179.1zM238.6,157.8L240.5,155.9L246.5,161.9C247.4,162.9,247.7,163.6,247.3,164.5C246.9,165.4,246.0,166.4,244.8,167.6C244.2,167.2,243.1,166.7,242.4,166.4C243.2,165.7,244.2,164.7,244.5,164.4C244.8,164.1,244.8,164.0,244.6,163.7L238.6,157.8zM237.0,162.9L239.2,161.6C240.3,163.9,240.9,166.7,241.0,168.8C240.3,168.8,239.1,169.1,238.4,169.3C238.5,167.4,237.9,164.9,237.0,162.9zM244.3,156.8L245.2,154.6C247.5,155.0,250.2,155.7,251.8,156.5L250.8,159.0C249.3,158.2,246.6,157.3,244.3,156.8zM230.1,157.5L240.1,147.5L241.8,149.2L231.8,159.2L230.1,157.5zM232.2,162.2L244.9,149.6L246.6,151.3L233.9,163.9L232.2,162.2&quot; fill=&quot;#999999&quot;/&gt;&lt;g transform=&quot;matrix(0.707107,-0.707107,0.707107,0.707107,134.500000,231.500000)&quot;&gt;&lt;path stroke=&quot;#999999&quot; d=&quot;M.0,11.0C.0,4.9,4.9,.0,11.0,.0L37.0,.0C43.1,.0,48.0,4.9,48.0,11.0L48.0,37.0C48.0,43.1,43.1,48.0,37.0,48.0L11.0,48.0C4.9,48.0,.0,43.1,.0,37.0L.0,11.0&quot; fill=&quot;none&quot;/&gt;&lt;path stroke=&quot;none&quot; d=&quot;M24.0,26.4L14.3,26.4C12.9,26.4,11.8,25.3,11.8,24.0C11.8,22.7,12.9,21.6,14.3,21.6L24.0,21.6C25.3,21.6,26.4,22.7,26.4,24.0C26.4,25.3,25.3,26.4,24.0,26.4&quot; fill=&quot;#c2c2c2&quot;/&gt;&lt;path stroke=&quot;none&quot; d=&quot;M24.0,14.3L14.3,14.3C12.9,14.3,11.8,13.2,11.8,11.8C11.8,10.5,12.9,9.4,14.3,9.4L24.0,9.4C32.1,9.4,38.6,15.9,38.6,24.0C38.6,32.1,32.1,38.6,24.0,38.6L14.3,38.6C12.9,38.6,11.8,37.5,11.8,36.2C11.8,34.8,12.9,33.8,14.3,33.8L24.0,33.8C29.4,33.8,33.8,29.4,33.8,24.0C33.8,18.6,29.4,14.3,24.0,14.3&quot; fill=&quot;#999999&quot;/&gt;&lt;/g&gt;&lt;/g&gt;&lt;g transform=&quot;translate(400,400)&quot; opacity=&quot;0.4&quot;&gt;&lt;path stroke=&quot;none&quot; d=&quot;M191.4,196.9L197.7,190.5L199.3,192.1L193.0,198.4L191.4,196.9zM197.4,190.9L197.7,190.5L198.0,190.1L199.7,189.6C199.7,189.7,199.7,189.9,199.7,190.1C200.6,202.7,201.3,204.1,202.0,204.8C202.5,205.4,203.2,205.1,204.0,204.3L207.0,201.3C207.7,200.6,207.5,200.0,205.4,197.7C206.0,197.5,206.9,197.1,207.4,196.7C210.3,200.0,210.3,201.3,208.5,203.0L205.7,205.9C203.6,208.0,201.8,208.0,200.5,206.7C199.4,205.6,198.5,204.2,197.4,190.9zM188.2,197.7L190.3,196.6C191.8,199.9,192.9,203.9,193.0,207.1C192.4,206.8,191.0,206.3,190.3,206.2C190.3,203.7,189.5,200.4,188.2,197.7zM190.7,202.9L190.7,199.6L190.8,199.6L201.8,210.6L200.1,212.2L190.7,202.9zM200.4,186.5L212.5,174.4L225.3,187.1L223.6,188.8L212.4,177.6L203.6,186.4L214.8,197.6L213.2,199.3L200.4,186.5zM212.2,196.2L222.5,185.9L224.0,187.4L213.6,197.7L212.2,196.2zM212.1,190.1L211.9,188.5C213.3,187.5,215.2,186.5,216.5,186.0L216.8,187.8C215.6,188.2,213.6,189.2,212.1,190.1zM206.6,183.2L208.5,182.3C208.9,184.4,208.8,187.0,208.4,188.9C207.9,188.9,206.9,188.9,206.3,189.0C206.8,187.2,207.0,185.0,206.6,183.2zM211.5,180.6L211.8,180.3L211.9,180.1L213.4,179.7C214.3,183.5,212.6,188.3,210.3,192.0C209.8,191.7,208.8,191.4,208.2,191.4C210.5,188.0,212.2,183.6,211.7,180.8L211.5,180.6zM208.5,185.6C210.9,185.6,214.4,184.2,217.3,182.1C217.3,182.7,217.4,183.7,217.6,184.3C214.5,186.3,210.8,187.5,207.8,187.4L208.5,185.6zM207.8,184.3L212.0,180.1L213.2,181.4L208.2,186.4L207.8,184.3zM212.7,193.2L212.3,191.4C214.5,189.7,217.4,187.8,219.3,186.8L219.8,188.8C217.9,189.6,214.9,191.5,212.7,193.2zM214.5,172.4L226.7,160.2L239.4,173.0L237.7,174.7L226.5,163.4L217.7,172.3L228.9,183.5L227.3,185.1L214.5,172.4zM226.3,182.1L236.6,171.7L238.1,173.2L227.8,183.6L226.3,182.1zM226.3,176.0L226.0,174.4C227.4,173.4,229.4,172.4,230.6,171.9L231.0,173.6C229.7,174.1,227.7,175.1,226.3,176.0zM220.8,169.1L222.6,168.2C223.0,170.3,223.0,172.8,222.6,174.8C222.1,174.7,221.0,174.8,220.4,174.9C221.0,173.1,221.1,170.8,220.8,169.1zM225.6,166.5L225.9,166.2L226.1,165.9L227.6,165.5C228.4,169.3,226.7,174.1,224.5,177.8C223.9,177.6,222.9,177.3,222.3,177.2C224.6,173.8,226.4,169.5,225.8,166.7L225.6,166.5zM222.6,171.5C225.1,171.5,228.5,170.0,231.4,168.0C231.4,168.6,231.6,169.6,231.7,170.2C228.7,172.1,225.0,173.4,221.9,173.3L222.6,171.5zM221.9,170.2L226.1,166.0L227.3,167.3L222.3,172.3L221.9,170.2zM226.8,179.1L226.5,177.2C228.6,175.5,231.5,173.7,233.5,172.7L233.9,174.6C232.0,175.5,229.0,177.4,226.8,179.1zM238.6,157.8L240.5,155.9L246.5,161.9C247.4,162.9,247.7,163.6,247.3,164.5C246.9,165.4,246.0,166.4,244.8,167.6C244.2,167.2,243.1,166.7,242.4,166.4C243.2,165.7,244.2,164.7,244.5,164.4C244.8,164.1,244.8,164.0,244.6,163.7L238.6,157.8zM237.0,162.9L239.2,161.6C240.3,163.9,240.9,166.7,241.0,168.8C240.3,168.8,239.1,169.1,238.4,169.3C238.5,167.4,237.9,164.9,237.0,162.9zM244.3,156.8L245.2,154.6C247.5,155.0,250.2,155.7,251.8,156.5L250.8,159.0C249.3,158.2,246.6,157.3,244.3,156.8zM230.1,157.5L240.1,147.5L241.8,149.2L231.8,159.2L230.1,157.5zM232.2,162.2L244.9,149.6L246.6,151.3L233.9,163.9L232.2,162.2&quot; fill=&quot;#999999&quot;/&gt;&lt;g transform=&quot;matrix(0.707107,-0.707107,0.707107,0.707107,134.500000,231.500000)&quot;&gt;&lt;path stroke=&quot;#999999&quot; d=&quot;M.0,11.0C.0,4.9,4.9,.0,11.0,.0L37.0,.0C43.1,.0,48.0,4.9,48.0,11.0L48.0,37.0C48.0,43.1,43.1,48.0,37.0,48.0L11.0,48.0C4.9,48.0,.0,43.1,.0,37.0L.0,11.0&quot; fill=&quot;none&quot;/&gt;&lt;path stroke=&quot;none&quot; d=&quot;M24.0,26.4L14.3,26.4C12.9,26.4,11.8,25.3,11.8,24.0C11.8,22.7,12.9,21.6,14.3,21.6L24.0,21.6C25.3,21.6,26.4,22.7,26.4,24.0C26.4,25.3,25.3,26.4,24.0,26.4&quot; fill=&quot;#c2c2c2&quot;/&gt;&lt;path stroke=&quot;none&quot; d=&quot;M24.0,14.3L14.3,14.3C12.9,14.3,11.8,13.2,11.8,11.8C11.8,10.5,12.9,9.4,14.3,9.4L24.0,9.4C32.1,9.4,38.6,15.9,38.6,24.0C38.6,32.1,32.1,38.6,24.0,38.6L14.3,38.6C12.9,38.6,11.8,37.5,11.8,36.2C11.8,34.8,12.9,33.8,14.3,33.8L24.0,33.8C29.4,33.8,33.8,29.4,33.8,24.0C33.8,18.6,29.4,14.3,24.0,14.3&quot; fill=&quot;#999999&quot;/&gt;&lt;/g&gt;&lt;/g&gt;&lt;g transform=&quot;translate(400,800)&quot; opacity=&quot;0.4&quot;&gt;&lt;path stroke=&quot;none&quot; d=&quot;M191.4,196.9L197.7,190.5L199.3,192.1L193.0,198.4L191.4,196.9zM197.4,190.9L197.7,190.5L198.0,190.1L199.7,189.6C199.7,189.7,199.7,189.9,199.7,190.1C200.6,202.7,201.3,204.1,202.0,204.8C202.5,205.4,203.2,205.1,204.0,204.3L207.0,201.3C207.7,200.6,207.5,200.0,205.4,197.7C206.0,197.5,206.9,197.1,207.4,196.7C210.3,200.0,210.3,201.3,208.5,203.0L205.7,205.9C203.6,208.0,201.8,208.0,200.5,206.7C199.4,205.6,198.5,204.2,197.4,190.9zM188.2,197.7L190.3,196.6C191.8,199.9,192.9,203.9,193.0,207.1C192.4,206.8,191.0,206.3,190.3,206.2C190.3,203.7,189.5,200.4,188.2,197.7zM190.7,202.9L190.7,199.6L190.8,199.6L201.8,210.6L200.1,212.2L190.7,202.9zM200.4,186.5L212.5,174.4L225.3,187.1L223.6,188.8L212.4,177.6L203.6,186.4L214.8,197.6L213.2,199.3L200.4,186.5zM212.2,196.2L222.5,185.9L224.0,187.4L213.6,197.7L212.2,196.2zM212.1,190.1L211.9,188.5C213.3,187.5,215.2,186.5,216.5,186.0L216.8,187.8C215.6,188.2,213.6,189.2,212.1,190.1zM206.6,183.2L208.5,182.3C208.9,184.4,208.8,187.0,208.4,188.9C207.9,188.9,206.9,188.9,206.3,189.0C206.8,187.2,207.0,185.0,206.6,183.2zM211.5,180.6L211.8,180.3L211.9,180.1L213.4,179.7C214.3,183.5,212.6,188.3,210.3,192.0C209.8,191.7,208.8,191.4,208.2,191.4C210.5,188.0,212.2,183.6,211.7,180.8L211.5,180.6zM208.5,185.6C210.9,185.6,214.4,184.2,217.3,182.1C217.3,182.7,217.4,183.7,217.6,184.3C214.5,186.3,210.8,187.5,207.8,187.4L208.5,185.6zM207.8,184.3L212.0,180.1L213.2,181.4L208.2,186.4L207.8,184.3zM212.7,193.2L212.3,191.4C214.5,189.7,217.4,187.8,219.3,186.8L219.8,188.8C217.9,189.6,214.9,191.5,212.7,193.2zM214.5,172.4L226.7,160.2L239.4,173.0L237.7,174.7L226.5,163.4L217.7,172.3L228.9,183.5L227.3,185.1L214.5,172.4zM226.3,182.1L236.6,171.7L238.1,173.2L227.8,183.6L226.3,182.1zM226.3,176.0L226.0,174.4C227.4,173.4,229.4,172.4,230.6,171.9L231.0,173.6C229.7,174.1,227.7,175.1,226.3,176.0zM220.8,169.1L222.6,168.2C223.0,170.3,223.0,172.8,222.6,174.8C222.1,174.7,221.0,174.8,220.4,174.9C221.0,173.1,221.1,170.8,220.8,169.1zM225.6,166.5L225.9,166.2L226.1,165.9L227.6,165.5C228.4,169.3,226.7,174.1,224.5,177.8C223.9,177.6,222.9,177.3,222.3,177.2C224.6,173.8,226.4,169.5,225.8,166.7L225.6,166.5zM222.6,171.5C225.1,171.5,228.5,170.0,231.4,168.0C231.4,168.6,231.6,169.6,231.7,170.2C228.7,172.1,225.0,173.4,221.9,173.3L222.6,171.5zM221.9,170.2L226.1,166.0L227.3,167.3L222.3,172.3L221.9,170.2zM226.8,179.1L226.5,177.2C228.6,175.5,231.5,173.7,233.5,172.7L233.9,174.6C232.0,175.5,229.0,177.4,226.8,179.1zM238.6,157.8L240.5,155.9L246.5,161.9C247.4,162.9,247.7,163.6,247.3,164.5C246.9,165.4,246.0,166.4,244.8,167.6C244.2,167.2,243.1,166.7,242.4,166.4C243.2,165.7,244.2,164.7,244.5,164.4C244.8,164.1,244.8,164.0,244.6,163.7L238.6,157.8zM237.0,162.9L239.2,161.6C240.3,163.9,240.9,166.7,241.0,168.8C240.3,168.8,239.1,169.1,238.4,169.3C238.5,167.4,237.9,164.9,237.0,162.9zM244.3,156.8L245.2,154.6C247.5,155.0,250.2,155.7,251.8,156.5L250.8,159.0C249.3,158.2,246.6,157.3,244.3,156.8zM230.1,157.5L240.1,147.5L241.8,149.2L231.8,159.2L230.1,157.5zM232.2,162.2L244.9,149.6L246.6,151.3L233.9,163.9L232.2,162.2&quot; fill=&quot;#999999&quot;/&gt;&lt;g transform=&quot;matrix(0.707107,-0.707107,0.707107,0.707107,134.500000,231.500000)&quot;&gt;&lt;path stroke=&quot;#999999&quot; d=&quot;M.0,11.0C.0,4.9,4.9,.0,11.0,.0L37.0,.0C43.1,.0,48.0,4.9,48.0,11.0L48.0,37.0C48.0,43.1,43.1,48.0,37.0,48.0L11.0,48.0C4.9,48.0,.0,43.1,.0,37.0L.0,11.0&quot; fill=&quot;none&quot;/&gt;&lt;path stroke=&quot;none&quot; d=&quot;M24.0,26.4L14.3,26.4C12.9,26.4,11.8,25.3,11.8,24.0C11.8,22.7,12.9,21.6,14.3,21.6L24.0,21.6C25.3,21.6,26.4,22.7,26.4,24.0C26.4,25.3,25.3,26.4,24.0,26.4&quot; fill=&quot;#c2c2c2&quot;/&gt;&lt;path stroke=&quot;none&quot; d=&quot;M24.0,14.3L14.3,14.3C12.9,14.3,11.8,13.2,11.8,11.8C11.8,10.5,12.9,9.4,14.3,9.4L24.0,9.4C32.1,9.4,38.6,15.9,38.6,24.0C38.6,32.1,32.1,38.6,24.0,38.6L14.3,38.6C12.9,38.6,11.8,37.5,11.8,36.2C11.8,34.8,12.9,33.8,14.3,33.8L24.0,33.8C29.4,33.8,33.8,29.4,33.8,24.0C33.8,18.6,29.4,14.3,24.0,14.3&quot; fill=&quot;#999999&quot;/&gt;&lt;/g&gt;&lt;/g&gt;&lt;g transform=&quot;translate(400,1200)&quot; opacity=&quot;0.4&quot;&gt;&lt;path stroke=&quot;none&quot; d=&quot;M191.4,196.9L197.7,190.5L199.3,192.1L193.0,198.4L191.4,196.9zM197.4,190.9L197.7,190.5L198.0,190.1L199.7,189.6C199.7,189.7,199.7,189.9,199.7,190.1C200.6,202.7,201.3,204.1,202.0,204.8C202.5,205.4,203.2,205.1,204.0,204.3L207.0,201.3C207.7,200.6,207.5,200.0,205.4,197.7C206.0,197.5,206.9,197.1,207.4,196.7C210.3,200.0,210.3,201.3,208.5,203.0L205.7,205.9C203.6,208.0,201.8,208.0,200.5,206.7C199.4,205.6,198.5,204.2,197.4,190.9zM188.2,197.7L190.3,196.6C191.8,199.9,192.9,203.9,193.0,207.1C192.4,206.8,191.0,206.3,190.3,206.2C190.3,203.7,189.5,200.4,188.2,197.7zM190.7,202.9L190.7,199.6L190.8,199.6L201.8,210.6L200.1,212.2L190.7,202.9zM200.4,186.5L212.5,174.4L225.3,187.1L223.6,188.8L212.4,177.6L203.6,186.4L214.8,197.6L213.2,199.3L200.4,186.5zM212.2,196.2L222.5,185.9L224.0,187.4L213.6,197.7L212.2,196.2zM212.1,190.1L211.9,188.5C213.3,187.5,215.2,186.5,216.5,186.0L216.8,187.8C215.6,188.2,213.6,189.2,212.1,190.1zM206.6,183.2L208.5,182.3C208.9,184.4,208.8,187.0,208.4,188.9C207.9,188.9,206.9,188.9,206.3,189.0C206.8,187.2,207.0,185.0,206.6,183.2zM211.5,180.6L211.8,180.3L211.9,180.1L213.4,179.7C214.3,183.5,212.6,188.3,210.3,192.0C209.8,191.7,208.8,191.4,208.2,191.4C210.5,188.0,212.2,183.6,211.7,180.8L211.5,180.6zM208.5,185.6C210.9,185.6,214.4,184.2,217.3,182.1C217.3,182.7,217.4,183.7,217.6,184.3C214.5,186.3,210.8,187.5,207.8,187.4L208.5,185.6zM207.8,184.3L212.0,180.1L213.2,181.4L208.2,186.4L207.8,184.3zM212.7,193.2L212.3,191.4C214.5,189.7,217.4,187.8,219.3,186.8L219.8,188.8C217.9,189.6,214.9,191.5,212.7,193.2zM214.5,172.4L226.7,160.2L239.4,173.0L237.7,174.7L226.5,163.4L217.7,172.3L228.9,183.5L227.3,185.1L214.5,172.4zM226.3,182.1L236.6,171.7L238.1,173.2L227.8,183.6L226.3,182.1zM226.3,176.0L226.0,174.4C227.4,173.4,229.4,172.4,230.6,171.9L231.0,173.6C229.7,174.1,227.7,175.1,226.3,176.0zM220.8,169.1L222.6,168.2C223.0,170.3,223.0,172.8,222.6,174.8C222.1,174.7,221.0,174.8,220.4,174.9C221.0,173.1,221.1,170.8,220.8,169.1zM225.6,166.5L225.9,166.2L226.1,165.9L227.6,165.5C228.4,169.3,226.7,174.1,224.5,177.8C223.9,177.6,222.9,177.3,222.3,177.2C224.6,173.8,226.4,169.5,225.8,166.7L225.6,166.5zM222.6,171.5C225.1,171.5,228.5,170.0,231.4,168.0C231.4,168.6,231.6,169.6,231.7,170.2C228.7,172.1,225.0,173.4,221.9,173.3L222.6,171.5zM221.9,170.2L226.1,166.0L227.3,167.3L222.3,172.3L221.9,170.2zM226.8,179.1L226.5,177.2C228.6,175.5,231.5,173.7,233.5,172.7L233.9,174.6C232.0,175.5,229.0,177.4,226.8,179.1zM238.6,157.8L240.5,155.9L246.5,161.9C247.4,162.9,247.7,163.6,247.3,164.5C246.9,165.4,246.0,166.4,244.8,167.6C244.2,167.2,243.1,166.7,242.4,166.4C243.2,165.7,244.2,164.7,244.5,164.4C244.8,164.1,244.8,164.0,244.6,163.7L238.6,157.8zM237.0,162.9L239.2,161.6C240.3,163.9,240.9,166.7,241.0,168.8C240.3,168.8,239.1,169.1,238.4,169.3C238.5,167.4,237.9,164.9,237.0,162.9zM244.3,156.8L245.2,154.6C247.5,155.0,250.2,155.7,251.8,156.5L250.8,159.0C249.3,158.2,246.6,157.3,244.3,156.8zM230.1,157.5L240.1,147.5L241.8,149.2L231.8,159.2L230.1,157.5zM232.2,162.2L244.9,149.6L246.6,151.3L233.9,163.9L232.2,162.2&quot; fill=&quot;#999999&quot;/&gt;&lt;g transform=&quot;matrix(0.707107,-0.707107,0.707107,0.707107,134.500000,231.500000)&quot;&gt;&lt;path stroke=&quot;#999999&quot; d=&quot;M.0,11.0C.0,4.9,4.9,.0,11.0,.0L37.0,.0C43.1,.0,48.0,4.9,48.0,11.0L48.0,37.0C48.0,43.1,43.1,48.0,37.0,48.0L11.0,48.0C4.9,48.0,.0,43.1,.0,37.0L.0,11.0&quot; fill=&quot;none&quot;/&gt;&lt;path stroke=&quot;none&quot; d=&quot;M24.0,26.4L14.3,26.4C12.9,26.4,11.8,25.3,11.8,24.0C11.8,22.7,12.9,21.6,14.3,21.6L24.0,21.6C25.3,21.6,26.4,22.7,26.4,24.0C26.4,25.3,25.3,26.4,24.0,26.4&quot; fill=&quot;#c2c2c2&quot;/&gt;&lt;path stroke=&quot;none&quot; d=&quot;M24.0,14.3L14.3,14.3C12.9,14.3,11.8,13.2,11.8,11.8C11.8,10.5,12.9,9.4,14.3,9.4L24.0,9.4C32.1,9.4,38.6,15.9,38.6,24.0C38.6,32.1,32.1,38.6,24.0,38.6L14.3,38.6C12.9,38.6,11.8,37.5,11.8,36.2C11.8,34.8,12.9,33.8,14.3,33.8L24.0,33.8C29.4,33.8,33.8,29.4,33.8,24.0C33.8,18.6,29.4,14.3,24.0,14.3&quot; fill=&quot;#999999&quot;/&gt;&lt;/g&gt;&lt;/g&gt;&lt;g transform=&quot;translate(400,1600)&quot; opacity=&quot;0.4&quot;&gt;&lt;path stroke=&quot;none&quot; d=&quot;M191.4,196.9L197.7,190.5L199.3,192.1L193.0,198.4L191.4,196.9zM197.4,190.9L197.7,190.5L198.0,190.1L199.7,189.6C199.7,189.7,199.7,189.9,199.7,190.1C200.6,202.7,201.3,204.1,202.0,204.8C202.5,205.4,203.2,205.1,204.0,204.3L207.0,201.3C207.7,200.6,207.5,200.0,205.4,197.7C206.0,197.5,206.9,197.1,207.4,196.7C210.3,200.0,210.3,201.3,208.5,203.0L205.7,205.9C203.6,208.0,201.8,208.0,200.5,206.7C199.4,205.6,198.5,204.2,197.4,190.9zM188.2,197.7L190.3,196.6C191.8,199.9,192.9,203.9,193.0,207.1C192.4,206.8,191.0,206.3,190.3,206.2C190.3,203.7,189.5,200.4,188.2,197.7zM190.7,202.9L190.7,199.6L190.8,199.6L201.8,210.6L200.1,212.2L190.7,202.9zM200.4,186.5L212.5,174.4L225.3,187.1L223.6,188.8L212.4,177.6L203.6,186.4L214.8,197.6L213.2,199.3L200.4,186.5zM212.2,196.2L222.5,185.9L224.0,187.4L213.6,197.7L212.2,196.2zM212.1,190.1L211.9,188.5C213.3,187.5,215.2,186.5,216.5,186.0L216.8,187.8C215.6,188.2,213.6,189.2,212.1,190.1zM206.6,183.2L208.5,182.3C208.9,184.4,208.8,187.0,208.4,188.9C207.9,188.9,206.9,188.9,206.3,189.0C206.8,187.2,207.0,185.0,206.6,183.2zM211.5,180.6L211.8,180.3L211.9,180.1L213.4,179.7C214.3,183.5,212.6,188.3,210.3,192.0C209.8,191.7,208.8,191.4,208.2,191.4C210.5,188.0,212.2,183.6,211.7,180.8L211.5,180.6zM208.5,185.6C210.9,185.6,214.4,184.2,217.3,182.1C217.3,182.7,217.4,183.7,217.6,184.3C214.5,186.3,210.8,187.5,207.8,187.4L208.5,185.6zM207.8,184.3L212.0,180.1L213.2,181.4L208.2,186.4L207.8,184.3zM212.7,193.2L212.3,191.4C214.5,189.7,217.4,187.8,219.3,186.8L219.8,188.8C217.9,189.6,214.9,191.5,212.7,193.2zM214.5,172.4L226.7,160.2L239.4,173.0L237.7,174.7L226.5,163.4L217.7,172.3L228.9,183.5L227.3,185.1L214.5,172.4zM226.3,182.1L236.6,171.7L238.1,173.2L227.8,183.6L226.3,182.1zM226.3,176.0L226.0,174.4C227.4,173.4,229.4,172.4,230.6,171.9L231.0,173.6C229.7,174.1,227.7,175.1,226.3,176.0zM220.8,169.1L222.6,168.2C223.0,170.3,223.0,172.8,222.6,174.8C222.1,174.7,221.0,174.8,220.4,174.9C221.0,173.1,221.1,170.8,220.8,169.1zM225.6,166.5L225.9,166.2L226.1,165.9L227.6,165.5C228.4,169.3,226.7,174.1,224.5,177.8C223.9,177.6,222.9,177.3,222.3,177.2C224.6,173.8,226.4,169.5,225.8,166.7L225.6,166.5zM222.6,171.5C225.1,171.5,228.5,170.0,231.4,168.0C231.4,168.6,231.6,169.6,231.7,170.2C228.7,172.1,225.0,173.4,221.9,173.3L222.6,171.5zM221.9,170.2L226.1,166.0L227.3,167.3L222.3,172.3L221.9,170.2zM226.8,179.1L226.5,177.2C228.6,175.5,231.5,173.7,233.5,172.7L233.9,174.6C232.0,175.5,229.0,177.4,226.8,179.1zM238.6,157.8L240.5,155.9L246.5,161.9C247.4,162.9,247.7,163.6,247.3,164.5C246.9,165.4,246.0,166.4,244.8,167.6C244.2,167.2,243.1,166.7,242.4,166.4C243.2,165.7,244.2,164.7,244.5,164.4C244.8,164.1,244.8,164.0,244.6,163.7L238.6,157.8zM237.0,162.9L239.2,161.6C240.3,163.9,240.9,166.7,241.0,168.8C240.3,168.8,239.1,169.1,238.4,169.3C238.5,167.4,237.9,164.9,237.0,162.9zM244.3,156.8L245.2,154.6C247.5,155.0,250.2,155.7,251.8,156.5L250.8,159.0C249.3,158.2,246.6,157.3,244.3,156.8zM230.1,157.5L240.1,147.5L241.8,149.2L231.8,159.2L230.1,157.5zM232.2,162.2L244.9,149.6L246.6,151.3L233.9,163.9L232.2,162.2&quot; fill=&quot;#999999&quot;/&gt;&lt;g transform=&quot;matrix(0.707107,-0.707107,0.707107,0.707107,134.500000,231.500000)&quot;&gt;&lt;path stroke=&quot;#999999&quot; d=&quot;M.0,11.0C.0,4.9,4.9,.0,11.0,.0L37.0,.0C43.1,.0,48.0,4.9,48.0,11.0L48.0,37.0C48.0,43.1,43.1,48.0,37.0,48.0L11.0,48.0C4.9,48.0,.0,43.1,.0,37.0L.0,11.0&quot; fill=&quot;none&quot;/&gt;&lt;path stroke=&quot;none&quot; d=&quot;M24.0,26.4L14.3,26.4C12.9,26.4,11.8,25.3,11.8,24.0C11.8,22.7,12.9,21.6,14.3,21.6L24.0,21.6C25.3,21.6,26.4,22.7,26.4,24.0C26.4,25.3,25.3,26.4,24.0,26.4&quot; fill=&quot;#c2c2c2&quot;/&gt;&lt;path stroke=&quot;none&quot; d=&quot;M24.0,14.3L14.3,14.3C12.9,14.3,11.8,13.2,11.8,11.8C11.8,10.5,12.9,9.4,14.3,9.4L24.0,9.4C32.1,9.4,38.6,15.9,38.6,24.0C38.6,32.1,32.1,38.6,24.0,38.6L14.3,38.6C12.9,38.6,11.8,37.5,11.8,36.2C11.8,34.8,12.9,33.8,14.3,33.8L24.0,33.8C29.4,33.8,33.8,29.4,33.8,24.0C33.8,18.6,29.4,14.3,24.0,14.3&quot; fill=&quot;#999999&quot;/&gt;&lt;/g&gt;&lt;/g&gt;&lt;g transform=&quot;translate(400,2000)&quot; opacity=&quot;0.4&quot;&gt;&lt;path stroke=&quot;none&quot; d=&quot;M191.4,196.9L197.7,190.5L199.3,192.1L193.0,198.4L191.4,196.9zM197.4,190.9L197.7,190.5L198.0,190.1L199.7,189.6C199.7,189.7,199.7,189.9,199.7,190.1C200.6,202.7,201.3,204.1,202.0,204.8C202.5,205.4,203.2,205.1,204.0,204.3L207.0,201.3C207.7,200.6,207.5,200.0,205.4,197.7C206.0,197.5,206.9,197.1,207.4,196.7C210.3,200.0,210.3,201.3,208.5,203.0L205.7,205.9C203.6,208.0,201.8,208.0,200.5,206.7C199.4,205.6,198.5,204.2,197.4,190.9zM188.2,197.7L190.3,196.6C191.8,199.9,192.9,203.9,193.0,207.1C192.4,206.8,191.0,206.3,190.3,206.2C190.3,203.7,189.5,200.4,188.2,197.7zM190.7,202.9L190.7,199.6L190.8,199.6L201.8,210.6L200.1,212.2L190.7,202.9zM200.4,186.5L212.5,174.4L225.3,187.1L223.6,188.8L212.4,177.6L203.6,186.4L214.8,197.6L213.2,199.3L200.4,186.5zM212.2,196.2L222.5,185.9L224.0,187.4L213.6,197.7L212.2,196.2zM212.1,190.1L211.9,188.5C213.3,187.5,215.2,186.5,216.5,186.0L216.8,187.8C215.6,188.2,213.6,189.2,212.1,190.1zM206.6,183.2L208.5,182.3C208.9,184.4,208.8,187.0,208.4,188.9C207.9,188.9,206.9,188.9,206.3,189.0C206.8,187.2,207.0,185.0,206.6,183.2zM211.5,180.6L211.8,180.3L211.9,180.1L213.4,179.7C214.3,183.5,212.6,188.3,210.3,192.0C209.8,191.7,208.8,191.4,208.2,191.4C210.5,188.0,212.2,183.6,211.7,180.8L211.5,180.6zM208.5,185.6C210.9,185.6,214.4,184.2,217.3,182.1C217.3,182.7,217.4,183.7,217.6,184.3C214.5,186.3,210.8,187.5,207.8,187.4L208.5,185.6zM207.8,184.3L212.0,180.1L213.2,181.4L208.2,186.4L207.8,184.3zM212.7,193.2L212.3,191.4C214.5,189.7,217.4,187.8,219.3,186.8L219.8,188.8C217.9,189.6,214.9,191.5,212.7,193.2zM214.5,172.4L226.7,160.2L239.4,173.0L237.7,174.7L226.5,163.4L217.7,172.3L228.9,183.5L227.3,185.1L214.5,172.4zM226.3,182.1L236.6,171.7L238.1,173.2L227.8,183.6L226.3,182.1zM226.3,176.0L226.0,174.4C227.4,173.4,229.4,172.4,230.6,171.9L231.0,173.6C229.7,174.1,227.7,175.1,226.3,176.0zM220.8,169.1L222.6,168.2C223.0,170.3,223.0,172.8,222.6,174.8C222.1,174.7,221.0,174.8,220.4,174.9C221.0,173.1,221.1,170.8,220.8,169.1zM225.6,166.5L225.9,166.2L226.1,165.9L227.6,165.5C228.4,169.3,226.7,174.1,224.5,177.8C223.9,177.6,222.9,177.3,222.3,177.2C224.6,173.8,226.4,169.5,225.8,166.7L225.6,166.5zM222.6,171.5C225.1,171.5,228.5,170.0,231.4,168.0C231.4,168.6,231.6,169.6,231.7,170.2C228.7,172.1,225.0,173.4,221.9,173.3L222.6,171.5zM221.9,170.2L226.1,166.0L227.3,167.3L222.3,172.3L221.9,170.2zM226.8,179.1L226.5,177.2C228.6,175.5,231.5,173.7,233.5,172.7L233.9,174.6C232.0,175.5,229.0,177.4,226.8,179.1zM238.6,157.8L240.5,155.9L246.5,161.9C247.4,162.9,247.7,163.6,247.3,164.5C246.9,165.4,246.0,166.4,244.8,167.6C244.2,167.2,243.1,166.7,242.4,166.4C243.2,165.7,244.2,164.7,244.5,164.4C244.8,164.1,244.8,164.0,244.6,163.7L238.6,157.8zM237.0,162.9L239.2,161.6C240.3,163.9,240.9,166.7,241.0,168.8C240.3,168.8,239.1,169.1,238.4,169.3C238.5,167.4,237.9,164.9,237.0,162.9zM244.3,156.8L245.2,154.6C247.5,155.0,250.2,155.7,251.8,156.5L250.8,159.0C249.3,158.2,246.6,157.3,244.3,156.8zM230.1,157.5L240.1,147.5L241.8,149.2L231.8,159.2L230.1,157.5zM232.2,162.2L244.9,149.6L246.6,151.3L233.9,163.9L232.2,162.2&quot; fill=&quot;#999999&quot;/&gt;&lt;g transform=&quot;matrix(0.707107,-0.707107,0.707107,0.707107,134.500000,231.500000)&quot;&gt;&lt;path stroke=&quot;#999999&quot; d=&quot;M.0,11.0C.0,4.9,4.9,.0,11.0,.0L37.0,.0C43.1,.0,48.0,4.9,48.0,11.0L48.0,37.0C48.0,43.1,43.1,48.0,37.0,48.0L11.0,48.0C4.9,48.0,.0,43.1,.0,37.0L.0,11.0&quot; fill=&quot;none&quot;/&gt;&lt;path stroke=&quot;none&quot; d=&quot;M24.0,26.4L14.3,26.4C12.9,26.4,11.8,25.3,11.8,24.0C11.8,22.7,12.9,21.6,14.3,21.6L24.0,21.6C25.3,21.6,26.4,22.7,26.4,24.0C26.4,25.3,25.3,26.4,24.0,26.4&quot; fill=&quot;#c2c2c2&quot;/&gt;&lt;path stroke=&quot;none&quot; d=&quot;M24.0,14.3L14.3,14.3C12.9,14.3,11.8,13.2,11.8,11.8C11.8,10.5,12.9,9.4,14.3,9.4L24.0,9.4C32.1,9.4,38.6,15.9,38.6,24.0C38.6,32.1,32.1,38.6,24.0,38.6L14.3,38.6C12.9,38.6,11.8,37.5,11.8,36.2C11.8,34.8,12.9,33.8,14.3,33.8L24.0,33.8C29.4,33.8,33.8,29.4,33.8,24.0C33.8,18.6,29.4,14.3,24.0,14.3&quot; fill=&quot;#999999&quot;/&gt;&lt;/g&gt;&lt;/g&gt;&lt;g transform=&quot;translate(400,2400)&quot; opacity=&quot;0.4&quot;&gt;&lt;path stroke=&quot;none&quot; d=&quot;M191.4,196.9L197.7,190.5L199.3,192.1L193.0,198.4L191.4,196.9zM197.4,190.9L197.7,190.5L198.0,190.1L199.7,189.6C199.7,189.7,199.7,189.9,199.7,190.1C200.6,202.7,201.3,204.1,202.0,204.8C202.5,205.4,203.2,205.1,204.0,204.3L207.0,201.3C207.7,200.6,207.5,200.0,205.4,197.7C206.0,197.5,206.9,197.1,207.4,196.7C210.3,200.0,210.3,201.3,208.5,203.0L205.7,205.9C203.6,208.0,201.8,208.0,200.5,206.7C199.4,205.6,198.5,204.2,197.4,190.9zM188.2,197.7L190.3,196.6C191.8,199.9,192.9,203.9,193.0,207.1C192.4,206.8,191.0,206.3,190.3,206.2C190.3,203.7,189.5,200.4,188.2,197.7zM190.7,202.9L190.7,199.6L190.8,199.6L201.8,210.6L200.1,212.2L190.7,202.9zM200.4,186.5L212.5,174.4L225.3,187.1L223.6,188.8L212.4,177.6L203.6,186.4L214.8,197.6L213.2,199.3L200.4,186.5zM212.2,196.2L222.5,185.9L224.0,187.4L213.6,197.7L212.2,196.2zM212.1,190.1L211.9,188.5C213.3,187.5,215.2,186.5,216.5,186.0L216.8,187.8C215.6,188.2,213.6,189.2,212.1,190.1zM206.6,183.2L208.5,182.3C208.9,184.4,208.8,187.0,208.4,188.9C207.9,188.9,206.9,188.9,206.3,189.0C206.8,187.2,207.0,185.0,206.6,183.2zM211.5,180.6L211.8,180.3L211.9,180.1L213.4,179.7C214.3,183.5,212.6,188.3,210.3,192.0C209.8,191.7,208.8,191.4,208.2,191.4C210.5,188.0,212.2,183.6,211.7,180.8L211.5,180.6zM208.5,185.6C210.9,185.6,214.4,184.2,217.3,182.1C217.3,182.7,217.4,183.7,217.6,184.3C214.5,186.3,210.8,187.5,207.8,187.4L208.5,185.6zM207.8,184.3L212.0,180.1L213.2,181.4L208.2,186.4L207.8,184.3zM212.7,193.2L212.3,191.4C214.5,189.7,217.4,187.8,219.3,186.8L219.8,188.8C217.9,189.6,214.9,191.5,212.7,193.2zM214.5,172.4L226.7,160.2L239.4,173.0L237.7,174.7L226.5,163.4L217.7,172.3L228.9,183.5L227.3,185.1L214.5,172.4zM226.3,182.1L236.6,171.7L238.1,173.2L227.8,183.6L226.3,182.1zM226.3,176.0L226.0,174.4C227.4,173.4,229.4,172.4,230.6,171.9L231.0,173.6C229.7,174.1,227.7,175.1,226.3,176.0zM220.8,169.1L222.6,168.2C223.0,170.3,223.0,172.8,222.6,174.8C222.1,174.7,221.0,174.8,220.4,174.9C221.0,173.1,221.1,170.8,220.8,169.1zM225.6,166.5L225.9,166.2L226.1,165.9L227.6,165.5C228.4,169.3,226.7,174.1,224.5,177.8C223.9,177.6,222.9,177.3,222.3,177.2C224.6,173.8,226.4,169.5,225.8,166.7L225.6,166.5zM222.6,171.5C225.1,171.5,228.5,170.0,231.4,168.0C231.4,168.6,231.6,169.6,231.7,170.2C228.7,172.1,225.0,173.4,221.9,173.3L222.6,171.5zM221.9,170.2L226.1,166.0L227.3,167.3L222.3,172.3L221.9,170.2zM226.8,179.1L226.5,177.2C228.6,175.5,231.5,173.7,233.5,172.7L233.9,174.6C232.0,175.5,229.0,177.4,226.8,179.1zM238.6,157.8L240.5,155.9L246.5,161.9C247.4,162.9,247.7,163.6,247.3,164.5C246.9,165.4,246.0,166.4,244.8,167.6C244.2,167.2,243.1,166.7,242.4,166.4C243.2,165.7,244.2,164.7,244.5,164.4C244.8,164.1,244.8,164.0,244.6,163.7L238.6,157.8zM237.0,162.9L239.2,161.6C240.3,163.9,240.9,166.7,241.0,168.8C240.3,168.8,239.1,169.1,238.4,169.3C238.5,167.4,237.9,164.9,237.0,162.9zM244.3,156.8L245.2,154.6C247.5,155.0,250.2,155.7,251.8,156.5L250.8,159.0C249.3,158.2,246.6,157.3,244.3,156.8zM230.1,157.5L240.1,147.5L241.8,149.2L231.8,159.2L230.1,157.5zM232.2,162.2L244.9,149.6L246.6,151.3L233.9,163.9L232.2,162.2&quot; fill=&quot;#999999&quot;/&gt;&lt;g transform=&quot;matrix(0.707107,-0.707107,0.707107,0.707107,134.500000,231.500000)&quot;&gt;&lt;path stroke=&quot;#999999&quot; d=&quot;M.0,11.0C.0,4.9,4.9,.0,11.0,.0L37.0,.0C43.1,.0,48.0,4.9,48.0,11.0L48.0,37.0C48.0,43.1,43.1,48.0,37.0,48.0L11.0,48.0C4.9,48.0,.0,43.1,.0,37.0L.0,11.0&quot; fill=&quot;none&quot;/&gt;&lt;path stroke=&quot;none&quot; d=&quot;M24.0,26.4L14.3,26.4C12.9,26.4,11.8,25.3,11.8,24.0C11.8,22.7,12.9,21.6,14.3,21.6L24.0,21.6C25.3,21.6,26.4,22.7,26.4,24.0C26.4,25.3,25.3,26.4,24.0,26.4&quot; fill=&quot;#c2c2c2&quot;/&gt;&lt;path stroke=&quot;none&quot; d=&quot;M24.0,14.3L14.3,14.3C12.9,14.3,11.8,13.2,11.8,11.8C11.8,10.5,12.9,9.4,14.3,9.4L24.0,9.4C32.1,9.4,38.6,15.9,38.6,24.0C38.6,32.1,32.1,38.6,24.0,38.6L14.3,38.6C12.9,38.6,11.8,37.5,11.8,36.2C11.8,34.8,12.9,33.8,14.3,33.8L24.0,33.8C29.4,33.8,33.8,29.4,33.8,24.0C33.8,18.6,29.4,14.3,24.0,14.3&quot; fill=&quot;#999999&quot;/&gt;&lt;/g&gt;&lt;/g&gt;&lt;g transform=&quot;translate(400,2800)&quot; opacity=&quot;0.4&quot;&gt;&lt;path stroke=&quot;none&quot; d=&quot;M191.4,196.9L197.7,190.5L199.3,192.1L193.0,198.4L191.4,196.9zM197.4,190.9L197.7,190.5L198.0,190.1L199.7,189.6C199.7,189.7,199.7,189.9,199.7,190.1C200.6,202.7,201.3,204.1,202.0,204.8C202.5,205.4,203.2,205.1,204.0,204.3L207.0,201.3C207.7,200.6,207.5,200.0,205.4,197.7C206.0,197.5,206.9,197.1,207.4,196.7C210.3,200.0,210.3,201.3,208.5,203.0L205.7,205.9C203.6,208.0,201.8,208.0,200.5,206.7C199.4,205.6,198.5,204.2,197.4,190.9zM188.2,197.7L190.3,196.6C191.8,199.9,192.9,203.9,193.0,207.1C192.4,206.8,191.0,206.3,190.3,206.2C190.3,203.7,189.5,200.4,188.2,197.7zM190.7,202.9L190.7,199.6L190.8,199.6L201.8,210.6L200.1,212.2L190.7,202.9zM200.4,186.5L212.5,174.4L225.3,187.1L223.6,188.8L212.4,177.6L203.6,186.4L214.8,197.6L213.2,199.3L200.4,186.5zM212.2,196.2L222.5,185.9L224.0,187.4L213.6,197.7L212.2,196.2zM212.1,190.1L211.9,188.5C213.3,187.5,215.2,186.5,216.5,186.0L216.8,187.8C215.6,188.2,213.6,189.2,212.1,190.1zM206.6,183.2L208.5,182.3C208.9,184.4,208.8,187.0,208.4,188.9C207.9,188.9,206.9,188.9,206.3,189.0C206.8,187.2,207.0,185.0,206.6,183.2zM211.5,180.6L211.8,180.3L211.9,180.1L213.4,179.7C214.3,183.5,212.6,188.3,210.3,192.0C209.8,191.7,208.8,191.4,208.2,191.4C210.5,188.0,212.2,183.6,211.7,180.8L211.5,180.6zM208.5,185.6C210.9,185.6,214.4,184.2,217.3,182.1C217.3,182.7,217.4,183.7,217.6,184.3C214.5,186.3,210.8,187.5,207.8,187.4L208.5,185.6zM207.8,184.3L212.0,180.1L213.2,181.4L208.2,186.4L207.8,184.3zM212.7,193.2L212.3,191.4C214.5,189.7,217.4,187.8,219.3,186.8L219.8,188.8C217.9,189.6,214.9,191.5,212.7,193.2zM214.5,172.4L226.7,160.2L239.4,173.0L237.7,174.7L226.5,163.4L217.7,172.3L228.9,183.5L227.3,185.1L214.5,172.4zM226.3,182.1L236.6,171.7L238.1,173.2L227.8,183.6L226.3,182.1zM226.3,176.0L226.0,174.4C227.4,173.4,229.4,172.4,230.6,171.9L231.0,173.6C229.7,174.1,227.7,175.1,226.3,176.0zM220.8,169.1L222.6,168.2C223.0,170.3,223.0,172.8,222.6,174.8C222.1,174.7,221.0,174.8,220.4,174.9C221.0,173.1,221.1,170.8,220.8,169.1zM225.6,166.5L225.9,166.2L226.1,165.9L227.6,165.5C228.4,169.3,226.7,174.1,224.5,177.8C223.9,177.6,222.9,177.3,222.3,177.2C224.6,173.8,226.4,169.5,225.8,166.7L225.6,166.5zM222.6,171.5C225.1,171.5,228.5,170.0,231.4,168.0C231.4,168.6,231.6,169.6,231.7,170.2C228.7,172.1,225.0,173.4,221.9,173.3L222.6,171.5zM221.9,170.2L226.1,166.0L227.3,167.3L222.3,172.3L221.9,170.2zM226.8,179.1L226.5,177.2C228.6,175.5,231.5,173.7,233.5,172.7L233.9,174.6C232.0,175.5,229.0,177.4,226.8,179.1zM238.6,157.8L240.5,155.9L246.5,161.9C247.4,162.9,247.7,163.6,247.3,164.5C246.9,165.4,246.0,166.4,244.8,167.6C244.2,167.2,243.1,166.7,242.4,166.4C243.2,165.7,244.2,164.7,244.5,164.4C244.8,164.1,244.8,164.0,244.6,163.7L238.6,157.8zM237.0,162.9L239.2,161.6C240.3,163.9,240.9,166.7,241.0,168.8C240.3,168.8,239.1,169.1,238.4,169.3C238.5,167.4,237.9,164.9,237.0,162.9zM244.3,156.8L245.2,154.6C247.5,155.0,250.2,155.7,251.8,156.5L250.8,159.0C249.3,158.2,246.6,157.3,244.3,156.8zM230.1,157.5L240.1,147.5L241.8,149.2L231.8,159.2L230.1,157.5zM232.2,162.2L244.9,149.6L246.6,151.3L233.9,163.9L232.2,162.2&quot; fill=&quot;#999999&quot;/&gt;&lt;g transform=&quot;matrix(0.707107,-0.707107,0.707107,0.707107,134.500000,231.500000)&quot;&gt;&lt;path stroke=&quot;#999999&quot; d=&quot;M.0,11.0C.0,4.9,4.9,.0,11.0,.0L37.0,.0C43.1,.0,48.0,4.9,48.0,11.0L48.0,37.0C48.0,43.1,43.1,48.0,37.0,48.0L11.0,48.0C4.9,48.0,.0,43.1,.0,37.0L.0,11.0&quot; fill=&quot;none&quot;/&gt;&lt;path stroke=&quot;none&quot; d=&quot;M24.0,26.4L14.3,26.4C12.9,26.4,11.8,25.3,11.8,24.0C11.8,22.7,12.9,21.6,14.3,21.6L24.0,21.6C25.3,21.6,26.4,22.7,26.4,24.0C26.4,25.3,25.3,26.4,24.0,26.4&quot; fill=&quot;#c2c2c2&quot;/&gt;&lt;path stroke=&quot;none&quot; d=&quot;M24.0,14.3L14.3,14.3C12.9,14.3,11.8,13.2,11.8,11.8C11.8,10.5,12.9,9.4,14.3,9.4L24.0,9.4C32.1,9.4,38.6,15.9,38.6,24.0C38.6,32.1,32.1,38.6,24.0,38.6L14.3,38.6C12.9,38.6,11.8,37.5,11.8,36.2C11.8,34.8,12.9,33.8,14.3,33.8L24.0,33.8C29.4,33.8,33.8,29.4,33.8,24.0C33.8,18.6,29.4,14.3,24.0,14.3&quot; fill=&quot;#999999&quot;/&gt;&lt;/g&gt;&lt;/g&gt;&lt;g transform=&quot;translate(800,0)&quot; opacity=&quot;0.4&quot;&gt;&lt;path stroke=&quot;none&quot; d=&quot;M191.4,196.9L197.7,190.5L199.3,192.1L193.0,198.4L191.4,196.9zM197.4,190.9L197.7,190.5L198.0,190.1L199.7,189.6C199.7,189.7,199.7,189.9,199.7,190.1C200.6,202.7,201.3,204.1,202.0,204.8C202.5,205.4,203.2,205.1,204.0,204.3L207.0,201.3C207.7,200.6,207.5,200.0,205.4,197.7C206.0,197.5,206.9,197.1,207.4,196.7C210.3,200.0,210.3,201.3,208.5,203.0L205.7,205.9C203.6,208.0,201.8,208.0,200.5,206.7C199.4,205.6,198.5,204.2,197.4,190.9zM188.2,197.7L190.3,196.6C191.8,199.9,192.9,203.9,193.0,207.1C192.4,206.8,191.0,206.3,190.3,206.2C190.3,203.7,189.5,200.4,188.2,197.7zM190.7,202.9L190.7,199.6L190.8,199.6L201.8,210.6L200.1,212.2L190.7,202.9zM200.4,186.5L212.5,174.4L225.3,187.1L223.6,188.8L212.4,177.6L203.6,186.4L214.8,197.6L213.2,199.3L200.4,186.5zM212.2,196.2L222.5,185.9L224.0,187.4L213.6,197.7L212.2,196.2zM212.1,190.1L211.9,188.5C213.3,187.5,215.2,186.5,216.5,186.0L216.8,187.8C215.6,188.2,213.6,189.2,212.1,190.1zM206.6,183.2L208.5,182.3C208.9,184.4,208.8,187.0,208.4,188.9C207.9,188.9,206.9,188.9,206.3,189.0C206.8,187.2,207.0,185.0,206.6,183.2zM211.5,180.6L211.8,180.3L211.9,180.1L213.4,179.7C214.3,183.5,212.6,188.3,210.3,192.0C209.8,191.7,208.8,191.4,208.2,191.4C210.5,188.0,212.2,183.6,211.7,180.8L211.5,180.6zM208.5,185.6C210.9,185.6,214.4,184.2,217.3,182.1C217.3,182.7,217.4,183.7,217.6,184.3C214.5,186.3,210.8,187.5,207.8,187.4L208.5,185.6zM207.8,184.3L212.0,180.1L213.2,181.4L208.2,186.4L207.8,184.3zM212.7,193.2L212.3,191.4C214.5,189.7,217.4,187.8,219.3,186.8L219.8,188.8C217.9,189.6,214.9,191.5,212.7,193.2zM214.5,172.4L226.7,160.2L239.4,173.0L237.7,174.7L226.5,163.4L217.7,172.3L228.9,183.5L227.3,185.1L214.5,172.4zM226.3,182.1L236.6,171.7L238.1,173.2L227.8,183.6L226.3,182.1zM226.3,176.0L226.0,174.4C227.4,173.4,229.4,172.4,230.6,171.9L231.0,173.6C229.7,174.1,227.7,175.1,226.3,176.0zM220.8,169.1L222.6,168.2C223.0,170.3,223.0,172.8,222.6,174.8C222.1,174.7,221.0,174.8,220.4,174.9C221.0,173.1,221.1,170.8,220.8,169.1zM225.6,166.5L225.9,166.2L226.1,165.9L227.6,165.5C228.4,169.3,226.7,174.1,224.5,177.8C223.9,177.6,222.9,177.3,222.3,177.2C224.6,173.8,226.4,169.5,225.8,166.7L225.6,166.5zM222.6,171.5C225.1,171.5,228.5,170.0,231.4,168.0C231.4,168.6,231.6,169.6,231.7,170.2C228.7,172.1,225.0,173.4,221.9,173.3L222.6,171.5zM221.9,170.2L226.1,166.0L227.3,167.3L222.3,172.3L221.9,170.2zM226.8,179.1L226.5,177.2C228.6,175.5,231.5,173.7,233.5,172.7L233.9,174.6C232.0,175.5,229.0,177.4,226.8,179.1zM238.6,157.8L240.5,155.9L246.5,161.9C247.4,162.9,247.7,163.6,247.3,164.5C246.9,165.4,246.0,166.4,244.8,167.6C244.2,167.2,243.1,166.7,242.4,166.4C243.2,165.7,244.2,164.7,244.5,164.4C244.8,164.1,244.8,164.0,244.6,163.7L238.6,157.8zM237.0,162.9L239.2,161.6C240.3,163.9,240.9,166.7,241.0,168.8C240.3,168.8,239.1,169.1,238.4,169.3C238.5,167.4,237.9,164.9,237.0,162.9zM244.3,156.8L245.2,154.6C247.5,155.0,250.2,155.7,251.8,156.5L250.8,159.0C249.3,158.2,246.6,157.3,244.3,156.8zM230.1,157.5L240.1,147.5L241.8,149.2L231.8,159.2L230.1,157.5zM232.2,162.2L244.9,149.6L246.6,151.3L233.9,163.9L232.2,162.2&quot; fill=&quot;#999999&quot;/&gt;&lt;g transform=&quot;matrix(0.707107,-0.707107,0.707107,0.707107,134.500000,231.500000)&quot;&gt;&lt;path stroke=&quot;#999999&quot; d=&quot;M.0,11.0C.0,4.9,4.9,.0,11.0,.0L37.0,.0C43.1,.0,48.0,4.9,48.0,11.0L48.0,37.0C48.0,43.1,43.1,48.0,37.0,48.0L11.0,48.0C4.9,48.0,.0,43.1,.0,37.0L.0,11.0&quot; fill=&quot;none&quot;/&gt;&lt;path stroke=&quot;none&quot; d=&quot;M24.0,26.4L14.3,26.4C12.9,26.4,11.8,25.3,11.8,24.0C11.8,22.7,12.9,21.6,14.3,21.6L24.0,21.6C25.3,21.6,26.4,22.7,26.4,24.0C26.4,25.3,25.3,26.4,24.0,26.4&quot; fill=&quot;#c2c2c2&quot;/&gt;&lt;path stroke=&quot;none&quot; d=&quot;M24.0,14.3L14.3,14.3C12.9,14.3,11.8,13.2,11.8,11.8C11.8,10.5,12.9,9.4,14.3,9.4L24.0,9.4C32.1,9.4,38.6,15.9,38.6,24.0C38.6,32.1,32.1,38.6,24.0,38.6L14.3,38.6C12.9,38.6,11.8,37.5,11.8,36.2C11.8,34.8,12.9,33.8,14.3,33.8L24.0,33.8C29.4,33.8,33.8,29.4,33.8,24.0C33.8,18.6,29.4,14.3,24.0,14.3&quot; fill=&quot;#999999&quot;/&gt;&lt;/g&gt;&lt;/g&gt;&lt;g transform=&quot;translate(800,400)&quot; opacity=&quot;0.4&quot;&gt;&lt;path stroke=&quot;none&quot; d=&quot;M191.4,196.9L197.7,190.5L199.3,192.1L193.0,198.4L191.4,196.9zM197.4,190.9L197.7,190.5L198.0,190.1L199.7,189.6C199.7,189.7,199.7,189.9,199.7,190.1C200.6,202.7,201.3,204.1,202.0,204.8C202.5,205.4,203.2,205.1,204.0,204.3L207.0,201.3C207.7,200.6,207.5,200.0,205.4,197.7C206.0,197.5,206.9,197.1,207.4,196.7C210.3,200.0,210.3,201.3,208.5,203.0L205.7,205.9C203.6,208.0,201.8,208.0,200.5,206.7C199.4,205.6,198.5,204.2,197.4,190.9zM188.2,197.7L190.3,196.6C191.8,199.9,192.9,203.9,193.0,207.1C192.4,206.8,191.0,206.3,190.3,206.2C190.3,203.7,189.5,200.4,188.2,197.7zM190.7,202.9L190.7,199.6L190.8,199.6L201.8,210.6L200.1,212.2L190.7,202.9zM200.4,186.5L212.5,174.4L225.3,187.1L223.6,188.8L212.4,177.6L203.6,186.4L214.8,197.6L213.2,199.3L200.4,186.5zM212.2,196.2L222.5,185.9L224.0,187.4L213.6,197.7L212.2,196.2zM212.1,190.1L211.9,188.5C213.3,187.5,215.2,186.5,216.5,186.0L216.8,187.8C215.6,188.2,213.6,189.2,212.1,190.1zM206.6,183.2L208.5,182.3C208.9,184.4,208.8,187.0,208.4,188.9C207.9,188.9,206.9,188.9,206.3,189.0C206.8,187.2,207.0,185.0,206.6,183.2zM211.5,180.6L211.8,180.3L211.9,180.1L213.4,179.7C214.3,183.5,212.6,188.3,210.3,192.0C209.8,191.7,208.8,191.4,208.2,191.4C210.5,188.0,212.2,183.6,211.7,180.8L211.5,180.6zM208.5,185.6C210.9,185.6,214.4,184.2,217.3,182.1C217.3,182.7,217.4,183.7,217.6,184.3C214.5,186.3,210.8,187.5,207.8,187.4L208.5,185.6zM207.8,184.3L212.0,180.1L213.2,181.4L208.2,186.4L207.8,184.3zM212.7,193.2L212.3,191.4C214.5,189.7,217.4,187.8,219.3,186.8L219.8,188.8C217.9,189.6,214.9,191.5,212.7,193.2zM214.5,172.4L226.7,160.2L239.4,173.0L237.7,174.7L226.5,163.4L217.7,172.3L228.9,183.5L227.3,185.1L214.5,172.4zM226.3,182.1L236.6,171.7L238.1,173.2L227.8,183.6L226.3,182.1zM226.3,176.0L226.0,174.4C227.4,173.4,229.4,172.4,230.6,171.9L231.0,173.6C229.7,174.1,227.7,175.1,226.3,176.0zM220.8,169.1L222.6,168.2C223.0,170.3,223.0,172.8,222.6,174.8C222.1,174.7,221.0,174.8,220.4,174.9C221.0,173.1,221.1,170.8,220.8,169.1zM225.6,166.5L225.9,166.2L226.1,165.9L227.6,165.5C228.4,169.3,226.7,174.1,224.5,177.8C223.9,177.6,222.9,177.3,222.3,177.2C224.6,173.8,226.4,169.5,225.8,166.7L225.6,166.5zM222.6,171.5C225.1,171.5,228.5,170.0,231.4,168.0C231.4,168.6,231.6,169.6,231.7,170.2C228.7,172.1,225.0,173.4,221.9,173.3L222.6,171.5zM221.9,170.2L226.1,166.0L227.3,167.3L222.3,172.3L221.9,170.2zM226.8,179.1L226.5,177.2C228.6,175.5,231.5,173.7,233.5,172.7L233.9,174.6C232.0,175.5,229.0,177.4,226.8,179.1zM238.6,157.8L240.5,155.9L246.5,161.9C247.4,162.9,247.7,163.6,247.3,164.5C246.9,165.4,246.0,166.4,244.8,167.6C244.2,167.2,243.1,166.7,242.4,166.4C243.2,165.7,244.2,164.7,244.5,164.4C244.8,164.1,244.8,164.0,244.6,163.7L238.6,157.8zM237.0,162.9L239.2,161.6C240.3,163.9,240.9,166.7,241.0,168.8C240.3,168.8,239.1,169.1,238.4,169.3C238.5,167.4,237.9,164.9,237.0,162.9zM244.3,156.8L245.2,154.6C247.5,155.0,250.2,155.7,251.8,156.5L250.8,159.0C249.3,158.2,246.6,157.3,244.3,156.8zM230.1,157.5L240.1,147.5L241.8,149.2L231.8,159.2L230.1,157.5zM232.2,162.2L244.9,149.6L246.6,151.3L233.9,163.9L232.2,162.2&quot; fill=&quot;#999999&quot;/&gt;&lt;g transform=&quot;matrix(0.707107,-0.707107,0.707107,0.707107,134.500000,231.500000)&quot;&gt;&lt;path stroke=&quot;#999999&quot; d=&quot;M.0,11.0C.0,4.9,4.9,.0,11.0,.0L37.0,.0C43.1,.0,48.0,4.9,48.0,11.0L48.0,37.0C48.0,43.1,43.1,48.0,37.0,48.0L11.0,48.0C4.9,48.0,.0,43.1,.0,37.0L.0,11.0&quot; fill=&quot;none&quot;/&gt;&lt;path stroke=&quot;none&quot; d=&quot;M24.0,26.4L14.3,26.4C12.9,26.4,11.8,25.3,11.8,24.0C11.8,22.7,12.9,21.6,14.3,21.6L24.0,21.6C25.3,21.6,26.4,22.7,26.4,24.0C26.4,25.3,25.3,26.4,24.0,26.4&quot; fill=&quot;#c2c2c2&quot;/&gt;&lt;path stroke=&quot;none&quot; d=&quot;M24.0,14.3L14.3,14.3C12.9,14.3,11.8,13.2,11.8,11.8C11.8,10.5,12.9,9.4,14.3,9.4L24.0,9.4C32.1,9.4,38.6,15.9,38.6,24.0C38.6,32.1,32.1,38.6,24.0,38.6L14.3,38.6C12.9,38.6,11.8,37.5,11.8,36.2C11.8,34.8,12.9,33.8,14.3,33.8L24.0,33.8C29.4,33.8,33.8,29.4,33.8,24.0C33.8,18.6,29.4,14.3,24.0,14.3&quot; fill=&quot;#999999&quot;/&gt;&lt;/g&gt;&lt;/g&gt;&lt;g transform=&quot;translate(800,800)&quot; opacity=&quot;0.4&quot;&gt;&lt;path stroke=&quot;none&quot; d=&quot;M191.4,196.9L197.7,190.5L199.3,192.1L193.0,198.4L191.4,196.9zM197.4,190.9L197.7,190.5L198.0,190.1L199.7,189.6C199.7,189.7,199.7,189.9,199.7,190.1C200.6,202.7,201.3,204.1,202.0,204.8C202.5,205.4,203.2,205.1,204.0,204.3L207.0,201.3C207.7,200.6,207.5,200.0,205.4,197.7C206.0,197.5,206.9,197.1,207.4,196.7C210.3,200.0,210.3,201.3,208.5,203.0L205.7,205.9C203.6,208.0,201.8,208.0,200.5,206.7C199.4,205.6,198.5,204.2,197.4,190.9zM188.2,197.7L190.3,196.6C191.8,199.9,192.9,203.9,193.0,207.1C192.4,206.8,191.0,206.3,190.3,206.2C190.3,203.7,189.5,200.4,188.2,197.7zM190.7,202.9L190.7,199.6L190.8,199.6L201.8,210.6L200.1,212.2L190.7,202.9zM200.4,186.5L212.5,174.4L225.3,187.1L223.6,188.8L212.4,177.6L203.6,186.4L214.8,197.6L213.2,199.3L200.4,186.5zM212.2,196.2L222.5,185.9L224.0,187.4L213.6,197.7L212.2,196.2zM212.1,190.1L211.9,188.5C213.3,187.5,215.2,186.5,216.5,186.0L216.8,187.8C215.6,188.2,213.6,189.2,212.1,190.1zM206.6,183.2L208.5,182.3C208.9,184.4,208.8,187.0,208.4,188.9C207.9,188.9,206.9,188.9,206.3,189.0C206.8,187.2,207.0,185.0,206.6,183.2zM211.5,180.6L211.8,180.3L211.9,180.1L213.4,179.7C214.3,183.5,212.6,188.3,210.3,192.0C209.8,191.7,208.8,191.4,208.2,191.4C210.5,188.0,212.2,183.6,211.7,180.8L211.5,180.6zM208.5,185.6C210.9,185.6,214.4,184.2,217.3,182.1C217.3,182.7,217.4,183.7,217.6,184.3C214.5,186.3,210.8,187.5,207.8,187.4L208.5,185.6zM207.8,184.3L212.0,180.1L213.2,181.4L208.2,186.4L207.8,184.3zM212.7,193.2L212.3,191.4C214.5,189.7,217.4,187.8,219.3,186.8L219.8,188.8C217.9,189.6,214.9,191.5,212.7,193.2zM214.5,172.4L226.7,160.2L239.4,173.0L237.7,174.7L226.5,163.4L217.7,172.3L228.9,183.5L227.3,185.1L214.5,172.4zM226.3,182.1L236.6,171.7L238.1,173.2L227.8,183.6L226.3,182.1zM226.3,176.0L226.0,174.4C227.4,173.4,229.4,172.4,230.6,171.9L231.0,173.6C229.7,174.1,227.7,175.1,226.3,176.0zM220.8,169.1L222.6,168.2C223.0,170.3,223.0,172.8,222.6,174.8C222.1,174.7,221.0,174.8,220.4,174.9C221.0,173.1,221.1,170.8,220.8,169.1zM225.6,166.5L225.9,166.2L226.1,165.9L227.6,165.5C228.4,169.3,226.7,174.1,224.5,177.8C223.9,177.6,222.9,177.3,222.3,177.2C224.6,173.8,226.4,169.5,225.8,166.7L225.6,166.5zM222.6,171.5C225.1,171.5,228.5,170.0,231.4,168.0C231.4,168.6,231.6,169.6,231.7,170.2C228.7,172.1,225.0,173.4,221.9,173.3L222.6,171.5zM221.9,170.2L226.1,166.0L227.3,167.3L222.3,172.3L221.9,170.2zM226.8,179.1L226.5,177.2C228.6,175.5,231.5,173.7,233.5,172.7L233.9,174.6C232.0,175.5,229.0,177.4,226.8,179.1zM238.6,157.8L240.5,155.9L246.5,161.9C247.4,162.9,247.7,163.6,247.3,164.5C246.9,165.4,246.0,166.4,244.8,167.6C244.2,167.2,243.1,166.7,242.4,166.4C243.2,165.7,244.2,164.7,244.5,164.4C244.8,164.1,244.8,164.0,244.6,163.7L238.6,157.8zM237.0,162.9L239.2,161.6C240.3,163.9,240.9,166.7,241.0,168.8C240.3,168.8,239.1,169.1,238.4,169.3C238.5,167.4,237.9,164.9,237.0,162.9zM244.3,156.8L245.2,154.6C247.5,155.0,250.2,155.7,251.8,156.5L250.8,159.0C249.3,158.2,246.6,157.3,244.3,156.8zM230.1,157.5L240.1,147.5L241.8,149.2L231.8,159.2L230.1,157.5zM232.2,162.2L244.9,149.6L246.6,151.3L233.9,163.9L232.2,162.2&quot; fill=&quot;#999999&quot;/&gt;&lt;g transform=&quot;matrix(0.707107,-0.707107,0.707107,0.707107,134.500000,231.500000)&quot;&gt;&lt;path stroke=&quot;#999999&quot; d=&quot;M.0,11.0C.0,4.9,4.9,.0,11.0,.0L37.0,.0C43.1,.0,48.0,4.9,48.0,11.0L48.0,37.0C48.0,43.1,43.1,48.0,37.0,48.0L11.0,48.0C4.9,48.0,.0,43.1,.0,37.0L.0,11.0&quot; fill=&quot;none&quot;/&gt;&lt;path stroke=&quot;none&quot; d=&quot;M24.0,26.4L14.3,26.4C12.9,26.4,11.8,25.3,11.8,24.0C11.8,22.7,12.9,21.6,14.3,21.6L24.0,21.6C25.3,21.6,26.4,22.7,26.4,24.0C26.4,25.3,25.3,26.4,24.0,26.4&quot; fill=&quot;#c2c2c2&quot;/&gt;&lt;path stroke=&quot;none&quot; d=&quot;M24.0,14.3L14.3,14.3C12.9,14.3,11.8,13.2,11.8,11.8C11.8,10.5,12.9,9.4,14.3,9.4L24.0,9.4C32.1,9.4,38.6,15.9,38.6,24.0C38.6,32.1,32.1,38.6,24.0,38.6L14.3,38.6C12.9,38.6,11.8,37.5,11.8,36.2C11.8,34.8,12.9,33.8,14.3,33.8L24.0,33.8C29.4,33.8,33.8,29.4,33.8,24.0C33.8,18.6,29.4,14.3,24.0,14.3&quot; fill=&quot;#999999&quot;/&gt;&lt;/g&gt;&lt;/g&gt;&lt;g transform=&quot;translate(800,1200)&quot; opacity=&quot;0.4&quot;&gt;&lt;path stroke=&quot;none&quot; d=&quot;M191.4,196.9L197.7,190.5L199.3,192.1L193.0,198.4L191.4,196.9zM197.4,190.9L197.7,190.5L198.0,190.1L199.7,189.6C199.7,189.7,199.7,189.9,199.7,190.1C200.6,202.7,201.3,204.1,202.0,204.8C202.5,205.4,203.2,205.1,204.0,204.3L207.0,201.3C207.7,200.6,207.5,200.0,205.4,197.7C206.0,197.5,206.9,197.1,207.4,196.7C210.3,200.0,210.3,201.3,208.5,203.0L205.7,205.9C203.6,208.0,201.8,208.0,200.5,206.7C199.4,205.6,198.5,204.2,197.4,190.9zM188.2,197.7L190.3,196.6C191.8,199.9,192.9,203.9,193.0,207.1C192.4,206.8,191.0,206.3,190.3,206.2C190.3,203.7,189.5,200.4,188.2,197.7zM190.7,202.9L190.7,199.6L190.8,199.6L201.8,210.6L200.1,212.2L190.7,202.9zM200.4,186.5L212.5,174.4L225.3,187.1L223.6,188.8L212.4,177.6L203.6,186.4L214.8,197.6L213.2,199.3L200.4,186.5zM212.2,196.2L222.5,185.9L224.0,187.4L213.6,197.7L212.2,196.2zM212.1,190.1L211.9,188.5C213.3,187.5,215.2,186.5,216.5,186.0L216.8,187.8C215.6,188.2,213.6,189.2,212.1,190.1zM206.6,183.2L208.5,182.3C208.9,184.4,208.8,187.0,208.4,188.9C207.9,188.9,206.9,188.9,206.3,189.0C206.8,187.2,207.0,185.0,206.6,183.2zM211.5,180.6L211.8,180.3L211.9,180.1L213.4,179.7C214.3,183.5,212.6,188.3,210.3,192.0C209.8,191.7,208.8,191.4,208.2,191.4C210.5,188.0,212.2,183.6,211.7,180.8L211.5,180.6zM208.5,185.6C210.9,185.6,214.4,184.2,217.3,182.1C217.3,182.7,217.4,183.7,217.6,184.3C214.5,186.3,210.8,187.5,207.8,187.4L208.5,185.6zM207.8,184.3L212.0,180.1L213.2,181.4L208.2,186.4L207.8,184.3zM212.7,193.2L212.3,191.4C214.5,189.7,217.4,187.8,219.3,186.8L219.8,188.8C217.9,189.6,214.9,191.5,212.7,193.2zM214.5,172.4L226.7,160.2L239.4,173.0L237.7,174.7L226.5,163.4L217.7,172.3L228.9,183.5L227.3,185.1L214.5,172.4zM226.3,182.1L236.6,171.7L238.1,173.2L227.8,183.6L226.3,182.1zM226.3,176.0L226.0,174.4C227.4,173.4,229.4,172.4,230.6,171.9L231.0,173.6C229.7,174.1,227.7,175.1,226.3,176.0zM220.8,169.1L222.6,168.2C223.0,170.3,223.0,172.8,222.6,174.8C222.1,174.7,221.0,174.8,220.4,174.9C221.0,173.1,221.1,170.8,220.8,169.1zM225.6,166.5L225.9,166.2L226.1,165.9L227.6,165.5C228.4,169.3,226.7,174.1,224.5,177.8C223.9,177.6,222.9,177.3,222.3,177.2C224.6,173.8,226.4,169.5,225.8,166.7L225.6,166.5zM222.6,171.5C225.1,171.5,228.5,170.0,231.4,168.0C231.4,168.6,231.6,169.6,231.7,170.2C228.7,172.1,225.0,173.4,221.9,173.3L222.6,171.5zM221.9,170.2L226.1,166.0L227.3,167.3L222.3,172.3L221.9,170.2zM226.8,179.1L226.5,177.2C228.6,175.5,231.5,173.7,233.5,172.7L233.9,174.6C232.0,175.5,229.0,177.4,226.8,179.1zM238.6,157.8L240.5,155.9L246.5,161.9C247.4,162.9,247.7,163.6,247.3,164.5C246.9,165.4,246.0,166.4,244.8,167.6C244.2,167.2,243.1,166.7,242.4,166.4C243.2,165.7,244.2,164.7,244.5,164.4C244.8,164.1,244.8,164.0,244.6,163.7L238.6,157.8zM237.0,162.9L239.2,161.6C240.3,163.9,240.9,166.7,241.0,168.8C240.3,168.8,239.1,169.1,238.4,169.3C238.5,167.4,237.9,164.9,237.0,162.9zM244.3,156.8L245.2,154.6C247.5,155.0,250.2,155.7,251.8,156.5L250.8,159.0C249.3,158.2,246.6,157.3,244.3,156.8zM230.1,157.5L240.1,147.5L241.8,149.2L231.8,159.2L230.1,157.5zM232.2,162.2L244.9,149.6L246.6,151.3L233.9,163.9L232.2,162.2&quot; fill=&quot;#999999&quot;/&gt;&lt;g transform=&quot;matrix(0.707107,-0.707107,0.707107,0.707107,134.500000,231.500000)&quot;&gt;&lt;path stroke=&quot;#999999&quot; d=&quot;M.0,11.0C.0,4.9,4.9,.0,11.0,.0L37.0,.0C43.1,.0,48.0,4.9,48.0,11.0L48.0,37.0C48.0,43.1,43.1,48.0,37.0,48.0L11.0,48.0C4.9,48.0,.0,43.1,.0,37.0L.0,11.0&quot; fill=&quot;none&quot;/&gt;&lt;path stroke=&quot;none&quot; d=&quot;M24.0,26.4L14.3,26.4C12.9,26.4,11.8,25.3,11.8,24.0C11.8,22.7,12.9,21.6,14.3,21.6L24.0,21.6C25.3,21.6,26.4,22.7,26.4,24.0C26.4,25.3,25.3,26.4,24.0,26.4&quot; fill=&quot;#c2c2c2&quot;/&gt;&lt;path stroke=&quot;none&quot; d=&quot;M24.0,14.3L14.3,14.3C12.9,14.3,11.8,13.2,11.8,11.8C11.8,10.5,12.9,9.4,14.3,9.4L24.0,9.4C32.1,9.4,38.6,15.9,38.6,24.0C38.6,32.1,32.1,38.6,24.0,38.6L14.3,38.6C12.9,38.6,11.8,37.5,11.8,36.2C11.8,34.8,12.9,33.8,14.3,33.8L24.0,33.8C29.4,33.8,33.8,29.4,33.8,24.0C33.8,18.6,29.4,14.3,24.0,14.3&quot; fill=&quot;#999999&quot;/&gt;&lt;/g&gt;&lt;/g&gt;&lt;g transform=&quot;translate(800,1600)&quot; opacity=&quot;0.4&quot;&gt;&lt;path stroke=&quot;none&quot; d=&quot;M191.4,196.9L197.7,190.5L199.3,192.1L193.0,198.4L191.4,196.9zM197.4,190.9L197.7,190.5L198.0,190.1L199.7,189.6C199.7,189.7,199.7,189.9,199.7,190.1C200.6,202.7,201.3,204.1,202.0,204.8C202.5,205.4,203.2,205.1,204.0,204.3L207.0,201.3C207.7,200.6,207.5,200.0,205.4,197.7C206.0,197.5,206.9,197.1,207.4,196.7C210.3,200.0,210.3,201.3,208.5,203.0L205.7,205.9C203.6,208.0,201.8,208.0,200.5,206.7C199.4,205.6,198.5,204.2,197.4,190.9zM188.2,197.7L190.3,196.6C191.8,199.9,192.9,203.9,193.0,207.1C192.4,206.8,191.0,206.3,190.3,206.2C190.3,203.7,189.5,200.4,188.2,197.7zM190.7,202.9L190.7,199.6L190.8,199.6L201.8,210.6L200.1,212.2L190.7,202.9zM200.4,186.5L212.5,174.4L225.3,187.1L223.6,188.8L212.4,177.6L203.6,186.4L214.8,197.6L213.2,199.3L200.4,186.5zM212.2,196.2L222.5,185.9L224.0,187.4L213.6,197.7L212.2,196.2zM212.1,190.1L211.9,188.5C213.3,187.5,215.2,186.5,216.5,186.0L216.8,187.8C215.6,188.2,213.6,189.2,212.1,190.1zM206.6,183.2L208.5,182.3C208.9,184.4,208.8,187.0,208.4,188.9C207.9,188.9,206.9,188.9,206.3,189.0C206.8,187.2,207.0,185.0,206.6,183.2zM211.5,180.6L211.8,180.3L211.9,180.1L213.4,179.7C214.3,183.5,212.6,188.3,210.3,192.0C209.8,191.7,208.8,191.4,208.2,191.4C210.5,188.0,212.2,183.6,211.7,180.8L211.5,180.6zM208.5,185.6C210.9,185.6,214.4,184.2,217.3,182.1C217.3,182.7,217.4,183.7,217.6,184.3C214.5,186.3,210.8,187.5,207.8,187.4L208.5,185.6zM207.8,184.3L212.0,180.1L213.2,181.4L208.2,186.4L207.8,184.3zM212.7,193.2L212.3,191.4C214.5,189.7,217.4,187.8,219.3,186.8L219.8,188.8C217.9,189.6,214.9,191.5,212.7,193.2zM214.5,172.4L226.7,160.2L239.4,173.0L237.7,174.7L226.5,163.4L217.7,172.3L228.9,183.5L227.3,185.1L214.5,172.4zM226.3,182.1L236.6,171.7L238.1,173.2L227.8,183.6L226.3,182.1zM226.3,176.0L226.0,174.4C227.4,173.4,229.4,172.4,230.6,171.9L231.0,173.6C229.7,174.1,227.7,175.1,226.3,176.0zM220.8,169.1L222.6,168.2C223.0,170.3,223.0,172.8,222.6,174.8C222.1,174.7,221.0,174.8,220.4,174.9C221.0,173.1,221.1,170.8,220.8,169.1zM225.6,166.5L225.9,166.2L226.1,165.9L227.6,165.5C228.4,169.3,226.7,174.1,224.5,177.8C223.9,177.6,222.9,177.3,222.3,177.2C224.6,173.8,226.4,169.5,225.8,166.7L225.6,166.5zM222.6,171.5C225.1,171.5,228.5,170.0,231.4,168.0C231.4,168.6,231.6,169.6,231.7,170.2C228.7,172.1,225.0,173.4,221.9,173.3L222.6,171.5zM221.9,170.2L226.1,166.0L227.3,167.3L222.3,172.3L221.9,170.2zM226.8,179.1L226.5,177.2C228.6,175.5,231.5,173.7,233.5,172.7L233.9,174.6C232.0,175.5,229.0,177.4,226.8,179.1zM238.6,157.8L240.5,155.9L246.5,161.9C247.4,162.9,247.7,163.6,247.3,164.5C246.9,165.4,246.0,166.4,244.8,167.6C244.2,167.2,243.1,166.7,242.4,166.4C243.2,165.7,244.2,164.7,244.5,164.4C244.8,164.1,244.8,164.0,244.6,163.7L238.6,157.8zM237.0,162.9L239.2,161.6C240.3,163.9,240.9,166.7,241.0,168.8C240.3,168.8,239.1,169.1,238.4,169.3C238.5,167.4,237.9,164.9,237.0,162.9zM244.3,156.8L245.2,154.6C247.5,155.0,250.2,155.7,251.8,156.5L250.8,159.0C249.3,158.2,246.6,157.3,244.3,156.8zM230.1,157.5L240.1,147.5L241.8,149.2L231.8,159.2L230.1,157.5zM232.2,162.2L244.9,149.6L246.6,151.3L233.9,163.9L232.2,162.2&quot; fill=&quot;#999999&quot;/&gt;&lt;g transform=&quot;matrix(0.707107,-0.707107,0.707107,0.707107,134.500000,231.500000)&quot;&gt;&lt;path stroke=&quot;#999999&quot; d=&quot;M.0,11.0C.0,4.9,4.9,.0,11.0,.0L37.0,.0C43.1,.0,48.0,4.9,48.0,11.0L48.0,37.0C48.0,43.1,43.1,48.0,37.0,48.0L11.0,48.0C4.9,48.0,.0,43.1,.0,37.0L.0,11.0&quot; fill=&quot;none&quot;/&gt;&lt;path stroke=&quot;none&quot; d=&quot;M24.0,26.4L14.3,26.4C12.9,26.4,11.8,25.3,11.8,24.0C11.8,22.7,12.9,21.6,14.3,21.6L24.0,21.6C25.3,21.6,26.4,22.7,26.4,24.0C26.4,25.3,25.3,26.4,24.0,26.4&quot; fill=&quot;#c2c2c2&quot;/&gt;&lt;path stroke=&quot;none&quot; d=&quot;M24.0,14.3L14.3,14.3C12.9,14.3,11.8,13.2,11.8,11.8C11.8,10.5,12.9,9.4,14.3,9.4L24.0,9.4C32.1,9.4,38.6,15.9,38.6,24.0C38.6,32.1,32.1,38.6,24.0,38.6L14.3,38.6C12.9,38.6,11.8,37.5,11.8,36.2C11.8,34.8,12.9,33.8,14.3,33.8L24.0,33.8C29.4,33.8,33.8,29.4,33.8,24.0C33.8,18.6,29.4,14.3,24.0,14.3&quot; fill=&quot;#999999&quot;/&gt;&lt;/g&gt;&lt;/g&gt;&lt;g transform=&quot;translate(800,2000)&quot; opacity=&quot;0.4&quot;&gt;&lt;path stroke=&quot;none&quot; d=&quot;M191.4,196.9L197.7,190.5L199.3,192.1L193.0,198.4L191.4,196.9zM197.4,190.9L197.7,190.5L198.0,190.1L199.7,189.6C199.7,189.7,199.7,189.9,199.7,190.1C200.6,202.7,201.3,204.1,202.0,204.8C202.5,205.4,203.2,205.1,204.0,204.3L207.0,201.3C207.7,200.6,207.5,200.0,205.4,197.7C206.0,197.5,206.9,197.1,207.4,196.7C210.3,200.0,210.3,201.3,208.5,203.0L205.7,205.9C203.6,208.0,201.8,208.0,200.5,206.7C199.4,205.6,198.5,204.2,197.4,190.9zM188.2,197.7L190.3,196.6C191.8,199.9,192.9,203.9,193.0,207.1C192.4,206.8,191.0,206.3,190.3,206.2C190.3,203.7,189.5,200.4,188.2,197.7zM190.7,202.9L190.7,199.6L190.8,199.6L201.8,210.6L200.1,212.2L190.7,202.9zM200.4,186.5L212.5,174.4L225.3,187.1L223.6,188.8L212.4,177.6L203.6,186.4L214.8,197.6L213.2,199.3L200.4,186.5zM212.2,196.2L222.5,185.9L224.0,187.4L213.6,197.7L212.2,196.2zM212.1,190.1L211.9,188.5C213.3,187.5,215.2,186.5,216.5,186.0L216.8,187.8C215.6,188.2,213.6,189.2,212.1,190.1zM206.6,183.2L208.5,182.3C208.9,184.4,208.8,187.0,208.4,188.9C207.9,188.9,206.9,188.9,206.3,189.0C206.8,187.2,207.0,185.0,206.6,183.2zM211.5,180.6L211.8,180.3L211.9,180.1L213.4,179.7C214.3,183.5,212.6,188.3,210.3,192.0C209.8,191.7,208.8,191.4,208.2,191.4C210.5,188.0,212.2,183.6,211.7,180.8L211.5,180.6zM208.5,185.6C210.9,185.6,214.4,184.2,217.3,182.1C217.3,182.7,217.4,183.7,217.6,184.3C214.5,186.3,210.8,187.5,207.8,187.4L208.5,185.6zM207.8,184.3L212.0,180.1L213.2,181.4L208.2,186.4L207.8,184.3zM212.7,193.2L212.3,191.4C214.5,189.7,217.4,187.8,219.3,186.8L219.8,188.8C217.9,189.6,214.9,191.5,212.7,193.2zM214.5,172.4L226.7,160.2L239.4,173.0L237.7,174.7L226.5,163.4L217.7,172.3L228.9,183.5L227.3,185.1L214.5,172.4zM226.3,182.1L236.6,171.7L238.1,173.2L227.8,183.6L226.3,182.1zM226.3,176.0L226.0,174.4C227.4,173.4,229.4,172.4,230.6,171.9L231.0,173.6C229.7,174.1,227.7,175.1,226.3,176.0zM220.8,169.1L222.6,168.2C223.0,170.3,223.0,172.8,222.6,174.8C222.1,174.7,221.0,174.8,220.4,174.9C221.0,173.1,221.1,170.8,220.8,169.1zM225.6,166.5L225.9,166.2L226.1,165.9L227.6,165.5C228.4,169.3,226.7,174.1,224.5,177.8C223.9,177.6,222.9,177.3,222.3,177.2C224.6,173.8,226.4,169.5,225.8,166.7L225.6,166.5zM222.6,171.5C225.1,171.5,228.5,170.0,231.4,168.0C231.4,168.6,231.6,169.6,231.7,170.2C228.7,172.1,225.0,173.4,221.9,173.3L222.6,171.5zM221.9,170.2L226.1,166.0L227.3,167.3L222.3,172.3L221.9,170.2zM226.8,179.1L226.5,177.2C228.6,175.5,231.5,173.7,233.5,172.7L233.9,174.6C232.0,175.5,229.0,177.4,226.8,179.1zM238.6,157.8L240.5,155.9L246.5,161.9C247.4,162.9,247.7,163.6,247.3,164.5C246.9,165.4,246.0,166.4,244.8,167.6C244.2,167.2,243.1,166.7,242.4,166.4C243.2,165.7,244.2,164.7,244.5,164.4C244.8,164.1,244.8,164.0,244.6,163.7L238.6,157.8zM237.0,162.9L239.2,161.6C240.3,163.9,240.9,166.7,241.0,168.8C240.3,168.8,239.1,169.1,238.4,169.3C238.5,167.4,237.9,164.9,237.0,162.9zM244.3,156.8L245.2,154.6C247.5,155.0,250.2,155.7,251.8,156.5L250.8,159.0C249.3,158.2,246.6,157.3,244.3,156.8zM230.1,157.5L240.1,147.5L241.8,149.2L231.8,159.2L230.1,157.5zM232.2,162.2L244.9,149.6L246.6,151.3L233.9,163.9L232.2,162.2&quot; fill=&quot;#999999&quot;/&gt;&lt;g transform=&quot;matrix(0.707107,-0.707107,0.707107,0.707107,134.500000,231.500000)&quot;&gt;&lt;path stroke=&quot;#999999&quot; d=&quot;M.0,11.0C.0,4.9,4.9,.0,11.0,.0L37.0,.0C43.1,.0,48.0,4.9,48.0,11.0L48.0,37.0C48.0,43.1,43.1,48.0,37.0,48.0L11.0,48.0C4.9,48.0,.0,43.1,.0,37.0L.0,11.0&quot; fill=&quot;none&quot;/&gt;&lt;path stroke=&quot;none&quot; d=&quot;M24.0,26.4L14.3,26.4C12.9,26.4,11.8,25.3,11.8,24.0C11.8,22.7,12.9,21.6,14.3,21.6L24.0,21.6C25.3,21.6,26.4,22.7,26.4,24.0C26.4,25.3,25.3,26.4,24.0,26.4&quot; fill=&quot;#c2c2c2&quot;/&gt;&lt;path stroke=&quot;none&quot; d=&quot;M24.0,14.3L14.3,14.3C12.9,14.3,11.8,13.2,11.8,11.8C11.8,10.5,12.9,9.4,14.3,9.4L24.0,9.4C32.1,9.4,38.6,15.9,38.6,24.0C38.6,32.1,32.1,38.6,24.0,38.6L14.3,38.6C12.9,38.6,11.8,37.5,11.8,36.2C11.8,34.8,12.9,33.8,14.3,33.8L24.0,33.8C29.4,33.8,33.8,29.4,33.8,24.0C33.8,18.6,29.4,14.3,24.0,14.3&quot; fill=&quot;#999999&quot;/&gt;&lt;/g&gt;&lt;/g&gt;&lt;g transform=&quot;translate(800,2400)&quot; opacity=&quot;0.4&quot;&gt;&lt;path stroke=&quot;none&quot; d=&quot;M191.4,196.9L197.7,190.5L199.3,192.1L193.0,198.4L191.4,196.9zM197.4,190.9L197.7,190.5L198.0,190.1L199.7,189.6C199.7,189.7,199.7,189.9,199.7,190.1C200.6,202.7,201.3,204.1,202.0,204.8C202.5,205.4,203.2,205.1,204.0,204.3L207.0,201.3C207.7,200.6,207.5,200.0,205.4,197.7C206.0,197.5,206.9,197.1,207.4,196.7C210.3,200.0,210.3,201.3,208.5,203.0L205.7,205.9C203.6,208.0,201.8,208.0,200.5,206.7C199.4,205.6,198.5,204.2,197.4,190.9zM188.2,197.7L190.3,196.6C191.8,199.9,192.9,203.9,193.0,207.1C192.4,206.8,191.0,206.3,190.3,206.2C190.3,203.7,189.5,200.4,188.2,197.7zM190.7,202.9L190.7,199.6L190.8,199.6L201.8,210.6L200.1,212.2L190.7,202.9zM200.4,186.5L212.5,174.4L225.3,187.1L223.6,188.8L212.4,177.6L203.6,186.4L214.8,197.6L213.2,199.3L200.4,186.5zM212.2,196.2L222.5,185.9L224.0,187.4L213.6,197.7L212.2,196.2zM212.1,190.1L211.9,188.5C213.3,187.5,215.2,186.5,216.5,186.0L216.8,187.8C215.6,188.2,213.6,189.2,212.1,190.1zM206.6,183.2L208.5,182.3C208.9,184.4,208.8,187.0,208.4,188.9C207.9,188.9,206.9,188.9,206.3,189.0C206.8,187.2,207.0,185.0,206.6,183.2zM211.5,180.6L211.8,180.3L211.9,180.1L213.4,179.7C214.3,183.5,212.6,188.3,210.3,192.0C209.8,191.7,208.8,191.4,208.2,191.4C210.5,188.0,212.2,183.6,211.7,180.8L211.5,180.6zM208.5,185.6C210.9,185.6,214.4,184.2,217.3,182.1C217.3,182.7,217.4,183.7,217.6,184.3C214.5,186.3,210.8,187.5,207.8,187.4L208.5,185.6zM207.8,184.3L212.0,180.1L213.2,181.4L208.2,186.4L207.8,184.3zM212.7,193.2L212.3,191.4C214.5,189.7,217.4,187.8,219.3,186.8L219.8,188.8C217.9,189.6,214.9,191.5,212.7,193.2zM214.5,172.4L226.7,160.2L239.4,173.0L237.7,174.7L226.5,163.4L217.7,172.3L228.9,183.5L227.3,185.1L214.5,172.4zM226.3,182.1L236.6,171.7L238.1,173.2L227.8,183.6L226.3,182.1zM226.3,176.0L226.0,174.4C227.4,173.4,229.4,172.4,230.6,171.9L231.0,173.6C229.7,174.1,227.7,175.1,226.3,176.0zM220.8,169.1L222.6,168.2C223.0,170.3,223.0,172.8,222.6,174.8C222.1,174.7,221.0,174.8,220.4,174.9C221.0,173.1,221.1,170.8,220.8,169.1zM225.6,166.5L225.9,166.2L226.1,165.9L227.6,165.5C228.4,169.3,226.7,174.1,224.5,177.8C223.9,177.6,222.9,177.3,222.3,177.2C224.6,173.8,226.4,169.5,225.8,166.7L225.6,166.5zM222.6,171.5C225.1,171.5,228.5,170.0,231.4,168.0C231.4,168.6,231.6,169.6,231.7,170.2C228.7,172.1,225.0,173.4,221.9,173.3L222.6,171.5zM221.9,170.2L226.1,166.0L227.3,167.3L222.3,172.3L221.9,170.2zM226.8,179.1L226.5,177.2C228.6,175.5,231.5,173.7,233.5,172.7L233.9,174.6C232.0,175.5,229.0,177.4,226.8,179.1zM238.6,157.8L240.5,155.9L246.5,161.9C247.4,162.9,247.7,163.6,247.3,164.5C246.9,165.4,246.0,166.4,244.8,167.6C244.2,167.2,243.1,166.7,242.4,166.4C243.2,165.7,244.2,164.7,244.5,164.4C244.8,164.1,244.8,164.0,244.6,163.7L238.6,157.8zM237.0,162.9L239.2,161.6C240.3,163.9,240.9,166.7,241.0,168.8C240.3,168.8,239.1,169.1,238.4,169.3C238.5,167.4,237.9,164.9,237.0,162.9zM244.3,156.8L245.2,154.6C247.5,155.0,250.2,155.7,251.8,156.5L250.8,159.0C249.3,158.2,246.6,157.3,244.3,156.8zM230.1,157.5L240.1,147.5L241.8,149.2L231.8,159.2L230.1,157.5zM232.2,162.2L244.9,149.6L246.6,151.3L233.9,163.9L232.2,162.2&quot; fill=&quot;#999999&quot;/&gt;&lt;g transform=&quot;matrix(0.707107,-0.707107,0.707107,0.707107,134.500000,231.500000)&quot;&gt;&lt;path stroke=&quot;#999999&quot; d=&quot;M.0,11.0C.0,4.9,4.9,.0,11.0,.0L37.0,.0C43.1,.0,48.0,4.9,48.0,11.0L48.0,37.0C48.0,43.1,43.1,48.0,37.0,48.0L11.0,48.0C4.9,48.0,.0,43.1,.0,37.0L.0,11.0&quot; fill=&quot;none&quot;/&gt;&lt;path stroke=&quot;none&quot; d=&quot;M24.0,26.4L14.3,26.4C12.9,26.4,11.8,25.3,11.8,24.0C11.8,22.7,12.9,21.6,14.3,21.6L24.0,21.6C25.3,21.6,26.4,22.7,26.4,24.0C26.4,25.3,25.3,26.4,24.0,26.4&quot; fill=&quot;#c2c2c2&quot;/&gt;&lt;path stroke=&quot;none&quot; d=&quot;M24.0,14.3L14.3,14.3C12.9,14.3,11.8,13.2,11.8,11.8C11.8,10.5,12.9,9.4,14.3,9.4L24.0,9.4C32.1,9.4,38.6,15.9,38.6,24.0C38.6,32.1,32.1,38.6,24.0,38.6L14.3,38.6C12.9,38.6,11.8,37.5,11.8,36.2C11.8,34.8,12.9,33.8,14.3,33.8L24.0,33.8C29.4,33.8,33.8,29.4,33.8,24.0C33.8,18.6,29.4,14.3,24.0,14.3&quot; fill=&quot;#999999&quot;/&gt;&lt;/g&gt;&lt;/g&gt;&lt;g transform=&quot;translate(800,2800)&quot; opacity=&quot;0.4&quot;&gt;&lt;path stroke=&quot;none&quot; d=&quot;M191.4,196.9L197.7,190.5L199.3,192.1L193.0,198.4L191.4,196.9zM197.4,190.9L197.7,190.5L198.0,190.1L199.7,189.6C199.7,189.7,199.7,189.9,199.7,190.1C200.6,202.7,201.3,204.1,202.0,204.8C202.5,205.4,203.2,205.1,204.0,204.3L207.0,201.3C207.7,200.6,207.5,200.0,205.4,197.7C206.0,197.5,206.9,197.1,207.4,196.7C210.3,200.0,210.3,201.3,208.5,203.0L205.7,205.9C203.6,208.0,201.8,208.0,200.5,206.7C199.4,205.6,198.5,204.2,197.4,190.9zM188.2,197.7L190.3,196.6C191.8,199.9,192.9,203.9,193.0,207.1C192.4,206.8,191.0,206.3,190.3,206.2C190.3,203.7,189.5,200.4,188.2,197.7zM190.7,202.9L190.7,199.6L190.8,199.6L201.8,210.6L200.1,212.2L190.7,202.9zM200.4,186.5L212.5,174.4L225.3,187.1L223.6,188.8L212.4,177.6L203.6,186.4L214.8,197.6L213.2,199.3L200.4,186.5zM212.2,196.2L222.5,185.9L224.0,187.4L213.6,197.7L212.2,196.2zM212.1,190.1L211.9,188.5C213.3,187.5,215.2,186.5,216.5,186.0L216.8,187.8C215.6,188.2,213.6,189.2,212.1,190.1zM206.6,183.2L208.5,182.3C208.9,184.4,208.8,187.0,208.4,188.9C207.9,188.9,206.9,188.9,206.3,189.0C206.8,187.2,207.0,185.0,206.6,183.2zM211.5,180.6L211.8,180.3L211.9,180.1L213.4,179.7C214.3,183.5,212.6,188.3,210.3,192.0C209.8,191.7,208.8,191.4,208.2,191.4C210.5,188.0,212.2,183.6,211.7,180.8L211.5,180.6zM208.5,185.6C210.9,185.6,214.4,184.2,217.3,182.1C217.3,182.7,217.4,183.7,217.6,184.3C214.5,186.3,210.8,187.5,207.8,187.4L208.5,185.6zM207.8,184.3L212.0,180.1L213.2,181.4L208.2,186.4L207.8,184.3zM212.7,193.2L212.3,191.4C214.5,189.7,217.4,187.8,219.3,186.8L219.8,188.8C217.9,189.6,214.9,191.5,212.7,193.2zM214.5,172.4L226.7,160.2L239.4,173.0L237.7,174.7L226.5,163.4L217.7,172.3L228.9,183.5L227.3,185.1L214.5,172.4zM226.3,182.1L236.6,171.7L238.1,173.2L227.8,183.6L226.3,182.1zM226.3,176.0L226.0,174.4C227.4,173.4,229.4,172.4,230.6,171.9L231.0,173.6C229.7,174.1,227.7,175.1,226.3,176.0zM220.8,169.1L222.6,168.2C223.0,170.3,223.0,172.8,222.6,174.8C222.1,174.7,221.0,174.8,220.4,174.9C221.0,173.1,221.1,170.8,220.8,169.1zM225.6,166.5L225.9,166.2L226.1,165.9L227.6,165.5C228.4,169.3,226.7,174.1,224.5,177.8C223.9,177.6,222.9,177.3,222.3,177.2C224.6,173.8,226.4,169.5,225.8,166.7L225.6,166.5zM222.6,171.5C225.1,171.5,228.5,170.0,231.4,168.0C231.4,168.6,231.6,169.6,231.7,170.2C228.7,172.1,225.0,173.4,221.9,173.3L222.6,171.5zM221.9,170.2L226.1,166.0L227.3,167.3L222.3,172.3L221.9,170.2zM226.8,179.1L226.5,177.2C228.6,175.5,231.5,173.7,233.5,172.7L233.9,174.6C232.0,175.5,229.0,177.4,226.8,179.1zM238.6,157.8L240.5,155.9L246.5,161.9C247.4,162.9,247.7,163.6,247.3,164.5C246.9,165.4,246.0,166.4,244.8,167.6C244.2,167.2,243.1,166.7,242.4,166.4C243.2,165.7,244.2,164.7,244.5,164.4C244.8,164.1,244.8,164.0,244.6,163.7L238.6,157.8zM237.0,162.9L239.2,161.6C240.3,163.9,240.9,166.7,241.0,168.8C240.3,168.8,239.1,169.1,238.4,169.3C238.5,167.4,237.9,164.9,237.0,162.9zM244.3,156.8L245.2,154.6C247.5,155.0,250.2,155.7,251.8,156.5L250.8,159.0C249.3,158.2,246.6,157.3,244.3,156.8zM230.1,157.5L240.1,147.5L241.8,149.2L231.8,159.2L230.1,157.5zM232.2,162.2L244.9,149.6L246.6,151.3L233.9,163.9L232.2,162.2&quot; fill=&quot;#999999&quot;/&gt;&lt;g transform=&quot;matrix(0.707107,-0.707107,0.707107,0.707107,134.500000,231.500000)&quot;&gt;&lt;path stroke=&quot;#999999&quot; d=&quot;M.0,11.0C.0,4.9,4.9,.0,11.0,.0L37.0,.0C43.1,.0,48.0,4.9,48.0,11.0L48.0,37.0C48.0,43.1,43.1,48.0,37.0,48.0L11.0,48.0C4.9,48.0,.0,43.1,.0,37.0L.0,11.0&quot; fill=&quot;none&quot;/&gt;&lt;path stroke=&quot;none&quot; d=&quot;M24.0,26.4L14.3,26.4C12.9,26.4,11.8,25.3,11.8,24.0C11.8,22.7,12.9,21.6,14.3,21.6L24.0,21.6C25.3,21.6,26.4,22.7,26.4,24.0C26.4,25.3,25.3,26.4,24.0,26.4&quot; fill=&quot;#c2c2c2&quot;/&gt;&lt;path stroke=&quot;none&quot; d=&quot;M24.0,14.3L14.3,14.3C12.9,14.3,11.8,13.2,11.8,11.8C11.8,10.5,12.9,9.4,14.3,9.4L24.0,9.4C32.1,9.4,38.6,15.9,38.6,24.0C38.6,32.1,32.1,38.6,24.0,38.6L14.3,38.6C12.9,38.6,11.8,37.5,11.8,36.2C11.8,34.8,12.9,33.8,14.3,33.8L24.0,33.8C29.4,33.8,33.8,29.4,33.8,24.0C33.8,18.6,29.4,14.3,24.0,14.3&quot; fill=&quot;#999999&quot;/&gt;&lt;/g&gt;&lt;/g&gt;&lt;g transform=&quot;matrix(0.801800,0.000000,0.000000,0.801800,898.016000,0.000000)&quot;&gt;&lt;path stroke=&quot;none&quot; d=&quot;M0 0H280V80H25.76C16.6481 80 12.0922 80 8.62441 78.1986C5.70212 76.6806 3.31939 74.2979 1.80138 71.3756C0 67.9078 0 63.3519 0 54.24V0Z&quot; fill=&quot;#017FFF&quot;/&gt;&lt;path stroke=&quot;none&quot; d=&quot;M133.0,29.5C132.0,32.3,130.2,35.1,128.4,36.9C128.9,37.4,129.5,38.7,129.7,39.3C130.2,38.8,130.6,38.2,131.1,37.7L131.1,47.8L133.4,47.8L133.4,34.1C134.1,32.8,134.7,31.5,135.2,30.1L133.0,29.5zM139.3,45.0C138.2,45.0,137.5,44.7,137.5,44.0C137.5,43.0,138.0,41.6,146.2,32.1C146.3,32.0,146.4,31.9,146.5,31.8L145.0,31.0L144.5,31.1L135.7,31.1L135.7,33.3L142.2,33.3C135.5,41.4,135.2,42.8,135.2,44.2C135.2,46.1,136.4,47.3,139.4,47.3L143.3,47.3C145.8,47.3,146.7,46.4,147.0,42.1C146.3,42.0,145.5,41.7,144.9,41.4C144.8,44.5,144.5,45.0,143.5,45.0L139.3,45.0zM161.3,45.1L162.2,43.5C160.2,42.8,156.9,42.1,154.2,41.8L153.1,43.4C155.7,43.7,159.0,44.4,160.9,45.1L151.6,45.1L151.6,39.2C151.9,39.7,152.3,40.4,152.4,40.8C153.5,40.6,154.6,40.2,155.7,39.8L154.9,40.8C156.6,41.2,158.7,41.9,159.9,42.4L160.8,41.0C159.7,40.5,157.8,39.9,156.3,39.6C156.8,39.4,157.3,39.1,157.9,38.8C159.4,39.6,161.1,40.2,162.8,40.6C163.0,40.2,163.4,39.5,163.8,39.1L163.8,45.1L161.3,45.1zM155.8,32.2C154.9,33.7,153.3,35.1,151.7,36.0C152.1,36.3,152.9,37.0,153.2,37.4C153.6,37.1,154.0,36.8,154.4,36.5C154.8,36.9,155.3,37.3,155.8,37.7C154.5,38.2,153.0,38.6,151.6,38.9L151.6,32.2L155.8,32.2zM159.7,35.5C159.1,35.9,158.5,36.4,157.8,36.7C157.1,36.4,156.4,35.9,155.9,35.5L159.7,35.5zM163.8,38.8C162.5,38.5,161.1,38.2,159.8,37.7C161.2,36.8,162.4,35.7,163.1,34.5L161.8,33.7L161.5,33.8L157.2,33.8C157.4,33.5,157.6,33.1,157.8,32.8L156.1,32.2L163.8,32.2L163.8,38.8zM149.3,30.1L149.3,47.9L151.6,47.9L151.6,47.2L163.8,47.2L163.8,47.9L166.2,47.9L166.2,30.1L149.3,30.1zM181.1,45.1L182.0,43.5C180.0,42.8,176.7,42.1,174.0,41.8L172.9,43.4C175.5,43.7,178.8,44.4,180.7,45.1L171.4,45.1L171.4,39.2C171.7,39.7,172.1,40.4,172.2,40.8C173.3,40.6,174.4,40.2,175.5,39.8L174.7,40.8C176.4,41.2,178.5,41.9,179.7,42.4L180.6,41.0C179.5,40.5,177.6,39.9,176.1,39.6C176.6,39.4,177.1,39.1,177.7,38.8C179.2,39.6,180.9,40.2,182.6,40.6C182.8,40.2,183.2,39.5,183.6,39.1L183.6,45.1L181.1,45.1zM175.6,32.2C174.7,33.7,173.1,35.1,171.5,36.0C171.9,36.3,172.7,37.0,173.0,37.4C173.4,37.1,173.8,36.8,174.2,36.5C174.6,36.9,175.1,37.3,175.6,37.7C174.3,38.2,172.8,38.6,171.4,38.9L171.4,32.2L175.6,32.2zM179.5,35.5C178.9,35.9,178.3,36.4,177.6,36.7C176.9,36.4,176.2,35.9,175.7,35.5L179.5,35.5zM183.6,38.8C182.3,38.5,180.9,38.2,179.6,37.7C181.0,36.8,182.2,35.7,182.9,34.5L181.6,33.7L181.3,33.8L177.0,33.8C177.2,33.5,177.4,33.1,177.6,32.8L175.9,32.2L183.6,32.2L183.6,38.8zM169.1,30.1L169.1,47.9L171.4,47.9L171.4,47.2L183.6,47.2L183.6,47.9L186.0,47.9L186.0,30.1L169.1,30.1zM204.3,30.6L190.4,30.6L190.4,33.0L204.3,33.0L204.3,30.6zM191.4,39.2C190.7,41.2,189.3,43.3,187.9,44.6C188.5,44.9,189.6,45.6,190.1,46.0C191.5,44.6,193.0,42.2,193.9,39.8L191.4,39.2zM206.2,37.8L206.2,35.4L188.6,35.4L188.6,37.8L196.1,37.8L196.1,45.0C196.1,45.3,196.0,45.4,195.6,45.4C195.2,45.4,193.8,45.4,192.7,45.4C193.1,46.1,193.4,47.1,193.5,47.9C195.3,47.9,196.6,47.8,197.5,47.5C198.4,47.1,198.7,46.4,198.7,45.1L198.7,37.8L206.2,37.8zM200.7,40.0C202.0,41.9,203.3,44.5,203.8,46.1L206.2,45.0C205.7,43.3,204.2,40.9,202.9,39.1L200.7,40.0&quot; fill=&quot;#FFFFFF&quot;/&gt;&lt;g transform=&quot;matrix(1.000000,0.000000,0.000000,1.000000,71.000000,16.000000)&quot;&gt;&lt;path fill-opacity=&quot;0.25&quot; stroke=&quot;none&quot; d=&quot;M.0,9.8C.0,4.9,3.9,1.0,8.8,1.0L39.2,1.0C44.1,1.0,48.0,4.9,48.0,9.8L48.0,40.2C48.0,45.1,44.1,49.0,39.2,49.0L8.8,49.0C3.9,49.0,.0,45.1,.0,40.2L.0,9.8&quot; fill=&quot;#000000&quot;/&gt;&lt;path stroke=&quot;none&quot; d=&quot;M.0,11.0L.1,9.2L.6,7.5L1.2,5.9L2.1,4.5L3.2,3.2L4.5,2.1L5.9,1.2L7.5,.6L9.2,.1L11.0,.0L37.0,.0L38.8,.1L40.5,.6L42.1,1.2L43.5,2.1L44.8,3.2L45.9,4.5L46.8,5.9L47.4,7.5L47.9,9.2L48.0,11.0L48.0,37.0L47.9,38.8L47.4,40.5L46.8,42.1L45.9,43.5L44.8,44.8L43.5,45.9L42.1,46.8L40.5,47.4L38.8,47.9L37.0,48.0L11.0,48.0L9.2,47.9L7.5,47.4L5.9,46.8L4.5,45.9L3.2,44.8L2.1,43.5L1.2,42.1L.6,40.5L.1,38.8L.0,37.0L.0,11.0zM24.0,26.4L14.3,26.4L12.5,25.7L11.8,24.0L12.5,22.3L14.3,21.6L24.0,21.6L25.7,22.3L26.4,24.0L25.7,25.7L24.0,26.4zM24.0,14.3L14.3,14.3L12.5,13.5L11.8,11.8L12.5,10.1L14.3,9.4L24.0,9.4L25.7,9.5L27.4,9.8L28.9,10.2L30.4,10.9L31.8,11.7L33.1,12.6L34.3,13.7L35.4,14.9L36.3,16.2L37.1,17.6L37.8,19.1L38.2,20.6L38.5,22.3L38.6,24.0L38.5,25.7L38.2,27.4L37.8,28.9L37.1,30.4L36.3,31.8L35.4,33.1L34.3,34.3L33.1,35.4L31.8,36.3L30.4,37.1L28.9,37.8L27.4,38.2L25.7,38.5L24.0,38.6L14.3,38.6L12.5,37.9L11.8,36.2L12.5,34.5L14.3,33.8L24.0,33.8L25.8,33.6L27.4,33.1L28.9,32.4L30.3,31.5L31.5,30.3L32.4,28.9L33.1,27.4L33.6,25.8L33.8,24.0L33.6,22.2L33.1,20.6L32.4,19.1L31.5,17.7L30.3,16.5L28.9,15.6L27.4,14.9L25.8,14.4L24.0,14.3&quot; fill=&quot;url(#watermark_linear)&quot;/&gt;&lt;path stroke=&quot;none&quot; d=&quot;M24.0,26.4L14.3,26.4C12.9,26.4,11.8,25.3,11.8,24.0C11.8,22.7,12.9,21.6,14.3,21.6L24.0,21.6C25.3,21.6,26.4,22.7,26.4,24.0C26.4,25.3,25.3,26.4,24.0,26.4&quot; fill=&quot;#AED7FF&quot;/&gt;&lt;path stroke=&quot;none&quot; d=&quot;M24.0,14.3L14.3,14.3C12.9,14.3,11.8,13.2,11.8,11.8C11.8,10.5,12.9,9.4,14.3,9.4L24.0,9.4C32.1,9.4,38.6,15.9,38.6,24.0C38.6,32.1,32.1,38.6,24.0,38.6L14.3,38.6C12.9,38.6,11.8,37.5,11.8,36.2C11.8,34.8,12.9,33.8,14.3,33.8L24.0,33.8C29.4,33.8,33.8,29.4,33.8,24.0C33.8,18.6,29.4,14.3,24.0,14.3&quot; fill=&quot;#FFFFFF&quot;/&gt;&lt;/g&gt;&lt;/g&gt;&lt;/svg&gt;&lt;/div&gt;&lt;/div&gt;&lt;div id=&quot;navBar&quot;&gt;&lt;div id=&quot;nav-thumbs&quot;/&gt;&lt;/div&gt;&lt;/div&gt;&lt;script&gt;&#10;        const svgs=document.getElementById(&quot;svg-container&quot;).children;&#10;        const UA=window.navigator.userAgent;&#10;        const ua=(UA.indexOf('rv:11')+UA.indexOf('Firefox'))&gt;=0;&#10;        const svgcount=document.getElementById('svg-container').childElementCount;&#10;        var styleArr=[];&#10;        var heightArr=[];&#10;        var navBar=document.getElementById('navBar');&#10;        var conInfo=document.getElementById('content-info');&#10;        for(var i=0;i&lt;svgcount;i++){&#10;            styleArr[i] = {width:svgs[i].getAttribute('width'),height:svgs[i].getAttribute('height')}&#10;        }&#10;        window.onresize=function () {&#10;            renavstyle();&#10;            resvgstyle();&#10;        };&#10;        window.onscroll=renavstyle;&#10;        window.onload=function () {&#10;            renavstyle();&#10;            var sideWidth=navBar.offsetWidth;&#10;            document.getElementById('content-info').style.marginRight=sideWidth+'px';&#10;            document.getElementById('main-content').style.marginRight=sideWidth+'px';&#10;            resvgstyle();&#10;            doscroll();&#10;        };&#10;        function recontainstyle() {&#10;            var topHeight=conInfo.clientHeight;&#10;            var svgHeight=0;&#10;            for(var i=0;i&lt;svgcount;i++){&#10;                heightArr[i]=svgs[i].getBoundingClientRect().height+10;&#10;                svgHeight+=svgs[i].clientHeight ||svgs[i].getBoundingClientRect().height;&#10;            }&#10;            var fullHeight=svgHeight+Number(topHeight);&#10;            if(fullHeight&lt;window.innerHeight){&#10;            document.getElementById('main-content').style.position='absolute';&#10;            document.getElementById('main-content').style.top=topHeight+'px';&#10;        }else{&#10;            document.getElementById('main-content').style.position='';&#10;        }&#10;        }&#10;        function resvgstyle() {&#10;            var sideWidth=navBar.offsetWidth+20;&#10;            for(var i=0;i&lt;svgcount;i++){&#10;                var oriWidth = styleArr[i].width;&#10;                var oriHeight = styleArr[i].height;&#10;                var percent = oriHeight / oriWidth;&#10;                var innerWidth=document.body.offsetWidth-sideWidth;&#10;                if (innerWidth &lt;= oriWidth) {&#10;                    svgs[i].removeAttribute('width');&#10;                    svgs[i].removeAttribute('height');&#10;                    if (ua) {&#10;                        svgs[i].setAttribute('height',innerWidth*percent);&#10;                    }&#10;                }else {&#10;                    svgs[i].setAttribute('width', oriWidth);&#10;                    svgs[i].setAttribute('height', oriHeight);&#10;                }&#10;            }&#10;            recontainstyle();&#10;        }&#10;        function renavstyle() {&#10;            var topHeight=conInfo.clientHeight;&#10;            var scrollTop=document.body.scrollTop||document.documentElement.scrollTop;&#10;            if(scrollTop&gt;topHeight){&#10;                document.getElementById('navBar').style.top=0+'px';&#10;            }else{&#10;                document.getElementById('navBar').style.top=topHeight-scrollTop+'px';&#10;            }&#10;            doscroll();&#10;        }&#10;        function doscroll() {&#10;            var topHeight=conInfo.clientHeight;&#10;            var scrollTop=document.body.scrollTop||document.documentElement.scrollTop;&#10;            for(var i=0;i&lt;svgcount;i++){&#10;                var sum=0;&#10;                for(var j=0;j&lt;=i;j++){&#10;                    sum+=heightArr[j];&#10;                }&#10;                if(scrollTop+window.innerHeight/2-topHeight-sum&lt;0){&#10;                    var sub=Number(i)+1;&#10;                    if(document.querySelector('#nav-thumbs .selected')){&#10;                        document.querySelector('#nav-thumbs .selected').classList.remove('selected');&#10;                    }&#10;                    if(document.querySelector('.nav-thumb:nth-of-type('+sub+')')){&#10;                        document.querySelector('.nav-thumb:nth-of-type('+sub+')').classList.add('selected');&#10;                    }&#10;                    break;&#10;                }&#10;            }&#10;        }&#10;        var navs=document.querySelectorAll('.nav-thumb');&#10;        for(i=0;i&lt;navs.length;i++){&#10;            navs[i].children[0].onclick=function () {&#10;                document.querySelector('#nav-thumbs .selected').classList.remove('selected');&#10;                this.parentNode.classList.add('selected');&#10;            }&#10;        }&#10;&lt;/script&gt;&lt;/body&gt;&lt;/html&gt;" style="text;whiteSpace=wrap;html=1;" vertex="1" parent="1">
                    <mxGeometry x="-480" y="-210" width="560" height="3200" as="geometry"/>
                </mxCell>
            </root>
        </mxGraphModel>
    </diagram>
</mxfile>